<svg width="542" height="788" viewBox="0 0 542 788" fill="none" xmlns="http://www.w3.org/2000/svg">
<circle cx="413.799" cy="702.696" r="83.3278" stroke="#13332F" stroke-width="3"/>
<circle cx="118.635" cy="118.679" r="116.562" stroke="#13332F" stroke-width="3"/>
<rect x="6.74023" y="61.9127" width="535.256" height="708.099" rx="267.628" fill="#7FA791"/>
<g clip-path="url(#clip0_1_4)">
<path d="M289.338 308.357L289.338 308.347V308.337V308.317C289.413 306.894 289.567 305.476 289.783 304.06L289.831 303.744H289.511H286.744H286.505L286.471 303.979C286.273 305.355 286.13 306.742 286.059 308.141C285.481 316.361 287.255 324.798 289.11 332.701L289.172 332.969L289.44 332.906L292.104 332.281L292.372 332.219L292.309 331.951C290.425 323.924 288.789 316.113 289.338 308.357Z" fill="#13332F" stroke="#13332F" stroke-width="0.55"/>
<path d="M294.239 249.882C290.847 244.858 286.228 240.349 282.175 236.393C282.175 236.393 282.175 236.393 282.175 236.392C282.175 236.392 282.175 236.392 282.175 236.392C282.065 236.284 281.955 236.177 281.846 236.071C281.065 235.307 280.32 234.58 279.591 233.853L279.591 233.853L279.587 233.849L279.551 233.815L279.551 233.815L279.548 233.811C270.75 225.647 267.146 218.954 267.696 212.082C268.211 205.651 272.195 199.227 278.996 190.221L279.161 190.002L278.942 189.836L276.759 188.187L276.539 188.022L276.374 188.241C269.277 197.638 265.003 204.546 264.42 211.821C264.1 215.808 264.952 219.663 267.01 223.595C269.107 227.605 272.476 231.728 277.291 236.2C278.128 237.034 278.979 237.864 279.879 238.743C283.902 242.672 288.165 246.835 291.323 251.416C294.478 255.993 296.512 260.962 296.106 266.499L296.084 266.795H296.38H299.122H299.38L299.396 266.537C299.754 260.99 298.054 255.531 294.239 249.882Z" fill="#13332F" stroke="#13332F" stroke-width="0.55"/>
<path d="M280.799 554.391V554.141H280.549H277.812H277.562V554.391V579.839V580.089H277.812H280.549H280.799V579.839V554.391Z" fill="#13332F" stroke="#13332F" stroke-width="0.5"/>
<path d="M280.799 617.338V617.088H280.549H277.812H277.562V617.338V633.518V633.768H277.812H280.549H280.799V633.518V617.338Z" fill="#13332F" stroke="#13332F" stroke-width="0.5"/>
<path d="M243.923 593.496C243.337 593.194 242.885 592.765 242.567 592.21C242.249 591.656 242.089 591.019 242.089 590.299V586.571C242.089 585.842 242.249 585.203 242.567 584.653C242.885 584.103 243.337 583.677 243.923 583.374C244.51 583.072 245.186 582.919 245.957 582.919C246.727 582.919 247.387 583.068 247.967 583.366C248.547 583.664 248.997 584.07 249.315 584.582C249.633 585.097 249.793 585.677 249.793 586.323V586.447C249.793 586.499 249.774 586.542 249.74 586.578C249.704 586.614 249.66 586.632 249.609 586.632H248.206C248.154 586.632 248.111 586.614 248.075 586.578C248.039 586.542 248.022 586.499 248.022 586.447V586.37C248.022 585.815 247.834 585.359 247.459 584.999C247.084 584.639 246.583 584.459 245.957 584.459C245.33 584.459 244.826 584.646 244.446 585.022C244.066 585.396 243.876 585.893 243.876 586.509V590.361C243.876 590.978 244.076 591.473 244.476 591.849C244.877 592.223 245.395 592.412 246.033 592.412C246.671 592.412 247.135 592.25 247.489 591.926C247.843 591.602 248.02 591.159 248.02 590.593V589.638C248.02 589.587 247.994 589.561 247.944 589.561H246.049C245.997 589.561 245.954 589.543 245.918 589.507C245.882 589.471 245.865 589.428 245.865 589.376V588.236C245.865 588.184 245.882 588.141 245.918 588.105C245.954 588.069 245.997 588.051 246.049 588.051H249.609C249.66 588.051 249.704 588.07 249.74 588.105C249.776 588.141 249.793 588.184 249.793 588.236V590.209C249.793 591.389 249.446 592.31 248.753 592.966C248.061 593.624 247.127 593.953 245.957 593.953C245.186 593.953 244.508 593.801 243.923 593.498V593.496Z" fill="#13332F"/>
<path d="M256.281 586.169C256.774 586.395 257.154 586.706 257.422 587.101C257.688 587.497 257.822 587.946 257.822 588.449V593.641C257.822 593.693 257.803 593.737 257.769 593.773C257.733 593.809 257.69 593.826 257.638 593.826H256.221C256.169 593.826 256.126 593.809 256.09 593.773C256.054 593.737 256.037 593.693 256.037 593.641V593.149C256.037 593.119 256.026 593.1 256.006 593.096C255.986 593.09 255.965 593.099 255.944 593.119C255.44 593.673 254.712 593.951 253.757 593.951C252.987 593.951 252.352 593.757 251.855 593.365C251.357 592.975 251.107 592.394 251.107 591.624C251.107 590.854 251.387 590.198 251.947 589.752C252.507 589.306 253.295 589.082 254.311 589.082H255.96C256.012 589.082 256.038 589.057 256.038 589.005V588.635C256.038 588.234 255.92 587.923 255.684 587.703C255.448 587.483 255.093 587.372 254.621 587.372C254.231 587.372 253.914 587.441 253.674 587.579C253.432 587.717 253.28 587.91 253.218 588.157C253.188 588.28 253.116 588.331 253.002 588.311L251.508 588.126C251.456 588.116 251.413 588.098 251.377 588.073C251.341 588.047 251.328 588.014 251.338 587.972C251.42 587.346 251.757 586.832 252.347 586.431C252.938 586.031 253.681 585.831 254.574 585.831C255.22 585.831 255.79 585.945 256.284 586.169H256.281ZM255.495 592.132C255.855 591.866 256.035 591.526 256.035 591.116V590.391C256.035 590.34 256.009 590.314 255.957 590.314H254.663C254.118 590.314 253.689 590.416 253.377 590.622C253.063 590.828 252.907 591.12 252.907 591.5C252.907 591.829 253.028 592.083 253.269 592.263C253.511 592.443 253.82 592.533 254.201 592.533C254.703 592.533 255.135 592.399 255.495 592.132Z" fill="#13332F"/>
<path d="M259.14 593.773C259.104 593.737 259.087 593.693 259.087 593.642V592.333C259.087 592.24 259.113 592.168 259.163 592.117L262.953 587.664C263.005 587.602 262.989 587.572 262.907 587.572H259.348C259.296 587.572 259.253 587.555 259.217 587.519C259.181 587.483 259.163 587.439 259.163 587.388V586.139C259.163 586.087 259.181 586.044 259.217 586.008C259.253 585.972 259.296 585.955 259.348 585.955H264.956C265.008 585.955 265.051 585.972 265.087 586.008C265.123 586.044 265.141 586.087 265.141 586.139V587.45C265.141 587.532 265.11 587.604 265.049 587.666L261.181 592.118C261.139 592.18 261.155 592.21 261.227 592.21H265.002C265.054 592.21 265.097 592.229 265.133 592.263C265.169 592.299 265.187 592.343 265.187 592.395V593.643C265.187 593.695 265.168 593.738 265.133 593.774C265.097 593.81 265.054 593.827 265.002 593.827H259.271C259.219 593.827 259.176 593.81 259.14 593.774V593.773Z" fill="#13332F"/>
<path d="M274.416 586.169C274.908 586.395 275.288 586.706 275.556 587.101C275.822 587.497 275.956 587.946 275.956 588.449V593.642C275.956 593.693 275.939 593.737 275.903 593.773C275.867 593.809 275.824 593.826 275.772 593.826H274.355C274.303 593.826 274.26 593.809 274.224 593.773C274.188 593.737 274.169 593.693 274.169 593.642V593.149C274.169 593.119 274.159 593.1 274.139 593.096C274.119 593.09 274.097 593.099 274.077 593.119C273.573 593.673 272.845 593.951 271.89 593.951C271.119 593.951 270.486 593.757 269.988 593.365C269.489 592.975 269.24 592.395 269.24 591.624C269.24 590.854 269.52 590.199 270.08 589.752C270.64 589.306 271.428 589.082 272.444 589.082H274.093C274.145 589.082 274.171 589.057 274.171 589.005V588.635C274.171 588.234 274.053 587.923 273.817 587.703C273.58 587.483 273.226 587.372 272.754 587.372C272.364 587.372 272.047 587.441 271.806 587.579C271.564 587.717 271.413 587.91 271.351 588.157C271.321 588.28 271.249 588.331 271.135 588.311L269.641 588.126C269.589 588.116 269.546 588.098 269.51 588.073C269.474 588.047 269.461 588.014 269.471 587.972C269.553 587.346 269.89 586.832 270.48 586.431C271.07 586.031 271.812 585.831 272.706 585.831C273.353 585.831 273.923 585.945 274.417 586.169H274.416ZM273.445 584.845C273.445 584.927 273.393 584.968 273.291 584.968H272.274C272.182 584.968 272.11 584.928 272.058 584.845L270.996 583.274C270.975 583.233 270.965 583.196 270.965 583.166C270.965 583.083 271.017 583.042 271.119 583.042H272.336C272.449 583.042 272.526 583.083 272.567 583.166L273.413 584.752C273.434 584.794 273.444 584.824 273.444 584.845H273.445ZM273.631 592.132C273.991 591.866 274.171 591.526 274.171 591.116V590.391C274.171 590.34 274.145 590.314 274.093 590.314H272.798C272.254 590.314 271.825 590.416 271.513 590.622C271.199 590.828 271.043 591.12 271.043 591.5C271.043 591.829 271.164 592.083 271.405 592.263C271.645 592.443 271.956 592.533 272.336 592.533C272.839 592.533 273.271 592.399 273.631 592.132Z" fill="#13332F"/>
<path d="M287.528 589.867L287.512 590.345C287.512 590.469 287.45 590.53 287.328 590.53H282.505C282.454 590.53 282.429 590.556 282.429 590.607C282.459 590.946 282.505 591.178 282.567 591.3C282.814 592.04 283.414 592.415 284.37 592.425C285.069 592.425 285.623 592.137 286.035 591.562C286.075 591.5 286.127 591.47 286.189 591.47C286.229 591.47 286.265 591.486 286.297 591.516L287.252 592.302C287.344 592.374 287.36 592.456 287.298 592.549C286.98 593.001 286.556 593.349 286.026 593.597C285.498 593.843 284.909 593.967 284.262 593.967C283.462 593.967 282.78 593.787 282.22 593.427C281.66 593.067 281.253 592.564 280.995 591.916C280.759 591.362 280.641 590.592 280.641 589.605C280.641 589.009 280.703 588.527 280.825 588.157C281.031 587.438 281.418 586.871 281.988 586.454C282.559 586.038 283.244 585.831 284.045 585.831C286.068 585.831 287.208 586.889 287.465 589.005C287.505 589.261 287.527 589.549 287.527 589.867H287.528ZM283.099 587.657C282.847 587.847 282.67 588.112 282.567 588.45C282.505 588.625 282.465 588.851 282.443 589.129C282.423 589.18 282.443 589.205 282.505 589.205H285.633C285.685 589.205 285.711 589.179 285.711 589.129C285.691 588.872 285.659 588.676 285.619 588.542C285.527 588.172 285.344 587.886 285.071 587.68C284.799 587.474 284.458 587.372 284.046 587.372C283.666 587.372 283.351 587.467 283.099 587.657Z" fill="#13332F"/>
<path d="M293.236 585.992C293.272 586.028 293.289 586.071 293.289 586.123V587.34C293.289 587.392 293.271 587.435 293.236 587.471C293.2 587.507 293.157 587.524 293.105 587.524H291.58C291.528 587.524 291.502 587.55 291.502 587.602V593.642C291.502 593.693 291.485 593.737 291.449 593.773C291.413 593.809 291.37 593.826 291.318 593.826H289.901C289.849 593.826 289.806 593.809 289.77 593.773C289.734 593.737 289.717 593.693 289.717 593.642V587.602C289.717 587.55 289.691 587.524 289.639 587.524H288.684C288.632 587.524 288.589 587.507 288.553 587.471C288.517 587.435 288.5 587.392 288.5 587.34V586.123C288.5 586.071 288.517 586.028 288.553 585.992C288.589 585.956 288.632 585.939 288.684 585.939H289.639C289.691 585.939 289.717 585.913 289.717 585.863V585.585C289.717 584.917 289.803 584.401 289.979 584.037C290.153 583.672 290.441 583.413 290.841 583.259C291.242 583.105 291.806 583.033 292.536 583.043H293.075C293.127 583.043 293.17 583.062 293.206 583.096C293.242 583.132 293.259 583.176 293.259 583.227V584.306C293.259 584.358 293.24 584.401 293.206 584.437C293.17 584.473 293.127 584.49 293.075 584.49H292.675C292.232 584.49 291.927 584.578 291.757 584.752C291.587 584.927 291.502 585.245 291.502 585.707V585.861C291.502 585.913 291.528 585.938 291.58 585.938H293.105C293.157 585.938 293.2 585.956 293.236 585.991V585.992Z" fill="#13332F"/>
<path d="M299.029 585.992C299.065 586.028 299.082 586.071 299.082 586.123V587.34C299.082 587.392 299.064 587.435 299.029 587.471C298.993 587.507 298.95 587.524 298.898 587.524H297.373C297.321 587.524 297.295 587.55 297.295 587.602V593.642C297.295 593.693 297.278 593.737 297.242 593.773C297.206 593.809 297.163 593.826 297.111 593.826H295.694C295.642 593.826 295.599 593.809 295.563 593.773C295.527 593.737 295.51 593.693 295.51 593.642V587.602C295.51 587.55 295.484 587.524 295.432 587.524H294.477C294.425 587.524 294.382 587.507 294.346 587.471C294.31 587.435 294.293 587.392 294.293 587.34V586.123C294.293 586.071 294.31 586.028 294.346 585.992C294.382 585.956 294.425 585.939 294.477 585.939H295.432C295.484 585.939 295.51 585.913 295.51 585.863V585.585C295.51 584.917 295.596 584.401 295.772 584.037C295.946 583.672 296.234 583.413 296.634 583.259C297.035 583.105 297.599 583.033 298.329 583.043H298.868C298.92 583.043 298.963 583.062 298.999 583.096C299.035 583.132 299.052 583.176 299.052 583.227V584.306C299.052 584.358 299.033 584.401 298.999 584.437C298.963 584.473 298.92 584.49 298.868 584.49H298.468C298.025 584.49 297.72 584.578 297.55 584.752C297.38 584.927 297.295 585.245 297.295 585.707V585.861C297.295 585.913 297.321 585.938 297.373 585.938H298.898C298.95 585.938 298.993 585.956 299.029 585.991V585.992Z" fill="#13332F"/>
<path d="M306.742 589.867L306.726 590.345C306.726 590.469 306.664 590.53 306.542 590.53H301.719C301.667 590.53 301.643 590.556 301.643 590.607C301.673 590.946 301.719 591.178 301.781 591.3C302.027 592.04 302.628 592.415 303.584 592.425C304.282 592.425 304.837 592.137 305.249 591.562C305.289 591.5 305.341 591.47 305.403 591.47C305.443 591.47 305.479 591.486 305.511 591.516L306.466 592.302C306.558 592.374 306.574 592.456 306.512 592.549C306.193 593.001 305.77 593.349 305.24 593.597C304.712 593.843 304.123 593.967 303.476 593.967C302.675 593.967 301.994 593.787 301.434 593.427C300.874 593.067 300.467 592.564 300.209 591.916C299.973 591.362 299.854 590.592 299.854 589.605C299.854 589.009 299.916 588.527 300.039 588.157C300.245 587.438 300.632 586.871 301.202 586.454C301.773 586.038 302.458 585.831 303.259 585.831C305.282 585.831 306.422 586.889 306.679 589.005C306.719 589.261 306.741 589.549 306.741 589.867H306.742ZM302.311 587.657C302.059 587.847 301.882 588.112 301.78 588.45C301.718 588.625 301.678 588.851 301.656 589.129C301.636 589.18 301.656 589.205 301.718 589.205H304.846C304.897 589.205 304.923 589.179 304.923 589.129C304.903 588.872 304.871 588.676 304.831 588.542C304.739 588.172 304.556 587.886 304.284 587.68C304.012 587.474 303.67 587.372 303.259 587.372C302.878 587.372 302.563 587.467 302.311 587.657Z" fill="#13332F"/>
<path d="M312.342 587.349C312.306 587.385 312.263 587.402 312.211 587.402H310.64C310.589 587.402 310.563 587.428 310.563 587.48V591.194C310.563 591.584 310.648 591.866 310.818 592.04C310.987 592.215 311.257 592.302 311.627 592.302H312.089C312.141 592.302 312.184 592.32 312.22 592.356C312.256 592.392 312.273 592.435 312.273 592.487V593.642C312.273 593.755 312.211 593.822 312.089 593.842L311.288 593.858C310.476 593.858 309.871 593.719 309.47 593.441C309.069 593.163 308.863 592.641 308.853 591.87V587.478C308.853 587.427 308.827 587.401 308.776 587.401H307.897C307.845 587.401 307.802 587.383 307.766 587.347C307.73 587.311 307.713 587.268 307.713 587.216V586.138C307.713 586.086 307.73 586.043 307.766 586.007C307.802 585.971 307.845 585.953 307.897 585.953H308.776C308.827 585.953 308.853 585.927 308.853 585.876V584.073C308.853 584.021 308.871 583.978 308.907 583.942C308.943 583.906 308.986 583.888 309.038 583.888H310.378C310.43 583.888 310.473 583.907 310.509 583.942C310.545 583.978 310.563 584.021 310.563 584.073V585.876C310.563 585.927 310.589 585.953 310.64 585.953H312.211C312.263 585.953 312.306 585.971 312.342 586.007C312.378 586.043 312.396 586.086 312.396 586.138V587.216C312.396 587.268 312.377 587.311 312.342 587.347V587.349Z" fill="#13332F"/>
<path d="M315.208 593.634C314.72 593.444 314.343 593.182 314.076 592.848C313.808 592.514 313.676 592.142 313.676 591.731V591.592C313.676 591.541 313.693 591.497 313.729 591.461C313.765 591.425 313.808 591.408 313.86 591.408H315.217C315.268 591.408 315.312 591.425 315.348 591.461C315.384 591.497 315.401 591.541 315.401 591.592V591.623C315.401 591.879 315.542 592.102 315.824 592.292C316.107 592.482 316.464 592.577 316.896 592.577C317.328 592.577 317.64 592.492 317.898 592.322C318.154 592.153 318.282 591.939 318.282 591.683C318.282 591.447 318.177 591.27 317.967 591.152C317.757 591.034 317.414 590.908 316.942 590.774L316.356 590.59C315.831 590.436 315.389 590.272 315.031 590.098C314.671 589.923 314.368 589.684 314.122 589.381C313.876 589.078 313.752 588.689 313.752 588.217C313.752 587.498 314.034 586.925 314.6 586.499C315.165 586.073 315.909 585.86 316.835 585.86C317.462 585.86 318.012 585.961 318.484 586.161C318.956 586.361 319.321 586.639 319.578 586.993C319.835 587.347 319.963 587.75 319.963 588.203C319.963 588.254 319.944 588.298 319.91 588.334C319.874 588.37 319.83 588.387 319.779 588.387H318.468C318.416 588.387 318.373 588.37 318.337 588.334C318.301 588.298 318.284 588.254 318.284 588.203C318.284 587.936 318.153 587.712 317.891 587.533C317.629 587.353 317.271 587.264 316.819 587.264C316.419 587.264 316.092 587.339 315.842 587.487C315.59 587.635 315.464 587.844 315.464 588.11C315.464 588.357 315.585 588.544 315.826 588.674C316.068 588.802 316.471 588.943 317.035 589.097L317.374 589.189C317.918 589.353 318.376 589.52 318.745 589.69C319.115 589.86 319.427 590.096 319.685 590.399C319.941 590.701 320.069 591.094 320.069 591.578C320.069 592.308 319.781 592.88 319.207 593.296C318.631 593.712 317.866 593.919 316.911 593.919C316.265 593.919 315.696 593.824 315.209 593.634H315.208Z" fill="#13332F"/>
<path d="M258.954 599.079C258.99 599.043 259.034 599.026 259.085 599.026H260.502C260.554 599.026 260.597 599.044 260.633 599.079C260.669 599.115 260.687 599.158 260.687 599.21V609.626C260.687 609.677 260.668 609.721 260.633 609.757C260.599 609.793 260.554 609.81 260.502 609.81H259.085C259.034 609.81 258.99 609.793 258.954 609.757C258.918 609.721 258.901 609.677 258.901 609.626V609.163C258.901 609.133 258.891 609.111 258.871 609.101C258.851 609.091 258.829 609.101 258.809 609.132C258.357 609.666 257.766 609.932 257.038 609.932C256.309 609.932 255.691 609.742 255.189 609.362C254.685 608.982 254.32 608.453 254.094 607.775C253.91 607.201 253.816 606.558 253.816 605.848C253.816 605.138 253.904 604.492 254.078 603.969C254.305 603.291 254.669 602.763 255.173 602.382C255.675 602.002 256.308 601.812 257.068 601.812C257.776 601.812 258.357 602.068 258.809 602.583C258.829 602.603 258.849 602.611 258.871 602.606C258.891 602.6 258.901 602.583 258.901 602.552V599.209C258.901 599.157 258.918 599.114 258.954 599.078V599.079ZM258.885 605.867C258.885 605.067 258.757 604.455 258.499 604.034C258.221 603.582 257.831 603.356 257.329 603.356C256.826 603.356 256.394 603.572 256.096 604.002C255.788 604.455 255.634 605.081 255.634 605.882C255.634 606.6 255.758 607.192 256.004 607.654C256.292 608.147 256.728 608.394 257.313 608.394C257.837 608.394 258.243 608.148 258.53 607.654C258.766 607.234 258.884 606.638 258.884 605.867H258.885Z" fill="#13332F"/>
<path d="M269.332 605.851L269.316 606.329C269.316 606.453 269.255 606.514 269.132 606.514H264.31C264.258 606.514 264.232 606.54 264.232 606.591C264.262 606.93 264.31 607.162 264.37 607.284C264.616 608.024 265.218 608.399 266.173 608.409C266.871 608.409 267.426 608.121 267.838 607.546C267.878 607.484 267.93 607.454 267.992 607.454C268.032 607.454 268.068 607.47 268.1 607.5L269.054 608.286C269.147 608.358 269.162 608.44 269.1 608.533C268.782 608.985 268.359 609.333 267.829 609.581C267.3 609.827 266.712 609.951 266.065 609.951C265.264 609.951 264.583 609.771 264.023 609.411C263.463 609.051 263.055 608.548 262.798 607.9C262.561 607.346 262.443 606.576 262.443 605.589C262.443 604.993 262.505 604.511 262.628 604.141C262.834 603.422 263.221 602.855 263.791 602.438C264.361 602.022 265.047 601.815 265.848 601.815C267.871 601.815 269.011 602.873 269.268 604.989C269.308 605.245 269.329 605.533 269.329 605.851H269.332ZM264.901 603.641C264.649 603.831 264.472 604.096 264.37 604.434C264.308 604.609 264.268 604.835 264.246 605.113C264.226 605.164 264.246 605.189 264.308 605.189H267.436C267.488 605.189 267.512 605.163 267.512 605.113C267.492 604.856 267.46 604.66 267.42 604.526C267.328 604.156 267.145 603.87 266.873 603.664C266.601 603.458 266.259 603.356 265.848 603.356C265.467 603.356 265.152 603.451 264.9 603.641H264.901Z" fill="#13332F"/>
<path d="M275.27 609.618C274.782 609.428 274.405 609.166 274.139 608.832C273.871 608.498 273.738 608.127 273.738 607.715V607.576C273.738 607.525 273.756 607.481 273.792 607.445C273.828 607.409 273.871 607.392 273.923 607.392H275.279C275.331 607.392 275.374 607.409 275.41 607.445C275.446 607.481 275.463 607.525 275.463 607.576V607.607C275.463 607.863 275.605 608.086 275.887 608.276C276.169 608.466 276.526 608.561 276.958 608.561C277.39 608.561 277.703 608.476 277.96 608.306C278.217 608.137 278.345 607.923 278.345 607.667C278.345 607.431 278.24 607.254 278.029 607.136C277.819 607.018 277.477 606.892 277.004 606.758L276.418 606.574C275.894 606.42 275.452 606.256 275.093 606.082C274.733 605.907 274.431 605.668 274.185 605.365C273.938 605.062 273.815 604.673 273.815 604.201C273.815 603.482 274.097 602.909 274.663 602.483C275.227 602.057 275.972 601.844 276.898 601.844C277.524 601.844 278.074 601.945 278.546 602.145C279.019 602.345 279.383 602.623 279.641 602.977C279.897 603.331 280.025 603.735 280.025 604.187C280.025 604.239 280.007 604.282 279.972 604.318C279.936 604.354 279.893 604.371 279.841 604.371H278.531C278.479 604.371 278.436 604.354 278.4 604.318C278.364 604.282 278.346 604.239 278.346 604.187C278.346 603.92 278.215 603.696 277.953 603.517C277.691 603.337 277.334 603.248 276.882 603.248C276.481 603.248 276.155 603.323 275.904 603.471C275.652 603.619 275.527 603.828 275.527 604.094C275.527 604.341 275.648 604.528 275.888 604.658C276.13 604.786 276.533 604.927 277.098 605.081L277.436 605.173C277.981 605.337 278.438 605.504 278.807 605.674C279.177 605.844 279.49 606.08 279.747 606.383C280.004 606.685 280.132 607.078 280.132 607.562C280.132 608.292 279.844 608.864 279.269 609.28C278.693 609.696 277.929 609.903 276.974 609.903C276.327 609.903 275.759 609.808 275.272 609.618H275.27Z" fill="#13332F"/>
<path d="M288.345 605.851L288.329 606.329C288.329 606.453 288.267 606.514 288.144 606.514H283.322C283.27 606.514 283.246 606.54 283.246 606.591C283.276 606.93 283.322 607.162 283.384 607.284C283.63 608.024 284.23 608.399 285.187 608.409C285.885 608.409 286.439 608.121 286.851 607.546C286.892 607.484 286.943 607.454 287.005 607.454C287.046 607.454 287.082 607.47 287.113 607.5L288.068 608.286C288.16 608.358 288.176 608.44 288.114 608.533C287.796 608.985 287.373 609.333 286.843 609.581C286.314 609.827 285.725 609.951 285.079 609.951C284.278 609.951 283.597 609.771 283.037 609.411C282.477 609.051 282.069 608.548 281.811 607.9C281.575 607.346 281.457 606.576 281.457 605.589C281.457 604.993 281.519 604.511 281.641 604.141C281.847 603.422 282.235 602.855 282.805 602.438C283.375 602.022 284.061 601.815 284.861 601.815C286.884 601.815 288.025 602.873 288.281 604.989C288.322 605.245 288.343 605.533 288.343 605.851H288.345ZM283.915 603.641C283.663 603.831 283.486 604.096 283.384 604.434C283.322 604.609 283.282 604.835 283.26 605.113C283.24 605.164 283.26 605.189 283.322 605.189H286.45C286.501 605.189 286.527 605.163 286.527 605.113C286.507 604.856 286.475 604.66 286.435 604.526C286.343 604.156 286.16 603.87 285.888 603.664C285.616 603.458 285.274 603.356 284.863 603.356C284.482 603.356 284.167 603.451 283.915 603.641Z" fill="#13332F"/>
<path d="M294.508 602.045C294.59 602.087 294.62 602.163 294.6 602.276L294.338 603.663C294.328 603.786 294.256 603.822 294.122 603.771C293.968 603.719 293.788 603.693 293.582 603.693C293.448 603.693 293.346 603.699 293.274 603.709C292.842 603.729 292.483 603.881 292.195 604.164C291.907 604.446 291.763 604.813 291.763 605.265V609.626C291.763 609.677 291.744 609.721 291.71 609.757C291.674 609.793 291.631 609.81 291.579 609.81H290.162C290.11 609.81 290.067 609.793 290.031 609.757C289.995 609.721 289.978 609.677 289.978 609.626V602.122C289.978 602.07 289.995 602.027 290.031 601.991C290.067 601.955 290.11 601.937 290.162 601.937H291.579C291.631 601.937 291.674 601.955 291.71 601.991C291.746 602.027 291.763 602.07 291.763 602.122V602.814C291.763 602.856 291.77 602.879 291.786 602.883C291.802 602.889 291.819 602.876 291.839 602.845C292.271 602.176 292.872 601.842 293.642 601.842C293.971 601.842 294.259 601.909 294.505 602.043L294.508 602.045Z" fill="#13332F"/>
<path d="M300.301 602.045C300.383 602.087 300.413 602.163 300.393 602.276L300.131 603.663C300.121 603.786 300.049 603.822 299.915 603.771C299.761 603.719 299.581 603.693 299.375 603.693C299.241 603.693 299.139 603.699 299.067 603.709C298.635 603.729 298.276 603.881 297.988 604.164C297.7 604.446 297.556 604.813 297.556 605.265V609.626C297.556 609.677 297.537 609.721 297.503 609.757C297.467 609.793 297.424 609.81 297.372 609.81H295.955C295.903 609.81 295.86 609.793 295.824 609.757C295.788 609.721 295.771 609.677 295.771 609.626V602.122C295.771 602.07 295.788 602.027 295.824 601.991C295.86 601.955 295.903 601.937 295.955 601.937H297.372C297.424 601.937 297.467 601.955 297.503 601.991C297.539 602.027 297.556 602.07 297.556 602.122V602.814C297.556 602.856 297.563 602.879 297.579 602.883C297.595 602.889 297.612 602.876 297.632 602.845C298.064 602.176 298.665 601.842 299.435 601.842C299.764 601.842 300.052 601.909 300.298 602.043L300.301 602.045Z" fill="#13332F"/>
<path d="M308.113 605.851L308.097 606.329C308.097 606.453 308.035 606.514 307.913 606.514H303.09C303.039 606.514 303.014 606.54 303.014 606.591C303.044 606.93 303.09 607.162 303.152 607.284C303.399 608.024 303.999 608.399 304.955 608.409C305.654 608.409 306.208 608.121 306.62 607.546C306.66 607.484 306.712 607.454 306.774 607.454C306.814 607.454 306.85 607.47 306.882 607.5L307.837 608.286C307.929 608.358 307.945 608.44 307.883 608.533C307.564 608.985 307.141 609.333 306.611 609.581C306.083 609.827 305.494 609.951 304.847 609.951C304.047 609.951 303.365 609.771 302.805 609.411C302.245 609.051 301.838 608.548 301.58 607.9C301.344 607.346 301.226 606.576 301.226 605.589C301.226 604.993 301.288 604.511 301.41 604.141C301.616 603.422 302.003 602.855 302.573 602.438C303.144 602.022 303.829 601.815 304.63 601.815C306.653 601.815 307.793 602.873 308.05 604.989C308.09 605.245 308.112 605.533 308.112 605.851H308.113ZM303.684 603.641C303.432 603.831 303.255 604.096 303.152 604.434C303.09 604.609 303.05 604.835 303.028 605.113C303.008 605.164 303.028 605.189 303.09 605.189H306.218C306.27 605.189 306.296 605.163 306.296 605.113C306.276 604.856 306.244 604.66 306.204 604.526C306.111 604.156 305.929 603.87 305.656 603.664C305.384 603.458 305.043 603.356 304.631 603.356C304.251 603.356 303.936 603.451 303.684 603.641Z" fill="#13332F"/>
<path d="M250.424 284.308L247.189 273.892L247.173 273.83C247.173 273.728 247.229 273.676 247.343 273.676H248.868C248.98 273.676 249.052 273.728 249.084 273.83L251.395 281.873C251.405 281.903 251.421 281.919 251.441 281.919C251.461 281.919 251.477 281.903 251.487 281.873L253.782 273.83C253.813 273.728 253.885 273.676 253.998 273.676H255.493C255.555 273.676 255.601 273.697 255.631 273.738C255.662 273.78 255.667 273.831 255.647 273.892L252.365 284.308C252.335 284.41 252.268 284.462 252.165 284.462H250.625C250.522 284.462 250.455 284.41 250.424 284.308Z" fill="#13332F"/>
<path d="M260.916 276.804C261.409 277.03 261.789 277.341 262.057 277.736C262.323 278.132 262.457 278.581 262.457 279.084V284.276C262.457 284.328 262.438 284.371 262.404 284.407C262.368 284.443 262.324 284.461 262.273 284.461H260.856C260.804 284.461 260.761 284.443 260.725 284.407C260.689 284.371 260.671 284.328 260.671 284.276V283.784C260.671 283.754 260.661 283.735 260.641 283.731C260.621 283.725 260.599 283.733 260.579 283.754C260.075 284.308 259.347 284.586 258.392 284.586C257.621 284.586 256.986 284.391 256.49 284C255.991 283.61 255.742 283.029 255.742 282.259C255.742 281.488 256.022 280.833 256.582 280.387C257.142 279.94 257.93 279.717 258.946 279.717H260.595C260.647 279.717 260.673 279.691 260.673 279.639V279.269C260.673 278.869 260.555 278.558 260.319 278.338C260.082 278.117 259.728 278.007 259.256 278.007C258.866 278.007 258.549 278.076 258.308 278.214C258.066 278.352 257.915 278.545 257.853 278.791C257.823 278.915 257.751 278.966 257.637 278.945L256.143 278.761C256.091 278.751 256.047 278.732 256.011 278.708C255.975 278.682 255.963 278.649 255.973 278.607C256.055 277.981 256.392 277.467 256.982 277.066C257.572 276.666 258.315 276.466 259.208 276.466C259.855 276.466 260.425 276.579 260.919 276.804H260.916ZM260.131 282.767C260.491 282.501 260.671 282.161 260.671 281.751V281.026C260.671 280.974 260.645 280.948 260.594 280.948H259.299C258.755 280.948 258.326 281.051 258.013 281.257C257.699 281.463 257.544 281.755 257.544 282.135C257.544 282.463 257.665 282.718 257.905 282.898C258.147 283.078 258.457 283.167 258.837 283.167C259.339 283.167 259.771 283.034 260.131 282.767Z" fill="#13332F"/>
<path d="M271.193 280.548C271.193 281.278 271.106 281.905 270.931 282.427C270.705 283.106 270.344 283.634 269.846 284.014C269.347 284.394 268.718 284.584 267.958 284.584C267.197 284.584 266.643 284.322 266.201 283.798C266.181 283.778 266.159 283.772 266.139 283.782C266.119 283.792 266.109 283.813 266.109 283.844V287.188C266.109 287.24 266.09 287.283 266.056 287.319C266.02 287.355 265.976 287.372 265.925 287.372H264.508C264.456 287.372 264.413 287.354 264.377 287.319C264.341 287.283 264.323 287.24 264.323 287.188V276.772C264.323 276.721 264.341 276.677 264.377 276.641C264.413 276.605 264.456 276.588 264.508 276.588H265.925C265.976 276.588 266.02 276.605 266.056 276.641C266.092 276.677 266.109 276.721 266.109 276.772V277.235C266.109 277.265 266.119 277.287 266.139 277.297C266.159 277.307 266.179 277.297 266.201 277.266C266.653 276.732 267.244 276.466 267.972 276.466C268.701 276.466 269.317 276.656 269.821 277.036C270.324 277.416 270.689 277.945 270.916 278.623C271.1 279.147 271.193 279.789 271.193 280.55V280.548ZM269.376 280.518C269.376 279.768 269.252 279.177 269.006 278.747C268.718 278.244 268.282 277.992 267.697 277.992C267.163 277.992 266.763 278.238 266.495 278.732C266.259 279.133 266.141 279.729 266.141 280.519C266.141 281.31 266.269 281.948 266.526 282.368C266.793 282.82 267.179 283.047 267.681 283.047C268.226 283.047 268.636 282.831 268.914 282.4C269.222 281.928 269.376 281.301 269.376 280.521V280.518Z" fill="#13332F"/>
<path d="M279.56 280.502L279.545 280.98C279.545 281.104 279.483 281.164 279.36 281.164H274.538C274.486 281.164 274.461 281.19 274.461 281.242C274.492 281.581 274.538 281.812 274.6 281.935C274.846 282.675 275.446 283.049 276.402 283.059C277.101 283.059 277.655 282.771 278.067 282.197C278.107 282.135 278.159 282.105 278.221 282.105C278.261 282.105 278.297 282.121 278.329 282.151L279.284 282.937C279.376 283.009 279.392 283.091 279.33 283.183C279.012 283.635 278.588 283.984 278.058 284.232C277.53 284.478 276.941 284.602 276.294 284.602C275.494 284.602 274.813 284.422 274.253 284.062C273.692 283.702 273.285 283.199 273.027 282.551C272.791 281.997 272.673 281.226 272.673 280.24C272.673 279.644 272.735 279.161 272.857 278.791C273.063 278.073 273.45 277.505 274.021 277.089C274.591 276.673 275.276 276.466 276.077 276.466C278.1 276.466 279.241 277.524 279.497 279.639C279.537 279.896 279.559 280.184 279.559 280.502H279.56ZM275.131 278.292C274.879 278.482 274.702 278.747 274.6 279.085C274.538 279.259 274.497 279.485 274.476 279.763C274.456 279.815 274.476 279.84 274.538 279.84H277.665C277.717 279.84 277.743 279.814 277.743 279.763C277.723 279.507 277.691 279.311 277.651 279.177C277.559 278.807 277.376 278.521 277.104 278.315C276.832 278.109 276.49 278.007 276.078 278.007C275.698 278.007 275.383 278.102 275.131 278.292Z" fill="#13332F"/>
<path d="M285.901 276.643C285.937 276.607 285.98 276.59 286.032 276.59H287.434C287.486 276.59 287.529 276.607 287.565 276.643C287.601 276.679 287.619 276.722 287.619 276.774V284.278C287.619 284.33 287.6 284.373 287.565 284.409C287.529 284.445 287.486 284.462 287.434 284.462H286.032C285.98 284.462 285.937 284.445 285.901 284.409C285.865 284.373 285.847 284.33 285.847 284.278V283.785C285.847 283.755 285.837 283.733 285.817 283.723C285.797 283.713 285.775 283.723 285.755 283.754C285.333 284.298 284.703 284.57 283.86 284.57C283.08 284.57 282.424 284.344 281.896 283.892C281.368 283.44 281.103 282.797 281.103 281.965V276.772C281.103 276.721 281.12 276.677 281.156 276.641C281.192 276.605 281.235 276.588 281.287 276.588H282.704C282.756 276.588 282.799 276.605 282.835 276.641C282.871 276.677 282.888 276.721 282.888 276.772V281.457C282.888 281.939 283.013 282.325 283.265 282.613C283.517 282.901 283.869 283.045 284.321 283.045C284.773 283.045 285.153 282.901 285.43 282.613C285.708 282.325 285.846 281.941 285.846 281.457V276.772C285.846 276.721 285.863 276.677 285.899 276.641L285.901 276.643Z" fill="#13332F"/>
<path d="M294.06 276.696C294.142 276.738 294.172 276.814 294.152 276.927L293.89 278.313C293.88 278.437 293.808 278.473 293.674 278.421C293.52 278.369 293.34 278.343 293.134 278.343C293 278.343 292.897 278.349 292.825 278.359C292.393 278.379 292.035 278.532 291.747 278.814C291.459 279.097 291.315 279.464 291.315 279.916V284.276C291.315 284.328 291.296 284.371 291.262 284.407C291.226 284.443 291.182 284.461 291.131 284.461H289.714C289.662 284.461 289.619 284.443 289.583 284.407C289.547 284.371 289.529 284.328 289.529 284.276V276.772C289.529 276.721 289.547 276.677 289.583 276.641C289.619 276.605 289.662 276.588 289.714 276.588H291.131C291.182 276.588 291.226 276.605 291.262 276.641C291.298 276.677 291.315 276.721 291.315 276.772V277.465C291.315 277.507 291.322 277.53 291.338 277.534C291.354 277.54 291.371 277.527 291.391 277.495C291.823 276.827 292.424 276.493 293.194 276.493C293.522 276.493 293.81 276.559 294.057 276.693L294.06 276.696Z" fill="#13332F"/>
<path d="M259.06 289.715C259.096 289.679 259.139 289.662 259.191 289.662H260.608C260.66 289.662 260.703 289.681 260.739 289.715C260.775 289.751 260.792 289.794 260.792 289.846V300.262C260.792 300.314 260.773 300.357 260.739 300.393C260.704 300.429 260.66 300.446 260.608 300.446H259.191C259.139 300.446 259.096 300.429 259.06 300.393C259.024 300.357 259.007 300.314 259.007 300.262V299.799C259.007 299.769 258.996 299.748 258.976 299.738C258.956 299.727 258.935 299.738 258.914 299.768C258.462 300.302 257.872 300.568 257.143 300.568C256.415 300.568 255.797 300.378 255.294 299.998C254.79 299.618 254.426 299.09 254.2 298.411C254.015 297.837 253.922 297.195 253.922 296.485C253.922 295.775 254.01 295.128 254.184 294.605C254.41 293.927 254.774 293.399 255.278 293.019C255.781 292.638 256.413 292.448 257.173 292.448C257.882 292.448 258.462 292.705 258.914 293.219C258.935 293.239 258.955 293.247 258.976 293.242C258.996 293.236 259.007 293.219 259.007 293.188V289.845C259.007 289.793 259.024 289.75 259.06 289.714V289.715ZM258.991 296.502C258.991 295.701 258.863 295.089 258.605 294.669C258.327 294.217 257.937 293.991 257.434 293.991C256.931 293.991 256.499 294.207 256.201 294.637C255.893 295.089 255.739 295.716 255.739 296.516C255.739 297.235 255.863 297.827 256.109 298.289C256.397 298.781 256.834 299.029 257.418 299.029C257.942 299.029 258.348 298.783 258.635 298.289C258.871 297.868 258.989 297.272 258.989 296.502H258.991Z" fill="#13332F"/>
<path d="M264.476 289.722C264.496 289.764 264.496 289.815 264.476 289.876L263.259 292.88C263.228 292.972 263.156 293.019 263.043 293.019H261.994C261.932 293.019 261.889 293.001 261.863 292.965C261.837 292.929 261.83 292.88 261.84 292.818L262.703 289.813C262.733 289.711 262.805 289.659 262.919 289.659H264.336C264.408 289.659 264.454 289.679 264.474 289.721L264.476 289.722Z" fill="#13332F"/>
<path d="M270.931 296.486L270.915 296.964C270.915 297.088 270.853 297.148 270.731 297.148H265.908C265.856 297.148 265.83 297.174 265.83 297.226C265.861 297.565 265.908 297.796 265.969 297.919C266.215 298.659 266.815 299.033 267.772 299.043C268.47 299.043 269.024 298.755 269.436 298.181C269.477 298.119 269.528 298.089 269.59 298.089C269.631 298.089 269.667 298.105 269.698 298.135L270.653 298.921C270.745 298.993 270.761 299.075 270.699 299.167C270.381 299.619 269.956 299.968 269.428 300.216C268.899 300.462 268.31 300.586 267.664 300.586C266.863 300.586 266.182 300.406 265.622 300.046C265.062 299.686 264.654 299.183 264.396 298.535C264.16 297.981 264.042 297.21 264.042 296.224C264.042 295.628 264.104 295.145 264.226 294.775C264.432 294.057 264.82 293.489 265.39 293.073C265.96 292.657 266.646 292.45 267.448 292.45C269.471 292.45 270.611 293.508 270.868 295.623C270.908 295.88 270.93 296.168 270.93 296.486H270.931ZM266.502 294.276C266.25 294.466 266.072 294.731 265.97 295.069C265.908 295.243 265.868 295.469 265.846 295.747C265.826 295.799 265.846 295.824 265.908 295.824H269.036C269.088 295.824 269.114 295.798 269.114 295.747C269.094 295.491 269.062 295.295 269.022 295.161C268.929 294.791 268.746 294.505 268.474 294.299C268.202 294.093 267.861 293.991 267.449 293.991C267.069 293.991 266.754 294.086 266.502 294.276Z" fill="#13332F"/>
<path d="M277.202 292.788C277.695 293.014 278.075 293.325 278.343 293.72C278.609 294.116 278.743 294.565 278.743 295.068V300.26C278.743 300.312 278.724 300.355 278.69 300.391C278.655 300.427 278.611 300.445 278.559 300.445H277.142C277.09 300.445 277.047 300.427 277.011 300.391C276.975 300.355 276.957 300.312 276.957 300.26V299.768C276.957 299.738 276.947 299.719 276.927 299.715C276.907 299.709 276.885 299.717 276.865 299.738C276.361 300.292 275.633 300.57 274.678 300.57C273.908 300.57 273.272 300.375 272.776 299.984C272.277 299.594 272.028 299.013 272.028 298.243C272.028 297.472 272.308 296.817 272.868 296.371C273.428 295.924 274.216 295.701 275.232 295.701H276.881C276.933 295.701 276.959 295.675 276.959 295.623V295.253C276.959 294.853 276.841 294.542 276.605 294.322C276.368 294.101 276.014 293.991 275.542 293.991C275.152 293.991 274.835 294.06 274.594 294.198C274.352 294.336 274.201 294.529 274.139 294.775C274.109 294.899 274.037 294.95 273.923 294.929L272.429 294.745C272.377 294.735 272.334 294.716 272.298 294.692C272.262 294.666 272.249 294.633 272.259 294.591C272.341 293.965 272.678 293.451 273.268 293.05C273.859 292.65 274.602 292.45 275.494 292.45C276.141 292.45 276.711 292.563 277.205 292.788H277.202ZM276.416 298.751C276.776 298.485 276.956 298.145 276.956 297.735V297.01C276.956 296.958 276.93 296.932 276.878 296.932H275.584C275.039 296.932 274.61 297.035 274.298 297.241C273.984 297.447 273.828 297.739 273.828 298.119C273.828 298.447 273.949 298.702 274.19 298.882C274.432 299.062 274.741 299.151 275.121 299.151C275.624 299.151 276.056 299.018 276.416 298.751Z" fill="#13332F"/>
<path d="M285.238 292.627C285.274 292.591 285.317 292.574 285.369 292.574H286.771C286.823 292.574 286.866 292.591 286.902 292.627C286.938 292.663 286.955 292.706 286.955 292.758V300.262C286.955 300.314 286.937 300.357 286.902 300.393C286.866 300.429 286.823 300.446 286.771 300.446H285.369C285.317 300.446 285.274 300.429 285.238 300.393C285.202 300.357 285.184 300.314 285.184 300.262V299.769C285.184 299.739 285.174 299.717 285.154 299.707C285.134 299.697 285.112 299.707 285.092 299.738C284.67 300.282 284.039 300.554 283.197 300.554C282.417 300.554 281.761 300.328 281.233 299.876C280.704 299.424 280.439 298.781 280.439 297.949V292.756C280.439 292.705 280.457 292.661 280.493 292.625C280.529 292.589 280.572 292.572 280.624 292.572H282.041C282.093 292.572 282.136 292.589 282.172 292.625C282.208 292.661 282.225 292.705 282.225 292.756V297.441C282.225 297.923 282.35 298.309 282.602 298.597C282.854 298.885 283.206 299.029 283.658 299.029C284.11 299.029 284.49 298.885 284.767 298.597C285.045 298.309 285.183 297.925 285.183 297.441V292.756C285.183 292.705 285.2 292.661 285.236 292.625L285.238 292.627Z" fill="#13332F"/>
<path d="M276.168 402.63C354.551 402.63 418.093 388.945 418.093 372.063C418.093 355.181 354.551 341.496 276.168 341.496C197.785 341.496 134.243 355.181 134.243 372.063C134.243 388.945 197.785 402.63 276.168 402.63Z" stroke="#13332F" stroke-width="4" stroke-miterlimit="10"/>
<path d="M134.271 490.705V371.259" stroke="#13332F" stroke-width="4" stroke-miterlimit="10"/>
<path d="M418.171 370.146V491.502" stroke="#13332F" stroke-width="4" stroke-miterlimit="10"/>
<path d="M418.105 490.059C418.105 509.87 354.563 525.93 276.18 525.93C197.796 525.93 134.255 509.871 134.255 490.059" stroke="#13332F" stroke-width="4" stroke-miterlimit="10"/>
<path d="M276.168 402.63V525.93" stroke="#13332F" stroke-width="4" stroke-miterlimit="10"/>
<path d="M297.702 402.444V525.789" stroke="#13332F" stroke-width="4" stroke-miterlimit="10"/>
<path d="M233.039 401.587V524.887" stroke="#13332F" stroke-width="4" stroke-miterlimit="10"/>
<path d="M254.571 401.401V524.746" stroke="#13332F" stroke-width="4" stroke-miterlimit="10"/>
<path d="M190.242 396.582V517.532" stroke="#13332F" stroke-width="4" stroke-miterlimit="10"/>
<path d="M211.775 399.06V522.405" stroke="#13332F" stroke-width="4" stroke-miterlimit="10"/>
<path d="M275.895 394.261C346.216 394.261 403.223 384.262 403.223 371.928C403.223 359.593 346.216 349.595 275.895 349.595C205.574 349.595 148.567 359.593 148.567 371.928C148.567 384.262 205.574 394.261 275.895 394.261Z" stroke="#13332F" stroke-width="4" stroke-miterlimit="10"/>
<path d="M362.479 395.374V517.769" stroke="#13332F" stroke-width="4" stroke-miterlimit="10"/>
<path d="M384.013 392.082V514.519" stroke="#13332F" stroke-width="4" stroke-miterlimit="10"/>
<path d="M319.35 401.502V523.897" stroke="#13332F" stroke-width="4" stroke-miterlimit="10"/>
<path d="M340.882 400.237V522.676" stroke="#13332F" stroke-width="4" stroke-miterlimit="10"/>
<path d="M148.329 385.588V506.537" stroke="#13332F" stroke-width="4" stroke-miterlimit="10"/>
<path d="M169.863 391.549V513.439" stroke="#13332F" stroke-width="4" stroke-miterlimit="10"/>
<path d="M404.027 384.618V505.709" stroke="#13332F" stroke-width="4" stroke-miterlimit="10"/>
<path d="M66.8242 592.992C75.8257 593.047 115.891 592.325 142.365 562.137C149.646 553.836 154.268 545.164 157.261 537.666" stroke="#13332F" stroke-width="4" stroke-miterlimit="10"/>
<path d="M160.849 545.443L157.975 536.121L149.198 540.638" stroke="#13332F" stroke-width="4" stroke-miterlimit="10"/>
<path d="M285.483 560.051L279.247 552.547L272.879 560.088" stroke="#13332F" stroke-width="4" stroke-miterlimit="10"/>
<path d="M487.831 594.675C478.829 594.73 438.764 594.009 412.29 563.821C405.009 555.519 400.387 546.847 397.395 539.349" stroke="#13332F" stroke-width="4" stroke-miterlimit="10"/>
<path d="M393.807 547.127L396.681 537.804L405.458 542.321" stroke="#13332F" stroke-width="4" stroke-miterlimit="10"/>
<path d="M153.842 378.626C169.286 369.343 218.171 362.559 276.089 362.559C334.007 362.559 381.085 369.094 397.447 378.114" stroke="#13332F" stroke-width="4" stroke-miterlimit="10"/>
<path d="M280.054 373.906C280.61 373.903 281.168 373.903 281.73 373.903C308.533 373.903 330.259 376.537 330.259 379.787C330.259 381.501 324.217 383.043 314.573 384.119" stroke="#13332F" stroke-width="4" stroke-miterlimit="10"/>
<path d="M275.651 385.598C275.095 385.6 274.536 385.601 273.975 385.601C247.172 385.601 225.445 382.967 225.445 379.717C225.445 378.003 231.488 376.461 241.131 375.385" stroke="#13332F" stroke-width="4" stroke-miterlimit="10"/>
<path d="M183.397 625.84C193.505 609.575 203.396 589.044 209.436 564.32C210.582 559.629 211.525 555.045 212.297 550.586" stroke="#13332F" stroke-width="4" stroke-miterlimit="10"/>
<path d="M217.229 557.4L212.816 548.699L204.932 554.638" stroke="#13332F" stroke-width="4" stroke-miterlimit="10"/>
<path d="M374.809 624.897C364.701 608.632 354.81 588.101 348.77 563.377C347.624 558.686 346.681 554.102 345.909 549.642" stroke="#13332F" stroke-width="4" stroke-miterlimit="10"/>
<path d="M340.977 556.456L345.39 547.756L353.274 553.695" stroke="#13332F" stroke-width="4" stroke-miterlimit="10"/>
<path d="M204.466 384.361C196.729 382.892 192.267 381.164 192.267 379.313C192.267 376.504 202.56 373.974 218.984 372.211" stroke="#13332F" stroke-width="4" stroke-miterlimit="10"/>
<path d="M352.223 383.818C359.96 382.349 364.423 380.621 364.423 378.77C364.423 375.961 354.13 373.431 337.705 371.668" stroke="#13332F" stroke-width="4" stroke-miterlimit="10"/>
<path d="M200.422 215.679C189.502 230.137 185.053 239.345 201.05 254.19C208.225 261.344 218.374 269.905 217.257 281.219C216.289 293.02 209.451 303.893 208.846 315.784C208.375 322.458 209.782 329.239 211.379 336.043" stroke="#13332F" stroke-width="4" stroke-miterlimit="10"/>
<path d="M318.716 215.571C307.796 230.029 303.347 239.237 319.344 254.082C326.519 261.236 336.668 269.797 335.551 281.111C334.583 292.912 327.745 303.785 327.14 315.675C326.669 322.35 328.076 329.131 329.673 335.935" stroke="#13332F" stroke-width="4" stroke-miterlimit="10"/>
<path d="M159.617 249.814C151.404 260.688 148.058 267.614 160.089 278.778C165.486 284.158 173.119 290.596 172.279 299.107C171.551 307.981 166.408 316.161 165.953 325.102C165.598 330.121 166.657 335.222 167.858 340.338" stroke="#13332F" stroke-width="4" stroke-miterlimit="10"/>
<path d="M363.562 253.262C355.35 264.135 352.003 271.061 364.034 282.226C369.431 287.606 377.065 294.044 376.224 302.554C375.497 311.429 370.353 319.608 369.898 328.549C369.544 333.569 370.602 338.669 371.803 343.786" stroke="#13332F" stroke-width="4" stroke-miterlimit="10"/>
<path d="M73.2164 496.773L79.5164 490.977L91.6139 482.913L100.938 473.085L114.294 469.807L126.894 474.093L135.715 482.409L149.827 491.733L164.443 502.065L168.727 511.641L166.459 518.697L144.787 519.453L109.506 519.957L83.0459 517.941L72.4604 512.397L69.9404 503.829L73.2164 496.773Z" fill="#7FA791" stroke="#13332F" stroke-width="4" stroke-miterlimit="10"/>
<path d="M451.562 455.226L441.535 452.441L432.065 456.062L423.153 462.19L418.419 464.975L418.171 491.502L430.951 495.89H451.84L470.221 497.56L481.362 495.89L484.983 487.534L483.59 474.722L471.893 469.43L462.981 464.695L456.574 458.847L451.562 455.226Z" fill="#7FA791" stroke="#13332F" stroke-width="4" stroke-miterlimit="10"/>
<path d="M412.005 512.293L414.411 508.383L417.72 506.277L421.028 504.472L427.496 506.428L430.955 509.887L435.317 513.346L432.911 516.204H423.886H413.358L410.5 516.053L412.005 512.293Z" stroke="#13332F" stroke-width="4" stroke-miterlimit="10"/>
<path d="M81.7343 489.648L70.4792 490.3L59.5338 489.914L57.584 488.915L56.3125 483.829L57.8173 478.505L64.7725 473.232L70.1307 468.265L76.5344 465.651L84.3752 465.914L92.7402 470.487L95.2818 474.731L96.2106 478.676" stroke="#13332F" stroke-width="4" stroke-miterlimit="10"/>
<path d="M233.615 236.908C228.811 232.443 225.448 228.326 223.354 224.323C221.297 220.39 220.445 216.535 220.765 212.548C221.348 205.273 225.621 198.365 232.718 188.968L232.884 188.749L233.104 188.915L235.287 190.563L235.506 190.729L235.34 190.949C228.539 199.955 224.556 206.379 224.041 212.809L224.041 212.809C223.489 219.681 227.094 226.374 235.893 234.539L235.9 234.546L235.9 234.546L235.934 234.58L233.615 236.908ZM233.615 236.908L233.631 236.924C234.469 237.759 235.321 238.59 236.222 239.47C240.158 243.314 244.323 247.383 247.458 251.847C250.592 256.309 252.68 261.142 252.488 266.51L252.477 266.795H252.762H255.5H255.766L255.775 266.528C255.942 261.234 254.227 256.007 250.583 250.609C247.19 245.585 242.571 241.076 238.519 237.12L238.518 237.12C238.408 237.012 238.298 236.905 238.19 236.798C237.409 236.035 236.664 235.307 235.935 234.58L233.615 236.908Z" fill="#13332F" stroke="#13332F" stroke-width="0.55"/>
<path d="M245.681 309.084L245.682 309.074V309.064V309.044C245.77 307.38 245.965 305.718 246.244 304.063L246.298 303.742H245.973H243.198H242.963L242.927 303.974C242.669 305.59 242.486 307.22 242.402 308.868C241.825 317.087 243.599 325.526 245.453 333.429L245.516 333.696L245.784 333.634L248.448 333.009L248.716 332.946L248.653 332.678C246.769 324.651 245.133 316.841 245.681 309.084Z" fill="#13332F" stroke="#13332F" stroke-width="0.55"/>
</g>
<defs>
<clipPath id="clip0_1_4">
<rect width="432.943" height="445.111" fill="white" transform="translate(54.8965 188.407)"/>
</clipPath>
</defs>
</svg>
