<svg width="11" height="22" viewBox="0 0 11 22" fill="none" xmlns="http://www.w3.org/2000/svg">
<path id="Vector" d="M0.624686 11.3697H2.86582V20.691C2.86582 20.875 3.01343 21.0241 3.19559 21.0241H6.99552C7.17768 21.0241 7.32529 20.875 7.32529 20.691V11.4136H9.90166C10.0692 11.4136 10.2101 11.2866 10.2292 11.1185L10.6205 7.6868C10.6313 7.59239 10.6017 7.49784 10.5392 7.42701C10.4766 7.35611 10.387 7.31553 10.293 7.31553H7.32542V5.1644C7.32542 4.51595 7.67101 4.18712 8.3527 4.18712C8.44985 4.18712 10.293 4.18712 10.293 4.18712C10.4752 4.18712 10.6228 4.03793 10.6228 3.85396V0.704031C10.6228 0.519995 10.4752 0.370874 10.293 0.370874H7.61897C7.60011 0.369941 7.55823 0.368408 7.4965 0.368408C7.03252 0.368408 5.41978 0.460426 4.14584 1.64447C2.73432 2.95657 2.93052 4.52761 2.97742 4.8V7.31547H0.624686C0.442524 7.31547 0.294922 7.46459 0.294922 7.64862V11.0364C0.294922 11.2205 0.442524 11.3697 0.624686 11.3697Z" fill="white"/>
</svg>
