<svg width="128" height="128" viewBox="0 0 128 128" fill="none" xmlns="http://www.w3.org/2000/svg">
<rect width="128" height="128" fill="#13332F"/>
<path d="M62.8023 14.4538C82.7552 14.4538 98.9897 30.6578 98.9897 50.5733C98.9897 70.4888 82.7552 86.6928 62.8023 86.6928C42.8494 86.6928 26.6149 70.4888 26.6149 50.5733C26.6149 30.6578 42.846 14.4538 62.8023 14.4538ZM62.8023 8.68118C39.6208 8.68118 20.828 27.4387 20.828 50.5733C20.828 73.7078 39.6208 92.4654 62.7989 92.4654C85.9769 92.4654 104.77 73.7078 104.77 50.5733C104.77 27.4387 85.9803 8.68118 62.8023 8.68118Z" fill="#8EB79F"/>
<path d="M6.3524 36.8752C18.4228 38.1656 29.6019 43.4831 38.3077 52.1692C48.3879 62.2305 53.94 75.6094 53.94 89.8371V113.943C41.8696 112.652 30.6905 107.335 21.9847 98.6488C11.9045 88.5875 6.3524 75.2087 6.3524 60.9809V36.8752ZM0.568949 30.797V60.9843C0.568949 93.5927 27.0538 120.028 59.7235 120.028V89.8405C59.7235 57.2287 33.2387 30.797 0.568949 30.797Z" fill="#8EB79F"/>
<path d="M121.317 36.8888V60.9945C121.317 75.2222 115.765 88.6011 105.685 98.6624C96.9791 107.352 85.8 112.669 73.7296 113.956V89.8507C73.7296 75.6229 79.2818 62.2441 89.362 52.1828C98.0678 43.4933 109.247 38.1757 121.317 36.8888ZM127.101 30.8072C94.431 30.8072 67.9462 57.2423 67.9462 89.8507V120.038C100.616 120.038 127.101 93.6029 127.101 60.9945V30.8072Z" fill="#8EB79F"/>
</svg>
