<svg width="20" height="20" viewBox="0 0 20 20" fill="none" xmlns="http://www.w3.org/2000/svg">
<path id="Vector" d="M14.2266 0.0864258H6.53713C3.35741 0.0864258 0.770508 2.67333 0.770508 5.85304V13.5416C0.770508 16.7213 3.35741 19.3082 6.53713 19.3082H14.2256C17.4054 19.3082 19.9923 16.7213 19.9923 13.5416L19.9932 5.85304C19.9932 2.67333 17.4063 0.0864258 14.2266 0.0864258ZM18.0704 13.5425C18.0704 15.6626 16.3458 17.3872 14.2256 17.3872L6.53713 17.3863C4.41699 17.3863 2.69241 15.6617 2.69241 13.5416L2.69331 5.85307C2.69331 3.73293 4.4179 2.00835 6.53803 2.00835H14.2265C16.3467 2.00835 18.0713 3.73293 18.0713 5.85307L18.0704 13.5425ZM10.3818 4.89256C7.73197 4.89256 5.57664 7.04874 5.57664 9.69776C5.57664 12.3476 7.73282 14.503 10.3818 14.503C13.0317 14.503 15.1871 12.3468 15.1871 9.69776C15.1871 7.04789 13.0318 4.89256 10.3818 4.89256ZM10.3818 12.5811C8.79153 12.5811 7.49854 11.2881 7.49854 9.69776C7.49854 8.10745 8.79153 6.81446 10.3818 6.81446C11.9722 6.81446 13.2652 8.10745 13.2652 9.69776C13.2652 11.2881 11.9722 12.5811 10.3818 12.5811ZM15.8701 4.20956C16.0421 4.39247 16.1485 4.64205 16.1485 4.89253C16.1485 5.14211 16.0421 5.39261 15.8701 5.57461C15.6871 5.74761 15.4367 5.85302 15.1871 5.85302C14.9366 5.85302 14.687 5.7467 14.505 5.57461C14.332 5.3917 14.2266 5.14211 14.2266 4.89253C14.2266 4.64205 14.332 4.39245 14.505 4.21046C14.8699 3.85454 15.5042 3.85454 15.8701 4.20956Z" fill="white"/>
</svg>
