<svg width="146" height="81" viewBox="0 0 146 81" fill="none" xmlns="http://www.w3.org/2000/svg">
<g id="Calque_1" clip-path="url(#clip0_1_124)">
<path id="Vector" d="M30.9112 3.11391C40.7317 3.11391 48.7222 11.0893 48.7222 20.8915C48.7222 30.6936 40.7317 38.669 30.9112 38.669C21.0906 38.669 13.1002 30.6936 13.1002 20.8915C13.1002 11.0893 21.0889 3.11391 30.9112 3.11391ZM30.9112 0.272705C19.5015 0.272705 10.252 9.50494 10.252 20.8915C10.252 32.278 19.5015 41.5102 30.9095 41.5102C42.3174 41.5102 51.567 32.278 51.567 20.8915C51.567 9.50494 42.3191 0.272705 30.9112 0.272705Z" fill="#8EB79F"/>
<path id="Vector_2" d="M3.12682 14.1496C9.06772 14.7847 14.5699 17.4019 18.8548 21.6771C23.8162 26.6291 26.5489 33.214 26.5489 40.2168V52.0813C20.608 51.4462 15.1057 48.829 10.8209 44.5538C5.8595 39.6017 3.12682 33.0168 3.12682 26.0141V14.1496ZM0.280273 11.158V26.0158C0.280273 42.0652 13.3158 55.0763 29.3954 55.0763V40.2184C29.3954 24.1673 16.3599 11.158 0.280273 11.158Z" fill="#8EB79F"/>
<path id="Vector_3" d="M59.711 14.1561V26.0207C59.711 33.0234 56.9783 39.6083 52.0169 44.5603C47.732 48.8372 42.2298 51.4544 36.2889 52.0879V40.2233C36.2889 33.2206 39.0216 26.6357 43.983 21.6836C48.2679 17.4068 53.7701 14.7896 59.711 14.1561ZM62.5575 11.1628C46.4779 11.1628 33.4424 24.1739 33.4424 40.2233V55.0811C49.522 55.0811 62.5575 42.0701 62.5575 26.0207V11.1628Z" fill="#8EB79F"/>
<path id="Vector_4" d="M75.6689 27.6417V3.66699H85.1329C87.3766 3.66699 89.1448 4.36058 90.4358 5.74943C91.7268 7.13827 92.3731 9.01514 92.3731 11.3817C92.3731 13.7482 91.7268 15.6251 90.4358 17.014C89.1448 18.4028 87.3766 19.0964 85.1329 19.0964H78.05V27.6434H75.6689V27.6417ZM78.0517 16.5594H84.9755C86.6265 16.5594 87.8756 16.1014 88.7229 15.1839C89.5701 14.2663 89.9938 12.9995 89.9938 11.3817C89.9938 9.76388 89.5701 8.5338 88.7229 7.61459C87.8756 6.69705 86.6265 6.23912 84.9755 6.23912H78.0517V16.561V16.5594Z" fill="#8EB79F"/>
<path id="Vector_5" d="M103.283 27.9327C102.049 27.9327 100.876 27.6369 99.7637 27.0452C98.6502 26.4536 97.7494 25.5728 97.0612 24.4013C96.3713 23.2297 96.0264 21.7873 96.0264 20.0726V9.53341H98.7473V19.9991C98.7473 21.6419 99.2245 22.9623 100.181 23.965C101.137 24.9678 102.351 25.4675 103.828 25.4675C104.844 25.4675 105.763 25.2319 106.585 24.7606C107.408 24.2893 108.067 23.6442 108.563 22.8235C109.059 22.0029 109.306 21.0486 109.306 19.9623V9.53174H112.027V27.6402H109.306V24.8157C108.653 25.6848 107.855 26.4219 106.912 27.0252C105.969 27.6285 104.759 27.931 103.283 27.931V27.9327Z" fill="#8EB79F"/>
<path id="Vector_6" d="M116.709 27.6419V9.53344H119.43V13.9874C119.527 13.6732 119.715 13.2571 119.993 12.7373C120.271 12.2192 120.676 11.6928 121.208 11.1613C121.741 10.6298 122.41 10.1786 123.223 9.80252C124.033 9.42815 124.994 9.24097 126.108 9.24097H126.288V11.9568H125.962C124.607 11.9568 123.44 12.3245 122.461 13.0615C121.481 13.7986 120.731 14.7512 120.212 15.9228C119.691 17.0944 119.432 18.3428 119.432 19.6715V27.6386H116.711L116.709 27.6419Z" fill="#8EB79F"/>
<path id="Vector_7" d="M136.375 27.9326C134.609 27.9326 133.067 27.5164 131.749 26.6824C130.43 25.8501 129.408 24.7203 128.683 23.2964C127.958 21.8724 127.595 20.3031 127.595 18.5884C127.595 16.8736 127.958 15.2742 128.683 13.8619C129.408 12.4497 130.431 11.3266 131.749 10.4943C133.067 9.66196 134.609 9.24414 136.375 9.24414C137.876 9.24414 139.163 9.53327 140.24 10.1132C141.317 10.6932 142.192 11.477 142.871 12.4681V9.53495H145.592V27.6434H142.871V24.7454C142.192 25.7114 141.317 26.4836 140.24 27.0635C139.163 27.6434 137.876 27.9326 136.375 27.9326ZM136.739 25.4691C138.093 25.4691 139.235 25.1549 140.168 24.5281C141.099 23.8997 141.807 23.0607 142.291 22.0112C142.775 20.9616 143.016 19.8201 143.016 18.5884C143.016 17.3566 142.773 16.1867 142.291 15.1472C141.807 14.1093 141.099 13.277 140.168 12.6486C139.237 12.0218 138.093 11.7076 136.739 11.7076C135.384 11.7076 134.259 12.0218 133.291 12.6486C132.323 13.277 131.587 14.1093 131.078 15.1472C130.57 16.185 130.316 17.3332 130.316 18.5884C130.316 19.8435 130.57 20.9599 131.078 22.0112C131.585 23.0607 132.323 23.9014 133.291 24.5281C134.259 25.1565 135.408 25.4691 136.739 25.4691Z" fill="#8EB79F"/>
<g id="Group">
<path id="Vector_8" d="M75.6684 55.2081V33.8038H67.2861V31.2317H86.7716V33.8038H78.3893V55.2081H75.6684Z" fill="#8EB79F"/>
<path id="Vector_9" d="M92.0413 55.4973C90.2028 55.4973 88.5936 55.0811 87.2156 54.2471C85.8375 53.4148 84.7659 52.285 84.004 50.8611C83.2421 49.4371 82.8604 47.8678 82.8604 46.153C82.8604 44.4383 83.2237 42.8389 83.9487 41.4266C84.6738 40.0144 85.7136 38.8913 87.0699 38.059C88.4245 37.2267 90.0202 36.8088 91.8588 36.8088C93.6973 36.8088 95.3232 37.225 96.6661 38.059C98.009 38.8913 99.0421 40.0144 99.7688 41.4266C100.494 42.8389 100.857 44.4149 100.857 46.153V47.2394H85.6533C85.799 48.3023 86.1439 49.2734 86.6881 50.1541C87.2323 51.0366 87.964 51.7352 88.8833 52.2549C89.8026 52.7747 90.8658 53.0338 92.0765 53.0338C93.3591 53.0338 94.4357 52.7497 95.3065 52.1831C96.1772 51.6165 96.8536 50.8862 97.3392 49.992H100.315C99.6851 51.6098 98.6871 52.9318 97.3208 53.958C95.9545 54.9842 94.1946 55.4973 92.0413 55.4973ZM85.6918 44.7057H98.0291C97.7863 43.1614 97.1333 41.8695 96.07 40.83C95.0051 39.7921 93.6019 39.2723 91.8605 39.2723C90.119 39.2723 88.7226 39.7921 87.6693 40.83C86.6178 41.8678 85.9581 43.1598 85.6918 44.7057Z" fill="#8EB79F"/>
<path id="Vector_10" d="M104.16 55.2081V37.0996H106.881V41.5536C106.978 41.2394 107.166 40.8233 107.444 40.3035C107.722 39.7854 108.127 39.2589 108.659 38.7274C109.192 38.196 109.862 37.7447 110.674 37.3687C111.484 36.9943 112.445 36.8071 113.559 36.8071H113.74V39.523H113.413C112.058 39.523 110.891 39.8907 109.912 40.6277C108.932 41.3648 108.182 42.3174 107.663 43.489C107.142 44.6605 106.883 45.909 106.883 47.2377V55.2047H104.162L104.16 55.2081Z" fill="#8EB79F"/>
<path id="Vector_11" d="M116.642 55.2081V37.0996H119.363V41.5536C119.46 41.2394 119.647 40.8233 119.925 40.3035C120.203 39.7854 120.608 39.2589 121.141 38.7274C121.673 38.196 122.343 37.7447 123.155 37.3687C123.966 36.9943 124.927 36.8071 126.04 36.8071H126.221V39.523H125.895C124.54 39.523 123.373 39.8907 122.393 40.6277C121.414 41.3648 120.664 42.3174 120.143 43.489C119.622 44.6605 119.363 45.909 119.363 47.2377V55.2047H116.642V55.2081Z" fill="#8EB79F"/>
<path id="Vector_12" d="M136.308 55.4973C134.542 55.4973 132.999 55.0811 131.682 54.2471C130.362 53.4148 129.341 52.285 128.616 50.8611C127.891 49.4371 127.527 47.8678 127.527 46.153C127.527 44.4383 127.891 42.8389 128.616 41.4266C129.341 40.0144 130.364 38.8913 131.682 38.059C132.999 37.2267 134.542 36.8088 136.308 36.8088C137.808 36.8088 139.096 37.098 140.173 37.6779C141.249 38.2579 142.125 39.0417 142.803 40.0328V37.0996H145.524V55.2081H142.803V52.3101C142.125 53.2761 141.249 54.0483 140.173 54.6282C139.096 55.2081 137.808 55.4973 136.308 55.4973ZM136.67 53.0354C138.024 53.0354 139.168 52.7212 140.099 52.0945C141.03 51.4661 141.738 50.6271 142.222 49.5775C142.706 48.528 142.947 47.3865 142.947 46.1547C142.947 44.923 142.704 43.7531 142.222 42.7135C141.738 41.6757 141.03 40.8433 140.099 40.2149C139.168 39.5882 138.024 39.274 136.67 39.274C135.315 39.274 134.19 39.5882 133.222 40.2149C132.254 40.8433 131.518 41.6757 131.008 42.7135C130.501 43.7514 130.247 44.8996 130.247 46.1547C130.247 47.4099 130.501 48.5263 131.008 49.5775C131.516 50.6271 132.254 51.4678 133.222 52.0945C134.19 52.7229 135.339 53.0354 136.67 53.0354Z" fill="#8EB79F"/>
</g>
<g id="Group_2">
<path id="Vector_13" d="M7.24953 66.3022C6.97994 65.9278 6.63501 65.627 6.21305 65.3997C5.79109 65.1724 5.28206 65.0588 4.68596 65.0588C4.38122 65.0588 4.07144 65.1056 3.75498 65.1991C3.43851 65.2927 3.15218 65.4365 2.89431 65.6287C2.63645 65.8209 2.42882 66.0632 2.27142 66.3557C2.11403 66.6482 2.03365 66.9924 2.03365 67.3902C2.03365 67.788 2.109 68.1139 2.26138 68.3713C2.41375 68.6286 2.61468 68.8476 2.86585 69.0281C3.11701 69.2086 3.40334 69.359 3.72316 69.4743C4.04465 69.5913 4.37954 69.7083 4.7295 69.8253C5.1615 69.9657 5.59518 70.1178 6.03389 70.2816C6.47091 70.4453 6.86608 70.6576 7.21604 70.9217C7.566 71.1841 7.85232 71.5166 8.07335 71.9211C8.29438 72.3239 8.40656 72.8353 8.40656 73.4537C8.40656 74.0721 8.28768 74.6069 8.05158 75.0564C7.81549 75.506 7.50739 75.8771 7.13064 76.1695C6.75222 76.462 6.32189 76.6776 5.8363 76.818C5.35072 76.9584 4.86178 77.0286 4.37117 77.0286C3.9961 77.0286 3.6227 76.9901 3.24762 76.9149C2.87255 76.838 2.51589 76.7244 2.17766 76.574C1.83774 76.4219 1.52295 76.2297 1.22992 75.9957C0.936897 75.7617 0.679034 75.4943 0.458008 75.1902L1.54639 74.3846C1.81598 74.8292 2.19273 75.1985 2.67831 75.4977C3.1639 75.7952 3.73488 75.9439 4.38959 75.9439C4.70606 75.9439 5.02755 75.8938 5.35574 75.7952C5.68393 75.6966 5.97863 75.5445 6.24152 75.3389C6.5044 75.135 6.72041 74.8826 6.8912 74.5851C7.06032 74.2877 7.14571 73.94 7.14571 73.5423C7.14571 73.1111 7.06032 72.7517 6.8912 72.4643C6.72208 72.1785 6.49603 71.9378 6.21472 71.7456C5.93342 71.5534 5.61193 71.393 5.24857 71.2643C4.88522 71.1356 4.50512 71.0069 4.10828 70.8782C3.69805 70.7495 3.29451 70.6041 2.89766 70.4403C2.49915 70.2765 2.14249 70.0643 1.82602 69.8002C1.50955 69.5378 1.25504 69.2136 1.06248 68.8275C0.86992 68.4415 0.772802 67.9685 0.772802 67.4086C0.772802 66.8136 0.893362 66.2989 1.13281 65.8677C1.37225 65.4365 1.68537 65.0788 2.07217 64.7997C2.45896 64.5189 2.88594 64.315 3.35311 64.1863C3.82028 64.0577 4.2841 63.9941 4.73955 63.9941C5.58179 63.9941 6.3018 64.1429 6.8979 64.4404C7.494 64.7379 7.94442 65.0922 8.24917 65.5L7.24785 66.3055L7.24953 66.3022Z" fill="#8EB79F"/>
<path id="Vector_14" d="M12.2525 80.9126H11.0586V68.5082H12.2525V69.9272H12.3044C12.6443 69.3907 13.0964 68.9845 13.664 68.7105C14.2317 68.4364 14.8077 68.2993 15.3937 68.2993C16.0367 68.2993 16.6194 68.4096 17.1402 68.6319C17.6609 68.8542 18.1063 69.1567 18.4747 69.5428C18.8431 69.9288 19.1294 70.3834 19.3353 70.9099C19.5396 71.4347 19.6418 72.0029 19.6418 72.6096C19.6418 73.2163 19.5396 73.7828 19.3353 74.3093C19.1311 74.8358 18.8447 75.2903 18.4747 75.6764C18.1063 76.0625 17.6609 76.365 17.1402 76.5873C16.6194 76.8096 16.0367 76.9199 15.3937 76.9199C14.8077 76.9199 14.2317 76.7828 13.664 76.5087C13.0964 76.2346 12.6426 75.8402 12.3044 75.3254H12.2525V80.9143V80.9126ZM18.3776 72.6096C18.3776 72.1533 18.3072 71.7255 18.1666 71.3227C18.0259 70.9199 17.825 70.5689 17.5604 70.2714C17.2975 69.974 16.9727 69.7366 16.5859 69.5611C16.1991 69.3857 15.7604 69.2988 15.2698 69.2988C14.8127 69.2988 14.3924 69.384 14.0056 69.5528C13.6188 69.7216 13.2856 69.9556 13.0043 70.2531C12.723 70.5506 12.5036 70.9015 12.3462 71.3043C12.1888 71.7071 12.1085 72.1433 12.1085 72.6096C12.1085 73.0759 12.1872 73.5121 12.3462 73.9149C12.5036 74.3177 12.723 74.6653 13.0043 74.9578C13.2856 75.2502 13.6188 75.4809 14.0056 75.6497C14.3924 75.8185 14.8127 75.9037 15.2698 75.9037C15.7604 75.9037 16.2008 75.8185 16.5859 75.6497C16.9727 75.4809 17.2975 75.2469 17.5604 74.9494C17.8233 74.6519 18.0259 74.3009 18.1666 73.8982C18.3072 73.4954 18.3776 73.0658 18.3776 72.6113V72.6096Z" fill="#8EB79F"/>
<path id="Vector_15" d="M27.3833 71.4012C27.3833 70.6942 27.1957 70.1661 26.8223 69.8185C26.4472 69.4709 25.9031 69.297 25.1897 69.297C24.6975 69.297 24.242 69.384 23.8201 69.5594C23.3981 69.7349 23.0414 69.9689 22.7501 70.2597L22.0837 69.4709C22.4236 69.1316 22.8706 68.8525 23.4266 68.6302C23.9825 68.4079 24.6121 68.2976 25.3137 68.2976C25.7574 68.2976 26.1743 68.3594 26.5594 68.4815C26.9462 68.6035 27.2845 68.7873 27.5775 69.033C27.8705 69.2787 28.0982 69.5879 28.2623 69.9622C28.4264 70.3366 28.5085 70.7745 28.5085 71.2759V74.8675C28.5085 75.1833 28.5202 75.5093 28.5436 75.8485C28.5671 76.1878 28.6022 76.4736 28.6491 76.7076H27.5792C27.544 76.5087 27.5155 76.2931 27.4921 76.0591C27.4687 75.8251 27.4569 75.5978 27.4569 75.3755H27.4218C27.0467 75.9254 26.6231 76.3182 26.1492 76.5588C25.6753 76.7978 25.1043 76.9182 24.4379 76.9182C24.1215 76.9182 23.7966 76.8747 23.4634 76.7861C23.1302 76.6975 22.8254 76.5555 22.5508 76.3549C22.2762 76.156 22.0468 75.897 21.866 75.5811C21.6851 75.2652 21.5947 74.8775 21.5947 74.4212C21.5947 73.7878 21.7555 73.2881 22.077 72.9187C22.3985 72.5494 22.8288 72.2736 23.3663 72.0931C23.9038 71.911 24.5216 71.794 25.2182 71.7405C25.9148 71.6887 26.6365 71.6619 27.3866 71.6619V71.4012H27.3833ZM27.0316 72.6096C26.5393 72.6096 26.0454 72.6296 25.5481 72.6714C25.0508 72.7132 24.6003 72.7934 24.1968 72.9171C23.7933 73.0391 23.4617 73.2179 23.2055 73.4519C22.9477 73.6859 22.8187 73.9951 22.8187 74.3811C22.8187 74.6736 22.874 74.9176 22.9862 75.1165C23.0967 75.3154 23.2457 75.4758 23.4333 75.5978C23.6208 75.7198 23.8284 75.8084 24.0562 75.8602C24.2839 75.912 24.5149 75.9388 24.7494 75.9388C25.1713 75.9388 25.5447 75.8652 25.8729 75.7198C26.2011 75.5744 26.4757 75.3755 26.6984 75.1248C26.9211 74.8742 27.0902 74.585 27.2074 74.2574C27.3247 73.9299 27.3833 73.5856 27.3833 73.2229V72.6096H27.0316Z" fill="#8EB79F"/>
<path id="Vector_16" d="M43.4423 72.3639V72.6263C43.4423 72.7199 43.4356 72.8185 43.4256 72.9238H36.6156C36.6273 73.3333 36.7094 73.7177 36.8618 74.0803C37.0141 74.443 37.2251 74.7572 37.493 75.0263C37.7626 75.2954 38.0774 75.5076 38.4408 75.6664C38.8024 75.8235 39.1959 75.9037 39.6162 75.9037C40.2358 75.9037 40.7716 75.7617 41.222 75.4742C41.6724 75.1884 42.014 74.8575 42.2484 74.4848L43.1443 75.1851C42.6536 75.8034 42.1111 76.248 41.52 76.5171C40.929 76.7862 40.2944 76.9199 39.6162 76.9199C39.0084 76.9199 38.4424 76.8112 37.9217 76.5956C37.4009 76.38 36.9539 76.0792 36.5788 75.6931C36.2037 75.3071 35.909 74.8525 35.693 74.326C35.477 73.8012 35.3682 73.228 35.3682 72.6096C35.3682 71.9912 35.4737 71.418 35.6846 70.8932C35.8956 70.3684 36.187 69.9121 36.562 69.5261C36.9371 69.14 37.3758 68.8392 37.8781 68.6236C38.3805 68.408 38.9247 68.2993 39.5107 68.2993C40.1537 68.2993 40.7213 68.408 41.2136 68.6236C41.7059 68.8392 42.1145 69.1316 42.4427 69.4993C42.7709 69.867 43.0187 70.2965 43.1895 70.7862C43.3586 71.2776 43.444 71.8024 43.444 72.3622L43.4423 72.3639ZM42.2317 71.9778C42.1965 71.2074 41.9487 70.5673 41.4849 70.0592C41.0227 69.5511 40.3647 69.2971 39.5107 69.2971C39.1122 69.2971 38.7438 69.3706 38.4056 69.516C38.0657 69.6614 37.7676 69.8603 37.5098 70.111C37.2519 70.3617 37.0476 70.6492 36.8953 70.9701C36.7429 71.2909 36.6558 71.6269 36.6324 71.9778H42.2317ZM39.8272 66.8269H38.7924L40.5472 64.3049H42.1446L39.8272 66.8269Z" fill="#8EB79F"/>
<path id="Vector_17" d="M51.9206 70.3835C51.7214 70.0676 51.4317 69.8085 51.0516 69.6046C50.6715 69.4007 50.2579 69.2988 49.8142 69.2988C49.3336 69.2988 48.9016 69.384 48.5148 69.5528C48.128 69.7216 47.7982 69.9556 47.5236 70.2531C47.249 70.5506 47.038 70.9016 46.8923 71.3043C46.7466 71.7071 46.673 72.1433 46.673 72.6096C46.673 73.0759 46.7466 73.5088 46.8923 73.9065C47.038 74.3043 47.2456 74.6519 47.5152 74.9494C47.7848 75.2469 48.1113 75.4809 48.4981 75.6497C48.8849 75.8185 49.3169 75.9037 49.7975 75.9037C50.3232 75.9037 50.7686 75.8051 51.132 75.6063C51.4937 75.4074 51.7934 75.15 52.0278 74.8358L52.9236 75.501C52.572 75.9338 52.1434 76.2781 51.6343 76.5355C51.1253 76.7929 50.5141 76.9216 49.8008 76.9216C49.1344 76.9216 48.5316 76.8129 47.9924 76.5973C47.4532 76.3817 46.9945 76.0809 46.6144 75.6948C46.2343 75.3088 45.9379 74.8542 45.7286 74.3277C45.5176 73.8029 45.4121 73.2297 45.4121 72.6113C45.4121 71.9929 45.5176 71.4197 45.7286 70.8949C45.9396 70.3701 46.2343 69.9138 46.6144 69.5278C46.9945 69.1417 47.4532 68.8409 47.9924 68.6253C48.5299 68.4097 49.1327 68.301 49.8008 68.301C50.35 68.301 50.9093 68.4214 51.4769 68.6604C52.0446 68.8993 52.5034 69.2537 52.855 69.72L51.924 70.3851L51.9206 70.3835Z" fill="#8EB79F"/>
<path id="Vector_18" d="M62.9426 72.6096C62.9426 73.228 62.8337 73.8012 62.6177 74.326C62.4017 74.8508 62.1003 75.3071 61.7135 75.6931C61.3267 76.0792 60.8646 76.38 60.3271 76.5956C59.7879 76.8112 59.1985 76.9199 58.5539 76.9199C57.9092 76.9199 57.3366 76.8112 56.7991 76.5956C56.2599 76.38 55.7978 76.0792 55.4126 75.6931C55.0258 75.3071 54.7244 74.8525 54.5084 74.326C54.2924 73.8012 54.1836 73.228 54.1836 72.6096C54.1836 71.9912 54.2924 71.418 54.5084 70.8932C54.7244 70.3684 55.0258 69.9121 55.4126 69.526C55.7994 69.14 56.2616 68.8391 56.7991 68.6235C57.3366 68.408 57.9226 68.2993 58.5539 68.2993C59.1851 68.2993 59.7879 68.408 60.3271 68.6235C60.8646 68.8391 61.3284 69.14 61.7135 69.526C62.1003 69.9121 62.4001 70.3667 62.6177 70.8932C62.8337 71.418 62.9426 71.9912 62.9426 72.6096ZM61.6784 72.6096C61.6784 72.1533 61.6047 71.7255 61.459 71.3227C61.3133 70.9199 61.1057 70.5689 60.8361 70.2714C60.5665 69.974 60.24 69.7366 59.8532 69.5611C59.4664 69.3857 59.0344 69.2988 58.5539 69.2988C58.0733 69.2988 57.6447 69.3857 57.2646 69.5611C56.8845 69.7366 56.5596 69.9723 56.29 70.2714C56.0204 70.5689 55.8128 70.9199 55.6671 71.3227C55.5215 71.7255 55.4478 72.155 55.4478 72.6096C55.4478 73.0642 55.5215 73.4937 55.6671 73.8965C55.8128 74.2993 56.0204 74.6502 56.29 74.9477C56.5596 75.2452 56.8845 75.4792 57.2646 75.648C57.6447 75.8168 58.075 75.902 58.5539 75.902C59.0328 75.902 59.4664 75.8168 59.8532 75.648C60.24 75.4792 60.5665 75.2452 60.8361 74.9477C61.1057 74.6502 61.3133 74.2993 61.459 73.8965C61.6047 73.4937 61.6784 73.0642 61.6784 72.6096Z" fill="#8EB79F"/>
<path id="Vector_19" d="M68.7001 72.9589H64.7686V71.9595H68.7001V72.9589Z" fill="#8EB79F"/>
<path id="Vector_20" d="M77.0388 70.3835C76.8396 70.0676 76.5499 69.8085 76.1698 69.6046C75.7897 69.4007 75.3761 69.2988 74.9324 69.2988C74.4518 69.2988 74.0198 69.384 73.633 69.5528C73.2462 69.7216 72.9163 69.9556 72.6417 70.2531C72.3671 70.5506 72.1562 70.9016 72.0105 71.3043C71.8648 71.7071 71.7911 72.1433 71.7911 72.6096C71.7911 73.0759 71.8648 73.5088 72.0105 73.9065C72.1562 74.3043 72.3638 74.6519 72.6334 74.9494C72.903 75.2469 73.2295 75.4809 73.6163 75.6497C74.0031 75.8185 74.4351 75.9037 74.9156 75.9037C75.4414 75.9037 75.8868 75.8051 76.2502 75.6063C76.6118 75.4074 76.9116 75.15 77.146 74.8358L78.0418 75.501C77.6902 75.9338 77.2615 76.2781 76.7525 76.5355C76.2435 76.7929 75.6323 76.9216 74.919 76.9216C74.2525 76.9216 73.6498 76.8129 73.1106 76.5973C72.5714 76.3817 72.1126 76.0809 71.7325 75.6948C71.3524 75.3088 71.056 74.8542 70.8467 74.3277C70.6358 73.8029 70.5303 73.2297 70.5303 72.6113C70.5303 71.9929 70.6358 71.4197 70.8467 70.8949C71.0577 70.3701 71.3524 69.9138 71.7325 69.5278C72.1126 69.1417 72.5714 68.8409 73.1106 68.6253C73.6481 68.4097 74.2509 68.301 74.919 68.301C75.4682 68.301 76.0275 68.4214 76.5951 68.6604C77.1627 68.8993 77.6215 69.2537 77.9731 69.72L77.0422 70.3851L77.0388 70.3835Z" fill="#8EB79F"/>
<path id="Vector_21" d="M88.0617 72.6096C88.0617 73.228 87.9529 73.8012 87.7369 74.326C87.5209 74.8508 87.2195 75.3071 86.8327 75.6931C86.4459 76.0792 85.9837 76.38 85.4462 76.5956C84.9071 76.8112 84.3177 76.9199 83.673 76.9199C83.0284 76.9199 82.4557 76.8112 81.9182 76.5956C81.379 76.38 80.9169 76.0792 80.5318 75.6931C80.145 75.3071 79.8436 74.8525 79.6276 74.326C79.4116 73.8012 79.3027 73.228 79.3027 72.6096C79.3027 71.9912 79.4116 71.418 79.6276 70.8932C79.8436 70.3684 80.145 69.9121 80.5318 69.526C80.9186 69.14 81.3807 68.8391 81.9182 68.6235C82.4557 68.408 83.0418 68.2993 83.673 68.2993C84.3043 68.2993 84.9071 68.408 85.4462 68.6235C85.9837 68.8391 86.4476 69.14 86.8327 69.526C87.2195 69.9121 87.5192 70.3667 87.7369 70.8932C87.9529 71.418 88.0617 71.9912 88.0617 72.6096ZM86.7975 72.6096C86.7975 72.1533 86.7238 71.7255 86.5782 71.3227C86.4325 70.9199 86.2249 70.5689 85.9553 70.2714C85.6857 69.974 85.3592 69.7366 84.9724 69.5611C84.5856 69.3857 84.1536 69.2988 83.673 69.2988C83.1925 69.2988 82.7638 69.3857 82.3837 69.5611C82.0036 69.7366 81.6788 69.9723 81.4092 70.2714C81.1396 70.5689 80.932 70.9199 80.7863 71.3227C80.6406 71.7255 80.5669 72.155 80.5669 72.6096C80.5669 73.0642 80.6406 73.4937 80.7863 73.8965C80.932 74.2993 81.1396 74.6502 81.4092 74.9477C81.6788 75.2452 82.0036 75.4792 82.3837 75.648C82.7638 75.8168 83.1941 75.902 83.673 75.902C84.1519 75.902 84.5856 75.8168 84.9724 75.648C85.3592 75.4792 85.6857 75.2452 85.9553 74.9477C86.2249 74.6502 86.4325 74.2993 86.5782 73.8965C86.7238 73.4937 86.7975 73.0642 86.7975 72.6096Z" fill="#8EB79F"/>
<path id="Vector_22" d="M91.6934 68.5099C91.7169 68.7322 91.7336 68.9779 91.7454 69.2453C91.7571 69.5143 91.7621 69.735 91.7621 69.9104H91.7973C92.0317 69.4325 92.4118 69.043 92.9376 68.7456C93.465 68.4481 94.0192 68.2993 94.6053 68.2993C95.6468 68.2993 96.4271 68.6085 96.9478 69.2286C97.4686 69.8469 97.7281 70.6659 97.7281 71.682V76.7109H96.5343V72.1734C96.5343 71.7422 96.4991 71.3494 96.4288 71.0001C96.3584 70.6492 96.2379 70.3483 96.0688 70.0976C95.8996 69.8469 95.6702 69.6514 95.3839 69.511C95.0976 69.3706 94.7376 69.3004 94.3039 69.3004C93.9874 69.3004 93.681 69.3639 93.383 69.4926C93.0849 69.6213 92.8187 69.8169 92.5843 70.0792C92.3498 70.3416 92.1623 70.6742 92.0233 71.0787C91.8827 71.4815 91.8123 71.9578 91.8123 72.506V76.7109H90.6185V70.3166C90.6185 70.0943 90.6118 69.8085 90.6017 69.4575C90.59 69.1066 90.5732 68.7923 90.5498 68.5116H91.6901L91.6934 68.5099Z" fill="#8EB79F"/>
<path id="Vector_23" d="M105.193 70.4537C105.017 70.1145 104.751 69.837 104.394 69.6214C104.037 69.4058 103.63 69.2972 103.173 69.2972C102.962 69.2972 102.751 69.3206 102.542 69.3674C102.331 69.4142 102.144 69.4894 101.981 69.5947C101.817 69.7 101.685 69.8337 101.586 69.9975C101.487 70.1613 101.437 70.3535 101.437 70.5758C101.437 70.9618 101.594 71.256 101.911 71.4599C102.227 71.6638 102.725 71.8359 103.403 71.9763C104.374 72.1752 105.091 72.4643 105.553 72.8437C106.015 73.2231 106.246 73.7345 106.246 74.3763C106.246 74.8442 106.156 75.237 105.975 75.5596C105.794 75.8804 105.556 76.1428 105.263 76.3484C104.97 76.5523 104.64 76.6994 104.272 76.7863C103.903 76.8732 103.532 76.9183 103.157 76.9183C102.537 76.9183 101.934 76.7896 101.348 76.5322C100.762 76.2749 100.283 75.8721 99.9082 75.3239L100.856 74.6236C101.067 74.9863 101.377 75.2888 101.787 75.5345C102.197 75.7802 102.648 75.9022 103.138 75.9022C103.396 75.9022 103.641 75.8788 103.875 75.832C104.109 75.7852 104.314 75.7033 104.489 75.5863C104.665 75.4693 104.806 75.3206 104.911 75.1401C105.017 74.9596 105.069 74.7339 105.069 74.4649C105.069 74.0337 104.861 73.7094 104.446 73.4922C104.031 73.2766 103.431 73.0743 102.648 72.8872C102.401 72.8287 102.142 72.7551 101.866 72.6682C101.591 72.5813 101.336 72.4526 101.102 72.2821C100.868 72.1133 100.675 71.8994 100.523 71.642C100.37 71.3847 100.295 71.0638 100.295 70.6777C100.295 70.2565 100.377 69.8989 100.541 69.5997C100.705 69.3022 100.925 69.0565 101.199 68.8643C101.474 68.6721 101.787 68.5284 102.139 68.4348C102.49 68.3412 102.852 68.2944 103.227 68.2944C103.8 68.2944 104.356 68.4231 104.895 68.6805C105.432 68.9379 105.837 69.2989 106.105 69.7668L105.193 70.4504V70.4537Z" fill="#8EB79F"/>
<path id="Vector_24" d="M114.529 70.3835C114.33 70.0676 114.04 69.8085 113.66 69.6046C113.28 69.4007 112.866 69.2988 112.423 69.2988C111.942 69.2988 111.51 69.384 111.123 69.5528C110.736 69.7216 110.407 69.9556 110.132 70.2531C109.857 70.5506 109.646 70.9016 109.501 71.3043C109.355 71.7071 109.281 72.1433 109.281 72.6096C109.281 73.0759 109.355 73.5088 109.501 73.9065C109.646 74.3043 109.854 74.6519 110.124 74.9494C110.393 75.2469 110.72 75.4809 111.106 75.6497C111.493 75.8185 111.925 75.9037 112.406 75.9037C112.932 75.9037 113.377 75.8051 113.74 75.6063C114.102 75.4074 114.402 75.15 114.636 74.8358L115.532 75.501C115.18 75.9338 114.752 76.2781 114.243 76.5355C113.734 76.7929 113.123 76.9216 112.409 76.9216C111.743 76.9216 111.14 76.8129 110.601 76.5973C110.062 76.3817 109.603 76.0809 109.223 75.6948C108.843 75.3088 108.546 74.8542 108.337 74.3277C108.126 73.8029 108.021 73.2297 108.021 72.6113C108.021 71.9929 108.126 71.4197 108.337 70.8949C108.548 70.3701 108.843 69.9138 109.223 69.5278C109.603 69.1417 110.062 68.8409 110.601 68.6253C111.138 68.4097 111.741 68.301 112.409 68.301C112.958 68.301 113.518 68.4214 114.085 68.6604C114.653 68.8993 115.112 69.2537 115.463 69.72L114.532 70.3851L114.529 70.3835Z" fill="#8EB79F"/>
<path id="Vector_25" d="M118.848 65.3563C118.848 65.602 118.761 65.8025 118.585 65.9613C118.409 66.1201 118.216 66.1969 118.005 66.1969C117.794 66.1969 117.602 66.1184 117.426 65.9613C117.25 65.8042 117.163 65.602 117.163 65.3563C117.163 65.1106 117.25 64.91 117.426 64.7513C117.602 64.5942 117.794 64.5156 118.005 64.5156C118.216 64.5156 118.409 64.5942 118.585 64.7513C118.761 64.9084 118.848 65.1106 118.848 65.3563ZM118.601 76.7094H117.408V68.51H118.601V76.7094Z" fill="#8EB79F"/>
<path id="Vector_26" d="M129.256 72.3639V72.6263C129.256 72.7199 129.249 72.8185 129.239 72.9238H122.429C122.441 73.3333 122.523 73.7177 122.675 74.0803C122.828 74.443 123.039 74.7572 123.307 75.0263C123.576 75.2954 123.891 75.5076 124.254 75.6664C124.616 75.8235 125.009 75.9037 125.43 75.9037C126.049 75.9037 126.585 75.7616 127.035 75.4742C127.486 75.1884 127.827 74.8575 128.062 74.4848L128.958 75.1851C128.467 75.8034 127.925 76.248 127.334 76.5171C126.742 76.7862 126.108 76.9199 125.43 76.9199C124.822 76.9199 124.256 76.8112 123.735 76.5956C123.214 76.38 122.767 76.0792 122.392 75.6931C122.017 75.3071 121.722 74.8525 121.506 74.326C121.29 73.8012 121.182 73.228 121.182 72.6096C121.182 71.9912 121.287 71.418 121.498 70.8932C121.709 70.3684 122 69.9121 122.376 69.526C122.751 69.14 123.189 68.8391 123.692 68.6235C124.194 68.408 124.738 68.2993 125.324 68.2993C125.967 68.2993 126.535 68.408 127.027 68.6235C127.519 68.8391 127.928 69.1316 128.256 69.4993C128.584 69.867 128.832 70.2965 129.003 70.7862C129.172 71.2776 129.257 71.8024 129.257 72.3622L129.256 72.3639ZM128.045 71.9778C128.01 71.2074 127.762 70.5673 127.298 70.0592C126.836 69.5511 126.178 69.2971 125.324 69.2971C124.926 69.2971 124.557 69.3706 124.219 69.516C123.879 69.6614 123.581 69.8603 123.323 70.111C123.065 70.3617 122.861 70.6492 122.709 70.97C122.556 71.2909 122.469 71.6269 122.446 71.9778H128.045Z" fill="#8EB79F"/>
<path id="Vector_27" d="M132.89 68.5099C132.913 68.7322 132.93 68.9779 132.942 69.2453C132.953 69.5143 132.958 69.735 132.958 69.9104H132.994C133.228 69.4325 133.608 69.043 134.134 68.7456C134.661 68.4481 135.216 68.2993 135.802 68.2993C136.843 68.2993 137.623 68.6085 138.144 69.2286C138.665 69.8469 138.924 70.6659 138.924 71.682V76.7109H137.731V72.1734C137.731 71.7422 137.695 71.3494 137.625 71.0001C137.555 70.6492 137.434 70.3483 137.265 70.0976C137.096 69.8469 136.867 69.6514 136.58 69.511C136.294 69.3706 135.934 69.3004 135.5 69.3004C135.184 69.3004 134.877 69.3639 134.579 69.4926C134.281 69.6213 134.015 69.8169 133.781 70.0792C133.546 70.3416 133.359 70.6742 133.22 71.0787C133.079 71.4815 133.009 71.9578 133.009 72.506V76.7109H131.815V70.3166C131.815 70.0943 131.808 69.8085 131.798 69.4575C131.786 69.1066 131.77 68.7923 131.746 68.5116H132.886L132.89 68.5099Z" fill="#8EB79F"/>
<path id="Vector_28" d="M145.72 69.5077H143.403V74.2909C143.403 74.5951 143.431 74.8458 143.49 75.0447C143.549 75.2436 143.632 75.3973 143.744 75.5093C143.855 75.6196 143.987 75.6965 144.14 75.7366C144.292 75.7767 144.456 75.7984 144.632 75.7984C144.796 75.7984 144.969 75.775 145.149 75.7283C145.33 75.6815 145.503 75.6179 145.667 75.536L145.719 76.5706C145.508 76.6525 145.288 76.7126 145.061 76.7544C144.833 76.7945 144.583 76.8163 144.315 76.8163C144.093 76.8163 143.858 76.7879 143.614 76.7294C143.368 76.6709 143.14 76.5606 142.929 76.3968C142.718 76.233 142.546 76.0107 142.412 75.7316C142.278 75.4508 142.211 75.0831 142.211 74.6285V69.5127H140.508V68.5133H142.211V66.2002H143.405V68.5133H145.722V69.5127L145.72 69.5077Z" fill="#8EB79F"/>
</g>
</g>
<defs>
<clipPath id="clip0_1_124">
<rect width="145.44" height="80.64" fill="white" transform="translate(0.280273 0.272705)"/>
</clipPath>
</defs>
</svg>
