<svg width="79" height="58" viewBox="0 0 79 58" fill="none" xmlns="http://www.w3.org/2000/svg">
<g id="Vector">
<mask id="path-1-outside-1_1_238" maskUnits="userSpaceOnUse" x="-0.456055" y="-0.137939" width="80" height="58" fill="black">
<rect fill="white" x="-0.456055" y="-0.137939" width="80" height="58"/>
<path d="M1.32457 49.4852C0.849643 49.4378 0.503634 49.0137 0.547733 48.5388C0.595226 48.0639 1.01927 47.7179 1.49415 47.762C2.46436 47.8604 3.59063 47.6365 4.87626 47.0869C6.22642 46.5102 7.73601 45.5807 9.40158 44.3052L9.40497 44.3019L9.41854 44.2917L9.42193 44.2883L9.43889 44.2747C11.2911 42.9212 13.2146 42.2325 15.2126 42.2156C17.1869 42.1986 19.2054 42.8432 21.2577 44.1492C24.6161 45.9811 27.8387 46.9106 30.9259 46.9377C33.9722 46.9648 36.9133 46.1133 39.7388 44.3799C39.7795 44.3494 39.827 44.3222 39.8745 44.2985C44.3286 42.1274 47.955 41.0147 50.7499 40.9672C53.7554 40.9164 55.835 42.0494 56.9816 44.3698C58.1756 46.4154 57.85 48.2201 55.8859 49.9501C54.7087 50.9848 52.8837 51.9856 50.3699 53.0032L51.5471 53.0948C53.1957 53.2203 54.7393 53.3153 56.1809 53.3831C56.6593 53.4069 57.0256 53.8106 57.0053 54.2889C56.9815 54.7672 56.5778 55.1336 56.0995 55.1133C54.573 55.042 53.0091 54.9436 51.4181 54.8249C49.8441 54.7096 48.1513 54.5603 46.3467 54.3839C46.2211 54.3737 46.1058 54.333 46.004 54.2754H46.0006L45.9667 54.255H45.9633L45.9498 54.2448H45.9464L45.9328 54.2346L45.9294 54.2313L45.9158 54.2211L45.9124 54.2177L45.8989 54.2075L45.8955 54.2041L45.8819 54.1939L45.8785 54.1905L45.8649 54.1804L45.8616 54.177L45.848 54.1668L45.8107 54.1295L45.8005 54.1159L45.7666 54.082L45.7564 54.0684L45.753 54.065L45.7428 54.0515L45.7394 54.0481L45.6682 53.9293V53.9259L45.658 53.909V53.9056L45.6478 53.8886V53.8852L45.6411 53.8683V53.8649L45.6173 53.8106L45.6037 53.7835L45.58 53.7122L45.5766 53.6987L45.5732 53.6919L45.5698 53.6783L45.5664 53.6715L45.563 53.6579L45.5596 53.6512V53.6376L45.5562 53.6308V53.6172L45.5529 53.5731V53.5324C45.5529 53.5019 45.5529 53.468 45.5562 53.4374C45.5664 53.3119 45.6071 53.1966 45.6648 53.0948V53.0914L45.6852 53.0575V53.0541L45.6953 53.0405V53.0372L45.7055 53.0236L45.7089 53.0202L45.7191 53.0066L45.7225 53.0032L45.7326 52.9897L45.736 52.9863L45.7462 52.9727L45.7496 52.9693L45.7598 52.9557L45.7632 52.9523L45.7734 52.9388L45.8107 52.9015L45.8242 52.8913L45.8582 52.8574L45.8717 52.8472L45.8751 52.8438L45.8887 52.8336L45.8921 52.8302L46.0108 52.759H46.0142L46.0312 52.7488H46.0346L46.0515 52.7386H46.0549L46.0719 52.7318H46.0753L46.1296 52.7081L46.1567 52.6945L46.2076 52.6776C50.4209 51.2731 53.233 49.9671 54.7392 48.6407C55.9707 47.5552 56.1912 46.4561 55.4821 45.2348L55.4313 45.1331C54.6069 43.464 53.0532 42.6499 50.777 42.6872C48.2531 42.7313 44.8743 43.7829 40.6476 45.8421C37.5402 47.7485 34.2938 48.6882 30.9116 48.6577C27.5362 48.6272 24.0421 47.6264 20.4392 45.6623L20.351 45.6182L20.334 45.6046C18.5666 44.4817 16.8636 43.9254 15.2286 43.939C13.6104 43.9525 12.0262 44.5258 10.4759 45.6555L10.4589 45.6691L10.4454 45.6793C8.67454 47.0396 7.03945 48.0369 5.56043 48.6713C4.00333 49.3328 2.59212 49.6008 1.3302 49.4753L1.32457 49.4852ZM40.8756 2.83391C40.7603 2.75249 40.6381 2.68804 40.516 2.65072C40.3193 2.58627 40.1157 2.57948 39.9359 2.62697C39.746 2.67786 39.5628 2.7898 39.4067 2.95603C39.3016 3.06798 39.2134 3.20367 39.1353 3.35971C39.2676 3.30204 39.3999 3.24776 39.539 3.20028C39.9495 3.05101 40.3939 2.92889 40.879 2.8373L40.8756 2.83391ZM37.1407 4.75731C37.1203 3.44111 37.524 2.43356 38.138 1.77546C38.5213 1.3616 38.9928 1.08342 39.4949 0.951127C40.0037 0.81883 40.5431 0.832396 41.0621 1.00201C41.8254 1.25304 42.5479 1.85009 43.0535 2.80332C45.1838 3.54284 46.7137 4.79124 47.6568 6.22954C48.2369 7.1183 48.5999 8.07835 48.7458 9.03502C48.895 10.0052 48.8272 10.9822 48.5524 11.8777C48.1725 13.1092 47.3957 14.2083 46.2491 14.9851L46.2321 14.9953L46.1778 15.036C45.7572 15.3108 45.3569 15.6975 44.9804 16.1927C44.5868 16.7084 44.2137 17.3427 43.8745 18.0823L43.8677 18.1026L43.8609 18.1196V18.123L43.8202 18.1908L43.8168 18.1942L43.81 18.2112L43.8066 18.2146L43.7999 18.2315L43.7965 18.2349L43.7625 18.2824L43.7591 18.2858C43.6981 18.3638 43.6269 18.4317 43.542 18.4859L43.5081 18.5063L43.5047 18.5097L43.4912 18.5165C43.403 18.564 43.3114 18.5945 43.2164 18.6115L43.1994 18.6149H43.1926L43.1553 18.6216H43.1485L43.0434 18.625H42.9586L42.945 18.6216H42.9382L42.9246 18.6182L42.9179 18.6149L42.8771 18.6081L42.7957 18.5809L42.755 18.5606H42.7482L42.7313 18.5538H42.7279L42.7109 18.547H42.7075L42.6397 18.5063L42.6363 18.5029L42.6193 18.4961L42.6159 18.4927L42.599 18.4859L42.5956 18.4826L42.5481 18.4486L42.5447 18.4452C42.4667 18.3876 42.3988 18.3163 42.3446 18.2281C42.219 18.0314 42.0528 17.8041 41.8425 17.5395C41.7475 17.414 41.6288 17.2749 41.4965 17.1155C39.1389 18.2654 37.3375 18.6318 36.0925 18.2112C34.5388 17.6853 33.8841 16.1757 34.1317 13.6825C34.1792 13.2075 34.6033 12.8615 35.0781 12.9056C35.5531 12.9531 35.8991 13.3771 35.855 13.852C35.6989 15.4328 35.9601 16.3386 36.6454 16.5693C37.524 16.8644 39.0573 16.4438 41.242 15.3074C41.5982 15.0767 42.0765 15.1343 42.3649 15.4634C42.5616 15.6873 42.755 15.9146 42.9416 16.1419C43.1553 15.7789 43.3792 15.443 43.6099 15.1412C44.1085 14.4864 44.6513 13.964 45.2348 13.5841L45.2891 13.5535C46.0931 13.0074 46.6392 12.234 46.9072 11.3689C47.1074 10.7176 47.1583 10.0052 47.0497 9.2996C46.9378 8.57704 46.663 7.85106 46.222 7.17941C45.4485 6.00564 44.1662 4.98123 42.3446 4.38757C41.4863 4.45881 40.7536 4.60808 40.1429 4.82857C39.5425 5.04568 39.0506 5.34081 38.6571 5.70717L38.6368 5.72413L38.63 5.73091L38.613 5.74448L38.6063 5.75127C38.0228 6.311 37.6327 7.06747 37.3918 8.00381C37.1239 9.03507 37.0289 10.2936 37.0458 11.7625C37.0492 12.2408 36.6659 12.6309 36.1876 12.6343C35.7093 12.6377 35.3191 12.2544 35.3157 11.776C35.2988 10.1613 35.4073 8.75684 35.716 7.56952C36.0044 6.45003 36.4691 5.51038 37.1578 4.75728L37.1407 4.75731ZM44.6512 30.0912C45.1397 32.9272 46.361 34.257 48.1419 36.1974L48.1792 36.2415C48.9323 37.0624 49.7804 37.9919 50.7302 39.1894C51.0253 39.5625 50.9609 40.1087 50.5877 40.4038C50.2146 40.6989 49.6684 40.6344 49.3733 40.2613L49.0816 39.8949C49.1392 40.1426 49.085 40.4173 48.912 40.6311C48.6134 41.0042 48.0673 41.0619 47.6942 40.7634C45.5265 39.0265 43.8778 37.4083 42.7448 35.9158C41.5676 34.362 40.9333 32.9102 40.8383 31.5634L40.8349 31.5431L40.8315 31.5193V31.5092C40.6857 29.4161 40.3023 27.7267 39.6849 26.4377C39.1049 25.2267 38.3179 24.3752 37.3205 23.8867C36.893 23.6763 36.7132 23.1607 36.9236 22.7299C37.1339 22.3025 37.6495 22.1227 38.0803 22.333C39.4372 22.9979 40.4956 24.1208 41.2453 25.6914C41.9577 27.1772 42.3953 29.0735 42.5581 31.3702L42.5615 31.3905V31.4482C42.6294 32.4421 43.1518 33.5853 44.1254 34.871C45.1193 36.1805 46.5679 37.6155 48.4676 39.1623C47.9112 38.511 47.3854 37.9377 46.9003 37.4085L46.8596 37.3678C44.875 35.2035 43.5147 33.7211 42.9381 30.3762L42.9347 30.3559L42.9313 30.3389V30.3355L42.9279 30.3152V30.3118L42.9245 30.2914V30.288L42.9211 30.2711V30.2677L42.9177 30.2473V30.227C42.8329 28.8429 42.5005 27.503 41.9272 26.2139C41.3437 24.9044 40.5058 23.6357 39.4169 22.4179C39.098 22.0617 39.1286 21.5155 39.4848 21.1967C39.841 20.8779 40.3871 20.9083 40.7059 21.2645C41.917 22.6214 42.8499 24.036 43.5046 25.5083C44.1628 26.9805 44.5393 28.5071 44.6445 30.0879L44.6512 30.0912ZM23.134 25.1385C22.5506 18.9815 25.4137 16.9834 28.5414 14.8024C30.0578 13.7439 31.6454 12.6347 32.8158 10.9181C33.0838 10.5246 33.6265 10.4229 34.02 10.6909C34.4135 10.9589 34.5153 11.5016 34.2473 11.8951C32.9039 13.866 31.1772 15.0703 29.532 16.2203C26.8385 18.0997 24.3757 19.8196 24.8574 24.9724L24.8608 24.9962C25.3255 28.2053 25.0813 31.1295 24.1246 33.7621C23.1646 36.4014 21.4922 38.7353 19.1176 40.7571C18.7512 41.0658 18.2051 41.0217 17.8964 40.6553C17.5878 40.2889 17.6318 39.7428 17.9982 39.4341C20.1422 37.6124 21.6449 35.5228 22.4964 33.1719C23.3547 30.8143 23.5684 28.1683 23.1443 25.2407L23.1376 25.1423L23.134 25.1385ZM35.299 29.7045C35.2719 29.2262 35.6349 28.8158 36.1132 28.7886C36.5915 28.7614 37.002 29.1244 37.0291 29.6027C37.3107 34.1789 39.3223 35.5698 41.334 36.9641C42.4806 37.7579 43.6305 38.5551 44.577 39.8577C44.8586 40.2444 44.7738 40.7838 44.3871 41.0654C44.0004 41.3469 43.461 41.2621 43.1794 40.8754C42.406 39.8136 41.3747 39.1012 40.3503 38.3888C37.9892 36.7537 35.6315 35.1221 35.299 29.7045ZM33.9387 35.6581C34.2305 35.2815 34.7766 35.2137 35.1532 35.5088C35.5297 35.8005 35.5975 36.3467 35.3024 36.7232C34.4034 37.8732 33.7352 39.0571 33.2976 40.2682C32.8633 41.4724 32.6564 42.714 32.67 43.9896C32.6768 44.4679 32.2934 44.858 31.8151 44.8648C31.3368 44.8716 30.9467 44.4882 30.9399 44.0099C30.9229 42.5275 31.1672 41.0823 31.6692 39.6881C32.1679 38.3006 32.9278 36.9539 33.9387 35.6614L33.9387 35.6581ZM70.0569 43.6707C68.0283 43.3349 66.7833 43.8879 65.5145 44.4544C63.7064 45.2583 61.8543 46.0827 58.1905 45.1091C57.7292 44.987 57.451 44.512 57.5731 44.0506C57.6952 43.5892 58.1702 43.3111 58.6315 43.4332C61.7152 44.2508 63.2824 43.5554 64.809 42.8769C66.3253 42.2052 67.8145 41.5437 70.3554 41.9677L70.3757 41.9711C74.8536 42.5512 77.3741 44.6035 78.3002 47.0087C78.7276 48.1316 78.8056 49.3223 78.575 50.4791C78.3443 51.6223 77.8083 52.7281 77.0077 53.6882C75.013 56.0764 71.3494 57.6199 66.6169 56.6565C63.7233 56.2901 61.5115 55.632 60.0087 54.7636C58.896 54.119 58.1362 53.3422 57.7527 52.4636C57.3491 51.5477 57.3558 50.5605 57.7765 49.5293L57.7934 49.4818C58.17 48.5828 58.879 47.6499 59.917 46.7137C60.2732 46.3948 60.8194 46.4219 61.1417 46.7781C61.4606 47.1343 61.4334 47.6805 61.0772 48.0028C60.2359 48.7627 59.6762 49.4886 59.3946 50.1535L59.3777 50.1875C59.1436 50.7675 59.13 51.3001 59.3404 51.7716C59.5744 52.3042 60.0867 52.8063 60.8771 53.2608C62.1865 54.0173 64.1744 54.5974 66.8272 54.9367L66.851 54.94L66.8917 54.9468H66.8951L66.9561 54.957C70.9828 55.7779 74.0461 54.5296 75.6743 52.5756C76.2917 51.8327 76.7022 50.9914 76.8752 50.1365C77.0448 49.2952 76.9905 48.4302 76.6818 47.6228C75.966 45.7639 73.8934 44.1626 70.1346 43.6809L70.1143 43.6775L70.1041 43.6741H70.0939L70.0837 43.6708H70.0736L70.0634 43.6674L70.0569 43.6707ZM43.6608 47.002C44.1052 46.8324 44.6073 47.0528 44.7803 47.4972C44.95 47.9416 44.7295 48.4437 44.2851 48.6167C39.4204 50.5063 36.3097 52.1753 35.0276 53.5051C34.6307 53.9155 34.4611 54.2174 34.5221 54.3938L34.5289 54.4176C34.6239 54.6516 35.0242 54.8925 35.7332 55.1299C38.1281 55.9339 43.1182 56.1714 50.8222 55.6591C51.3005 55.6286 51.7109 55.9916 51.7415 56.4699C51.772 56.9482 51.4091 57.3587 50.9307 57.3892C42.9995 57.915 37.7818 57.6437 35.1834 56.7718C33.9418 56.3546 33.182 55.7575 32.9038 55.0044L32.8835 54.9501C32.5985 54.1054 32.9004 53.2166 33.7825 52.3041C35.2378 50.7979 38.5588 48.9864 43.6644 47.0019L43.6608 47.002Z"/>
</mask>
<path d="M1.32457 49.4852C0.849643 49.4378 0.503634 49.0137 0.547733 48.5388C0.595226 48.0639 1.01927 47.7179 1.49415 47.762C2.46436 47.8604 3.59063 47.6365 4.87626 47.0869C6.22642 46.5102 7.73601 45.5807 9.40158 44.3052L9.40497 44.3019L9.41854 44.2917L9.42193 44.2883L9.43889 44.2747C11.2911 42.9212 13.2146 42.2325 15.2126 42.2156C17.1869 42.1986 19.2054 42.8432 21.2577 44.1492C24.6161 45.9811 27.8387 46.9106 30.9259 46.9377C33.9722 46.9648 36.9133 46.1133 39.7388 44.3799C39.7795 44.3494 39.827 44.3222 39.8745 44.2985C44.3286 42.1274 47.955 41.0147 50.7499 40.9672C53.7554 40.9164 55.835 42.0494 56.9816 44.3698C58.1756 46.4154 57.85 48.2201 55.8859 49.9501C54.7087 50.9848 52.8837 51.9856 50.3699 53.0032L51.5471 53.0948C53.1957 53.2203 54.7393 53.3153 56.1809 53.3831C56.6593 53.4069 57.0256 53.8106 57.0053 54.2889C56.9815 54.7672 56.5778 55.1336 56.0995 55.1133C54.573 55.042 53.0091 54.9436 51.4181 54.8249C49.8441 54.7096 48.1513 54.5603 46.3467 54.3839C46.2211 54.3737 46.1058 54.333 46.004 54.2754H46.0006L45.9667 54.255H45.9633L45.9498 54.2448H45.9464L45.9328 54.2346L45.9294 54.2313L45.9158 54.2211L45.9124 54.2177L45.8989 54.2075L45.8955 54.2041L45.8819 54.1939L45.8785 54.1905L45.8649 54.1804L45.8616 54.177L45.848 54.1668L45.8107 54.1295L45.8005 54.1159L45.7666 54.082L45.7564 54.0684L45.753 54.065L45.7428 54.0515L45.7394 54.0481L45.6682 53.9293V53.9259L45.658 53.909V53.9056L45.6478 53.8886V53.8852L45.6411 53.8683V53.8649L45.6173 53.8106L45.6037 53.7835L45.58 53.7122L45.5766 53.6987L45.5732 53.6919L45.5698 53.6783L45.5664 53.6715L45.563 53.6579L45.5596 53.6512V53.6376L45.5562 53.6308V53.6172L45.5529 53.5731V53.5324C45.5529 53.5019 45.5529 53.468 45.5562 53.4374C45.5664 53.3119 45.6071 53.1966 45.6648 53.0948V53.0914L45.6852 53.0575V53.0541L45.6953 53.0405V53.0372L45.7055 53.0236L45.7089 53.0202L45.7191 53.0066L45.7225 53.0032L45.7326 52.9897L45.736 52.9863L45.7462 52.9727L45.7496 52.9693L45.7598 52.9557L45.7632 52.9523L45.7734 52.9388L45.8107 52.9015L45.8242 52.8913L45.8582 52.8574L45.8717 52.8472L45.8751 52.8438L45.8887 52.8336L45.8921 52.8302L46.0108 52.759H46.0142L46.0312 52.7488H46.0346L46.0515 52.7386H46.0549L46.0719 52.7318H46.0753L46.1296 52.7081L46.1567 52.6945L46.2076 52.6776C50.4209 51.2731 53.233 49.9671 54.7392 48.6407C55.9707 47.5552 56.1912 46.4561 55.4821 45.2348L55.4313 45.1331C54.6069 43.464 53.0532 42.6499 50.777 42.6872C48.2531 42.7313 44.8743 43.7829 40.6476 45.8421C37.5402 47.7485 34.2938 48.6882 30.9116 48.6577C27.5362 48.6272 24.0421 47.6264 20.4392 45.6623L20.351 45.6182L20.334 45.6046C18.5666 44.4817 16.8636 43.9254 15.2286 43.939C13.6104 43.9525 12.0262 44.5258 10.4759 45.6555L10.4589 45.6691L10.4454 45.6793C8.67454 47.0396 7.03945 48.0369 5.56043 48.6713C4.00333 49.3328 2.59212 49.6008 1.3302 49.4753L1.32457 49.4852ZM40.8756 2.83391C40.7603 2.75249 40.6381 2.68804 40.516 2.65072C40.3193 2.58627 40.1157 2.57948 39.9359 2.62697C39.746 2.67786 39.5628 2.7898 39.4067 2.95603C39.3016 3.06798 39.2134 3.20367 39.1353 3.35971C39.2676 3.30204 39.3999 3.24776 39.539 3.20028C39.9495 3.05101 40.3939 2.92889 40.879 2.8373L40.8756 2.83391ZM37.1407 4.75731C37.1203 3.44111 37.524 2.43356 38.138 1.77546C38.5213 1.3616 38.9928 1.08342 39.4949 0.951127C40.0037 0.81883 40.5431 0.832396 41.0621 1.00201C41.8254 1.25304 42.5479 1.85009 43.0535 2.80332C45.1838 3.54284 46.7137 4.79124 47.6568 6.22954C48.2369 7.1183 48.5999 8.07835 48.7458 9.03502C48.895 10.0052 48.8272 10.9822 48.5524 11.8777C48.1725 13.1092 47.3957 14.2083 46.2491 14.9851L46.2321 14.9953L46.1778 15.036C45.7572 15.3108 45.3569 15.6975 44.9804 16.1927C44.5868 16.7084 44.2137 17.3427 43.8745 18.0823L43.8677 18.1026L43.8609 18.1196V18.123L43.8202 18.1908L43.8168 18.1942L43.81 18.2112L43.8066 18.2146L43.7999 18.2315L43.7965 18.2349L43.7625 18.2824L43.7591 18.2858C43.6981 18.3638 43.6269 18.4317 43.542 18.4859L43.5081 18.5063L43.5047 18.5097L43.4912 18.5165C43.403 18.564 43.3114 18.5945 43.2164 18.6115L43.1994 18.6149H43.1926L43.1553 18.6216H43.1485L43.0434 18.625H42.9586L42.945 18.6216H42.9382L42.9246 18.6182L42.9179 18.6149L42.8771 18.6081L42.7957 18.5809L42.755 18.5606H42.7482L42.7313 18.5538H42.7279L42.7109 18.547H42.7075L42.6397 18.5063L42.6363 18.5029L42.6193 18.4961L42.6159 18.4927L42.599 18.4859L42.5956 18.4826L42.5481 18.4486L42.5447 18.4452C42.4667 18.3876 42.3988 18.3163 42.3446 18.2281C42.219 18.0314 42.0528 17.8041 41.8425 17.5395C41.7475 17.414 41.6288 17.2749 41.4965 17.1155C39.1389 18.2654 37.3375 18.6318 36.0925 18.2112C34.5388 17.6853 33.8841 16.1757 34.1317 13.6825C34.1792 13.2075 34.6033 12.8615 35.0781 12.9056C35.5531 12.9531 35.8991 13.3771 35.855 13.852C35.6989 15.4328 35.9601 16.3386 36.6454 16.5693C37.524 16.8644 39.0573 16.4438 41.242 15.3074C41.5982 15.0767 42.0765 15.1343 42.3649 15.4634C42.5616 15.6873 42.755 15.9146 42.9416 16.1419C43.1553 15.7789 43.3792 15.443 43.6099 15.1412C44.1085 14.4864 44.6513 13.964 45.2348 13.5841L45.2891 13.5535C46.0931 13.0074 46.6392 12.234 46.9072 11.3689C47.1074 10.7176 47.1583 10.0052 47.0497 9.2996C46.9378 8.57704 46.663 7.85106 46.222 7.17941C45.4485 6.00564 44.1662 4.98123 42.3446 4.38757C41.4863 4.45881 40.7536 4.60808 40.1429 4.82857C39.5425 5.04568 39.0506 5.34081 38.6571 5.70717L38.6368 5.72413L38.63 5.73091L38.613 5.74448L38.6063 5.75127C38.0228 6.311 37.6327 7.06747 37.3918 8.00381C37.1239 9.03507 37.0289 10.2936 37.0458 11.7625C37.0492 12.2408 36.6659 12.6309 36.1876 12.6343C35.7093 12.6377 35.3191 12.2544 35.3157 11.776C35.2988 10.1613 35.4073 8.75684 35.716 7.56952C36.0044 6.45003 36.4691 5.51038 37.1578 4.75728L37.1407 4.75731ZM44.6512 30.0912C45.1397 32.9272 46.361 34.257 48.1419 36.1974L48.1792 36.2415C48.9323 37.0624 49.7804 37.9919 50.7302 39.1894C51.0253 39.5625 50.9609 40.1087 50.5877 40.4038C50.2146 40.6989 49.6684 40.6344 49.3733 40.2613L49.0816 39.8949C49.1392 40.1426 49.085 40.4173 48.912 40.6311C48.6134 41.0042 48.0673 41.0619 47.6942 40.7634C45.5265 39.0265 43.8778 37.4083 42.7448 35.9158C41.5676 34.362 40.9333 32.9102 40.8383 31.5634L40.8349 31.5431L40.8315 31.5193V31.5092C40.6857 29.4161 40.3023 27.7267 39.6849 26.4377C39.1049 25.2267 38.3179 24.3752 37.3205 23.8867C36.893 23.6763 36.7132 23.1607 36.9236 22.7299C37.1339 22.3025 37.6495 22.1227 38.0803 22.333C39.4372 22.9979 40.4956 24.1208 41.2453 25.6914C41.9577 27.1772 42.3953 29.0735 42.5581 31.3702L42.5615 31.3905V31.4482C42.6294 32.4421 43.1518 33.5853 44.1254 34.871C45.1193 36.1805 46.5679 37.6155 48.4676 39.1623C47.9112 38.511 47.3854 37.9377 46.9003 37.4085L46.8596 37.3678C44.875 35.2035 43.5147 33.7211 42.9381 30.3762L42.9347 30.3559L42.9313 30.3389V30.3355L42.9279 30.3152V30.3118L42.9245 30.2914V30.288L42.9211 30.2711V30.2677L42.9177 30.2473V30.227C42.8329 28.8429 42.5005 27.503 41.9272 26.2139C41.3437 24.9044 40.5058 23.6357 39.4169 22.4179C39.098 22.0617 39.1286 21.5155 39.4848 21.1967C39.841 20.8779 40.3871 20.9083 40.7059 21.2645C41.917 22.6214 42.8499 24.036 43.5046 25.5083C44.1628 26.9805 44.5393 28.5071 44.6445 30.0879L44.6512 30.0912ZM23.134 25.1385C22.5506 18.9815 25.4137 16.9834 28.5414 14.8024C30.0578 13.7439 31.6454 12.6347 32.8158 10.9181C33.0838 10.5246 33.6265 10.4229 34.02 10.6909C34.4135 10.9589 34.5153 11.5016 34.2473 11.8951C32.9039 13.866 31.1772 15.0703 29.532 16.2203C26.8385 18.0997 24.3757 19.8196 24.8574 24.9724L24.8608 24.9962C25.3255 28.2053 25.0813 31.1295 24.1246 33.7621C23.1646 36.4014 21.4922 38.7353 19.1176 40.7571C18.7512 41.0658 18.2051 41.0217 17.8964 40.6553C17.5878 40.2889 17.6318 39.7428 17.9982 39.4341C20.1422 37.6124 21.6449 35.5228 22.4964 33.1719C23.3547 30.8143 23.5684 28.1683 23.1443 25.2407L23.1376 25.1423L23.134 25.1385ZM35.299 29.7045C35.2719 29.2262 35.6349 28.8158 36.1132 28.7886C36.5915 28.7614 37.002 29.1244 37.0291 29.6027C37.3107 34.1789 39.3223 35.5698 41.334 36.9641C42.4806 37.7579 43.6305 38.5551 44.577 39.8577C44.8586 40.2444 44.7738 40.7838 44.3871 41.0654C44.0004 41.3469 43.461 41.2621 43.1794 40.8754C42.406 39.8136 41.3747 39.1012 40.3503 38.3888C37.9892 36.7537 35.6315 35.1221 35.299 29.7045ZM33.9387 35.6581C34.2305 35.2815 34.7766 35.2137 35.1532 35.5088C35.5297 35.8005 35.5975 36.3467 35.3024 36.7232C34.4034 37.8732 33.7352 39.0571 33.2976 40.2682C32.8633 41.4724 32.6564 42.714 32.67 43.9896C32.6768 44.4679 32.2934 44.858 31.8151 44.8648C31.3368 44.8716 30.9467 44.4882 30.9399 44.0099C30.9229 42.5275 31.1672 41.0823 31.6692 39.6881C32.1679 38.3006 32.9278 36.9539 33.9387 35.6614L33.9387 35.6581ZM70.0569 43.6707C68.0283 43.3349 66.7833 43.8879 65.5145 44.4544C63.7064 45.2583 61.8543 46.0827 58.1905 45.1091C57.7292 44.987 57.451 44.512 57.5731 44.0506C57.6952 43.5892 58.1702 43.3111 58.6315 43.4332C61.7152 44.2508 63.2824 43.5554 64.809 42.8769C66.3253 42.2052 67.8145 41.5437 70.3554 41.9677L70.3757 41.9711C74.8536 42.5512 77.3741 44.6035 78.3002 47.0087C78.7276 48.1316 78.8056 49.3223 78.575 50.4791C78.3443 51.6223 77.8083 52.7281 77.0077 53.6882C75.013 56.0764 71.3494 57.6199 66.6169 56.6565C63.7233 56.2901 61.5115 55.632 60.0087 54.7636C58.896 54.119 58.1362 53.3422 57.7527 52.4636C57.3491 51.5477 57.3558 50.5605 57.7765 49.5293L57.7934 49.4818C58.17 48.5828 58.879 47.6499 59.917 46.7137C60.2732 46.3948 60.8194 46.4219 61.1417 46.7781C61.4606 47.1343 61.4334 47.6805 61.0772 48.0028C60.2359 48.7627 59.6762 49.4886 59.3946 50.1535L59.3777 50.1875C59.1436 50.7675 59.13 51.3001 59.3404 51.7716C59.5744 52.3042 60.0867 52.8063 60.8771 53.2608C62.1865 54.0173 64.1744 54.5974 66.8272 54.9367L66.851 54.94L66.8917 54.9468H66.8951L66.9561 54.957C70.9828 55.7779 74.0461 54.5296 75.6743 52.5756C76.2917 51.8327 76.7022 50.9914 76.8752 50.1365C77.0448 49.2952 76.9905 48.4302 76.6818 47.6228C75.966 45.7639 73.8934 44.1626 70.1346 43.6809L70.1143 43.6775L70.1041 43.6741H70.0939L70.0837 43.6708H70.0736L70.0634 43.6674L70.0569 43.6707ZM43.6608 47.002C44.1052 46.8324 44.6073 47.0528 44.7803 47.4972C44.95 47.9416 44.7295 48.4437 44.2851 48.6167C39.4204 50.5063 36.3097 52.1753 35.0276 53.5051C34.6307 53.9155 34.4611 54.2174 34.5221 54.3938L34.5289 54.4176C34.6239 54.6516 35.0242 54.8925 35.7332 55.1299C38.1281 55.9339 43.1182 56.1714 50.8222 55.6591C51.3005 55.6286 51.7109 55.9916 51.7415 56.4699C51.772 56.9482 51.4091 57.3587 50.9307 57.3892C42.9995 57.915 37.7818 57.6437 35.1834 56.7718C33.9418 56.3546 33.182 55.7575 32.9038 55.0044L32.8835 54.9501C32.5985 54.1054 32.9004 53.2166 33.7825 52.3041C35.2378 50.7979 38.5588 48.9864 43.6644 47.0019L43.6608 47.002Z" fill="#8EB79F"/>
<path d="M55.4902 45.1681L55.4698 45.1274L55.3804 45.1722L55.4008 45.2129L55.4902 45.1681ZM1.32457 49.4852L1.31462 49.5848L1.37963 49.5913L1.4117 49.5343L1.32457 49.4852ZM0.547733 48.5388L0.448226 48.5289L0.448161 48.5296L0.547733 48.5388ZM1.49415 47.762L1.50424 47.6625L1.5034 47.6624L1.49415 47.762ZM4.87626 47.0869L4.83698 46.995L4.83696 46.995L4.87626 47.0869ZM9.40158 44.3052L9.46291 44.3853L9.47229 44.376L9.40158 44.3052ZM9.40497 44.3019L9.34497 44.2219L9.33928 44.2261L9.33426 44.2311L9.40497 44.3019ZM9.41854 44.2917L9.47854 44.3717L9.48423 44.3674L9.48925 44.3624L9.41854 44.2917ZM9.42193 44.2883L9.35908 44.2097L9.35122 44.2176L9.42193 44.2883ZM9.43889 44.2747L9.37984 44.1939L9.37643 44.1966L9.43889 44.2747ZM15.2126 42.2156L15.2134 42.3156H15.2134L15.2126 42.2156ZM21.2577 44.1492L21.2038 44.2338L21.2098 44.237L21.2577 44.1492ZM30.9259 46.9377L30.9268 46.8377H30.9268L30.9259 46.9377ZM39.7388 44.3799L39.7913 44.4655L39.7988 44.4599L39.7388 44.3799ZM39.8745 44.2985L39.8307 44.2086L39.8297 44.209L39.8745 44.2985ZM50.7499 40.9672L50.7482 40.8673H50.7482L50.7499 40.9672ZM56.9816 44.3698L56.8917 44.4142L56.8952 44.4202L56.9816 44.3698ZM55.8859 49.9501L55.9519 50.0253L55.952 50.0252L55.8859 49.9501ZM50.3699 53.0032L50.3324 52.9105L50.3622 53.1029L50.3699 53.0032ZM51.5471 53.0948L51.5393 53.1945L51.5395 53.1945L51.5471 53.0948ZM56.1809 53.3831L56.1859 53.2833L56.1856 53.2833L56.1809 53.3831ZM57.0053 54.2889L57.1052 54.2939L57.1052 54.2932L57.0053 54.2889ZM56.0995 55.1133L56.0948 55.2131L56.0952 55.2132L56.0995 55.1133ZM51.4181 54.8249L51.4256 54.7252L51.4254 54.7252L51.4181 54.8249ZM46.3467 54.3839L46.3564 54.2844L46.3547 54.2842L46.3467 54.3839ZM46.004 54.2754L46.0533 54.1884L46.0304 54.1754H46.004V54.2754ZM46.0006 54.2754L45.9492 54.3611L45.9729 54.3754H46.0006V54.2754ZM45.9667 54.255L46.0182 54.1693L45.9944 54.155H45.9667V54.255ZM45.9633 54.255L45.9034 54.335L45.93 54.355H45.9633V54.255ZM45.9498 54.2448L46.0097 54.1648L45.9831 54.1448H45.9498V54.2448ZM45.9464 54.2448L45.8864 54.3248L45.913 54.3448H45.9464V54.2448ZM45.9328 54.2346L45.862 54.3053L45.867 54.3103L45.8728 54.3146L45.9328 54.2346ZM45.9294 54.2313L46.0002 54.1606L45.9951 54.1555L45.9894 54.1512L45.9294 54.2313ZM45.9158 54.2211L45.8451 54.2918L45.8502 54.2968L45.8559 54.3011L45.9158 54.2211ZM45.9124 54.2177L45.9832 54.147L45.9781 54.142L45.9724 54.1377L45.9124 54.2177ZM45.8989 54.2075L45.8281 54.2782L45.8332 54.2832L45.8389 54.2875L45.8989 54.2075ZM45.8955 54.2041L45.9662 54.1334L45.9612 54.1284L45.9555 54.1241L45.8955 54.2041ZM45.8819 54.1939L45.8112 54.2647L45.8162 54.2697L45.8219 54.274L45.8819 54.1939ZM45.8785 54.1905L45.9499 54.1191L45.9385 54.1105L45.8785 54.1905ZM45.8649 54.1804L45.7941 54.251L45.7992 54.2561L45.8049 54.2604L45.8649 54.1804ZM45.8616 54.177L45.9324 54.1064L45.9273 54.1013L45.9215 54.097L45.8616 54.177ZM45.848 54.1668L45.7773 54.2375L45.7823 54.2425L45.788 54.2468L45.848 54.1668ZM45.8107 54.1295L45.7307 54.1895L45.7349 54.1952L45.74 54.2002L45.8107 54.1295ZM45.8005 54.1159L45.8805 54.0559L45.8762 54.0502L45.8712 54.0452L45.8005 54.1159ZM45.7666 54.082L45.6866 54.142L45.6908 54.1477L45.6959 54.1527L45.7666 54.082ZM45.7564 54.0684L45.8372 54.0078L45.8271 53.9977L45.7564 54.0684ZM45.753 54.065L45.6722 54.1256L45.6823 54.1357L45.753 54.065ZM45.7428 54.0515L45.8228 53.9914L45.8185 53.9857L45.8135 53.9807L45.7428 54.0515ZM45.7394 54.0481L45.6537 54.0995L45.66 54.1101L45.6688 54.1188L45.7394 54.0481ZM45.6682 53.9293H45.5682V53.957L45.5824 53.9808L45.6682 53.9293ZM45.6682 53.9259H45.7682V53.8982L45.7539 53.8745L45.6682 53.9259ZM45.658 53.909H45.558V53.9367L45.5723 53.9604L45.658 53.909ZM45.658 53.9056H45.758V53.8779L45.7438 53.8541L45.658 53.9056ZM45.6478 53.8886H45.5478V53.9163L45.5621 53.9401L45.6478 53.8886ZM45.6478 53.8852H45.7478V53.866L45.7407 53.8481L45.6478 53.8852ZM45.6411 53.8683H45.5411V53.8875L45.5482 53.9054L45.6411 53.8683ZM45.6411 53.8649H45.7411V53.844L45.7327 53.8248L45.6411 53.8649ZM45.6173 53.8106L45.709 53.7705L45.7068 53.7659L45.6173 53.8106ZM45.6037 53.7835L45.5089 53.8151L45.5111 53.8218L45.5143 53.8282L45.6037 53.7835ZM45.58 53.7122L45.4827 53.7365L45.4851 53.7439L45.58 53.7122ZM45.5766 53.6987L45.6736 53.6744L45.671 53.6638L45.666 53.6539L45.5766 53.6987ZM45.5732 53.6919L45.4762 53.7161L45.4789 53.7268L45.4838 53.7366L45.5732 53.6919ZM45.5698 53.6783L45.6668 53.654L45.6642 53.6434L45.6593 53.6336L45.5698 53.6783ZM45.5664 53.6715L45.4694 53.6957L45.4721 53.7064L45.477 53.7162L45.5664 53.6715ZM45.563 53.6579L45.6601 53.6337L45.6574 53.6231L45.6525 53.6132L45.563 53.6579ZM45.5596 53.6512H45.4596V53.6748L45.4702 53.6959L45.5596 53.6512ZM45.5596 53.6376H45.6596V53.614L45.6491 53.5929L45.5596 53.6376ZM45.5562 53.6308H45.4562V53.6544L45.4668 53.6755L45.5562 53.6308ZM45.5562 53.6172H45.6565L45.656 53.6096L45.5562 53.6172ZM45.5529 53.5731H45.4526L45.4531 53.5808L45.5529 53.5731ZM45.5562 53.4374L45.6557 53.4485L45.6559 53.4455L45.5562 53.4374ZM45.6648 53.0948L45.7518 53.1441L45.7648 53.1212V53.0948H45.6648ZM45.6648 53.0914L45.5791 53.04L45.5648 53.0637V53.0914H45.6648ZM45.6852 53.0575L45.7709 53.109L45.7852 53.0852V53.0575H45.6852ZM45.6852 53.0541L45.6052 52.9941L45.5852 53.0208V53.0541H45.6852ZM45.6953 53.0405L45.7753 53.1005L45.7953 53.0739V53.0405H45.6953ZM45.6953 53.0372L45.6153 52.9772L45.5953 53.0038V53.0372H45.6953ZM45.7055 53.0236L45.6348 52.9528L45.6298 52.9579L45.6255 52.9636L45.7055 53.0236ZM45.7089 53.0202L45.7796 53.0909L45.7846 53.0859L45.7889 53.0802L45.7089 53.0202ZM45.7191 53.0066L45.6484 52.9359L45.6433 52.9409L45.6391 52.9466L45.7191 53.0066ZM45.7225 53.0032L45.7932 53.0739L45.7982 53.0689L45.8025 53.0632L45.7225 53.0032ZM45.7326 52.9897L45.662 52.9189L45.6569 52.924L45.6526 52.9297L45.7326 52.9897ZM45.736 52.9863L45.8067 53.057L45.8118 53.052L45.816 53.0463L45.736 52.9863ZM45.7462 52.9727L45.6755 52.902L45.6705 52.907L45.6662 52.9127L45.7462 52.9727ZM45.7496 52.9693L45.8203 53.04L45.8254 53.035L45.8296 53.0293L45.7496 52.9693ZM45.7598 52.9557L45.6891 52.885L45.6841 52.89L45.6798 52.8958L45.7598 52.9557ZM45.7632 52.9523L45.8339 53.0231L45.8389 53.0181L45.8432 53.0123L45.7632 52.9523ZM45.7734 52.9388L45.7026 52.8681L45.6976 52.8731L45.6934 52.8788L45.7734 52.9388ZM45.8107 52.9015L45.7507 52.8215L45.745 52.8257L45.74 52.8308L45.8107 52.9015ZM45.8242 52.8913L45.8842 52.9713L45.8899 52.967L45.8949 52.962L45.8242 52.8913ZM45.8582 52.8574L45.7982 52.7774L45.7925 52.7816L45.7875 52.7866L45.8582 52.8574ZM45.8717 52.8472L45.9317 52.9272L45.9374 52.9229L45.9424 52.9179L45.8717 52.8472ZM45.8751 52.8438L45.8151 52.7638L45.8094 52.7681L45.8044 52.7731L45.8751 52.8438ZM45.8887 52.8336L45.9487 52.9136L45.9544 52.9093L45.9594 52.9043L45.8887 52.8336ZM45.8921 52.8302L45.8406 52.7445L45.8301 52.7508L45.8213 52.7595L45.8921 52.8302ZM46.0108 52.759V52.659H45.9831L45.9594 52.6732L46.0108 52.759ZM46.0142 52.759V52.859H46.0419L46.0657 52.8447L46.0142 52.759ZM46.0312 52.7488V52.6488H46.0035L45.9797 52.6631L46.0312 52.7488ZM46.0346 52.7488V52.8488H46.0623L46.086 52.8346L46.0346 52.7488ZM46.0515 52.7386V52.6386H46.0238L46.0001 52.6529L46.0515 52.7386ZM46.0549 52.7386V52.8386H46.0742L46.0921 52.8315L46.0549 52.7386ZM46.0719 52.7318V52.6318H46.0526L46.0347 52.639L46.0719 52.7318ZM46.0753 52.7318V52.8318H46.0962L46.1154 52.8235L46.0753 52.7318ZM46.1296 52.7081L46.1697 52.7998L46.1743 52.7975L46.1296 52.7081ZM46.1567 52.6945L46.1251 52.5997L46.1183 52.6019L46.112 52.6051L46.1567 52.6945ZM46.2076 52.6776L46.1759 52.5827L46.2076 52.6776ZM54.7392 48.6407L54.8053 48.7158L54.8054 48.7158L54.7392 48.6407ZM55.4821 45.2348L55.3925 45.2796L55.3957 45.285L55.4821 45.2348ZM55.4313 45.1331L55.3416 45.1773L55.3418 45.1778L55.4313 45.1331ZM50.777 42.6872L50.7753 42.5872H50.7752L50.777 42.6872ZM40.6476 45.8421L40.6036 45.7517L40.5953 45.7568L40.6476 45.8421ZM30.9116 48.6577L30.9107 48.7577H30.9107L30.9116 48.6577ZM20.4392 45.6623L20.487 45.5744L20.4839 45.5728L20.4392 45.6623ZM20.351 45.6182L20.2885 45.6963L20.2968 45.7029L20.3062 45.7076L20.351 45.6182ZM20.334 45.6046L20.3968 45.5261L20.3876 45.5202L20.334 45.6046ZM15.2286 43.939L15.2277 43.839H15.2277L15.2286 43.939ZM10.4759 45.6555L10.4169 45.5746L10.4134 45.5774L10.4759 45.6555ZM10.4589 45.6691L10.519 45.7491L10.5214 45.7472L10.4589 45.6691ZM10.4454 45.6793L10.3854 45.5993L10.3844 45.6L10.4454 45.6793ZM5.56043 48.6713L5.59953 48.7633L5.59985 48.7632L5.56043 48.6713ZM1.3302 49.4753L1.3401 49.3757L1.27512 49.3693L1.24308 49.4262L1.3302 49.4753ZM40.8756 2.83391L40.9461 2.76301L40.9402 2.75707L40.9333 2.75221L40.8756 2.83391ZM40.516 2.65072L40.4849 2.74577L40.4868 2.74635L40.516 2.65072ZM39.9359 2.62697L39.9104 2.53029L39.9101 2.53038L39.9359 2.62697ZM39.4067 2.95603L39.4796 3.0245L39.4796 3.02448L39.4067 2.95603ZM39.1353 3.35971L39.0459 3.31499L38.9226 3.56152L39.1753 3.45138L39.1353 3.35971ZM39.539 3.20028L39.5713 3.29493L39.5732 3.29426L39.539 3.20028ZM40.879 2.8373L40.8976 2.93556L41.0842 2.90033L40.9495 2.7664L40.879 2.8373ZM37.1407 4.75731L37.0407 4.75886L37.0422 4.85751L37.1409 4.85731L37.1407 4.75731ZM38.138 1.77546L38.2111 1.84368L38.2113 1.84341L38.138 1.77546ZM39.4949 0.951127L39.4697 0.854344L39.4694 0.854428L39.4949 0.951127ZM41.0621 1.00201L41.0934 0.907019L41.0932 0.906959L41.0621 1.00201ZM43.0535 2.80332L42.9651 2.85017L42.9835 2.8849L43.0207 2.89779L43.0535 2.80332ZM47.6568 6.22954L47.7406 6.17489L47.7405 6.17471L47.6568 6.22954ZM48.7458 9.03502L48.6469 9.05009L48.6469 9.05022L48.7458 9.03502ZM48.5524 11.8777L48.648 11.9072L48.648 11.9071L48.5524 11.8777ZM46.2491 14.9851L46.3006 15.071L46.3052 15.0679L46.2491 14.9851ZM46.2321 14.9953L46.1804 14.9091L46.1721 14.9153L46.2321 14.9953ZM46.1778 15.036L46.2326 15.1199L46.2378 15.116L46.1778 15.036ZM44.9804 16.1927L45.0598 16.2534L45.06 16.2532L44.9804 16.1927ZM43.8745 18.0823L43.7831 18.0403L43.7796 18.0506L43.8745 18.0823ZM43.8677 18.1026L43.9607 18.1398L43.9626 18.1342L43.8677 18.1026ZM43.8609 18.1196L43.7681 18.0824L43.7609 18.1003V18.1196H43.8609ZM43.8609 18.123L43.9467 18.1744L43.9609 18.1507V18.123H43.8609ZM43.8202 18.1908L43.8909 18.2615L43.8996 18.2528L43.906 18.2423L43.8202 18.1908ZM43.8168 18.1942L43.7461 18.1235L43.7316 18.138L43.724 18.1571L43.8168 18.1942ZM43.81 18.2112L43.8807 18.2819L43.8952 18.2674L43.9029 18.2483L43.81 18.2112ZM43.8066 18.2146L43.736 18.1438L43.7214 18.1583L43.7138 18.1774L43.8066 18.2146ZM43.7999 18.2315L43.8706 18.3022L43.8851 18.2877L43.8927 18.2686L43.7999 18.2315ZM43.7965 18.2349L43.7258 18.1642L43.7199 18.1701L43.7151 18.1768L43.7965 18.2349ZM43.7625 18.2824L43.8333 18.3531L43.8391 18.3473L43.8439 18.3405L43.7625 18.2824ZM43.7591 18.2858L43.6879 18.2146L43.6804 18.2242L43.7591 18.2858ZM43.542 18.4859L43.5935 18.5717L43.5959 18.5702L43.542 18.4859ZM43.5081 18.5063L43.4567 18.4205L43.4461 18.4269L43.4374 18.4356L43.5081 18.5063ZM43.5047 18.5097L43.5494 18.5991L43.564 18.5919L43.5755 18.5804L43.5047 18.5097ZM43.4912 18.5165L43.4464 18.427L43.4437 18.4284L43.4912 18.5165ZM43.2164 18.6115L43.1988 18.513L43.1968 18.5134L43.2164 18.6115ZM43.1994 18.6149V18.7149H43.2093L43.219 18.7129L43.1994 18.6149ZM43.1926 18.6149V18.5149H43.1836L43.1747 18.5165L43.1926 18.6149ZM43.1553 18.6216V18.7216H43.1643L43.1732 18.72L43.1553 18.6216ZM43.1485 18.6216V18.5216L43.1453 18.5217L43.1485 18.6216ZM43.0434 18.625V18.7251L43.0466 18.725L43.0434 18.625ZM42.9586 18.625L42.9343 18.722L42.9463 18.725H42.9586V18.625ZM42.945 18.6216L42.9692 18.5246L42.9573 18.5216H42.945V18.6216ZM42.9382 18.6216L42.9139 18.7187L42.9259 18.7216H42.9382V18.6216ZM42.9246 18.6182L42.8799 18.7077L42.8897 18.7126L42.9004 18.7153L42.9246 18.6182ZM42.9179 18.6149L42.9626 18.5254L42.9491 18.5187L42.9343 18.5162L42.9179 18.6149ZM42.8771 18.6081L42.8455 18.7029L42.853 18.7054L42.8607 18.7067L42.8771 18.6081ZM42.7957 18.5809L42.751 18.6704L42.7574 18.6736L42.7641 18.6758L42.7957 18.5809ZM42.755 18.5606L42.7997 18.4711L42.7786 18.4606H42.755V18.5606ZM42.7482 18.5606L42.7111 18.6534L42.729 18.6606H42.7482V18.5606ZM42.7313 18.5538L42.7684 18.4609L42.7505 18.4538H42.7313V18.5538ZM42.7279 18.5538L42.6907 18.6466L42.7086 18.6538H42.7279V18.5538ZM42.7109 18.547L42.7481 18.4542L42.7302 18.447H42.7109V18.547ZM42.7075 18.547L42.6561 18.6328L42.6798 18.647H42.7075V18.547ZM42.6397 18.5063L42.569 18.577L42.5777 18.5857L42.5882 18.5921L42.6397 18.5063ZM42.6363 18.5029L42.707 18.4322L42.6925 18.4177L42.6734 18.4101L42.6363 18.5029ZM42.6193 18.4961L42.5486 18.5668L42.5631 18.5813L42.5822 18.589L42.6193 18.4961ZM42.6159 18.4927L42.6866 18.422L42.6721 18.4075L42.6531 18.3999L42.6159 18.4927ZM42.599 18.4859L42.5283 18.5567L42.5428 18.5712L42.5618 18.5788L42.599 18.4859ZM42.5956 18.4826L42.6663 18.4118L42.6604 18.406L42.6537 18.4012L42.5956 18.4826ZM42.5481 18.4486L42.4773 18.5193L42.4832 18.5252L42.49 18.53L42.5481 18.4486ZM42.5447 18.4452L42.6154 18.3746L42.6102 18.3693L42.6041 18.3648L42.5447 18.4452ZM42.3446 18.2281L42.4297 18.1757L42.4289 18.1743L42.3446 18.2281ZM41.8425 17.5395L41.7627 17.5999L41.7642 17.6017L41.8425 17.5395ZM41.4965 17.1155L41.5734 17.0516L41.5233 16.9911L41.4526 17.0256L41.4965 17.1155ZM36.0925 18.2112L36.0604 18.3059L36.0605 18.3059L36.0925 18.2112ZM34.1317 13.6825L34.0322 13.6725L34.0322 13.6726L34.1317 13.6825ZM35.0781 12.9056L35.0881 12.8061L35.0874 12.806L35.0781 12.9056ZM35.855 13.852L35.9545 13.8619L35.9546 13.8613L35.855 13.852ZM36.6454 16.5693L36.6135 16.664L36.6136 16.6641L36.6454 16.5693ZM41.242 15.3074L41.2884 15.3965L41.2964 15.3913L41.242 15.3074ZM42.3649 15.4634L42.2897 15.5293L42.2898 15.5294L42.3649 15.4634ZM42.9416 16.1419L42.8643 16.2053L42.9551 16.316L43.0278 16.1926L42.9416 16.1419ZM43.6099 15.1412L43.6893 15.2019L43.6894 15.2018L43.6099 15.1412ZM45.2348 13.5841L45.1857 13.4967L45.1802 13.5003L45.2348 13.5841ZM45.2891 13.5535L45.3383 13.641L45.3453 13.6363L45.2891 13.5535ZM46.9072 11.3689L47.0028 11.3985L47.0028 11.3983L46.9072 11.3689ZM47.0497 9.2996L47.1485 9.2844L47.1485 9.28429L47.0497 9.2996ZM46.222 7.17941L46.3056 7.12453L46.3055 7.12439L46.222 7.17941ZM42.3446 4.38757L42.3756 4.2925L42.3564 4.28625L42.3363 4.28792L42.3446 4.38757ZM40.1429 4.82857L40.109 4.73452L40.1089 4.73453L40.1429 4.82857ZM38.6571 5.70717L38.7213 5.7841L38.7253 5.78036L38.6571 5.70717ZM38.6368 5.72413L38.5725 5.64699L38.5661 5.65342L38.6368 5.72413ZM38.63 5.73091L38.6929 5.80948L38.7007 5.80162L38.63 5.73091ZM38.613 5.74448L38.5502 5.66591L38.5423 5.67377L38.613 5.74448ZM38.6063 5.75127L38.6755 5.82345L38.677 5.82198L38.6063 5.75127ZM37.3918 8.00381L37.4886 8.02896L37.4887 8.02872L37.3918 8.00381ZM37.0458 11.7625L37.1458 11.7618L37.1458 11.7613L37.0458 11.7625ZM35.3157 11.776L35.4157 11.7753L35.4157 11.775L35.3157 11.776ZM35.716 7.56952L35.8128 7.59469L35.8129 7.59447L35.716 7.56952ZM37.1578 4.75728L37.2316 4.82476L37.3852 4.65682L37.1576 4.65728L37.1578 4.75728ZM44.6512 30.0912L44.7498 30.0743L44.7412 30.0243L44.6958 30.0017L44.6512 30.0912ZM48.1419 36.1974L48.2183 36.1327L48.2155 36.1297L48.1419 36.1974ZM48.1792 36.2415L48.1028 36.3061L48.1055 36.3091L48.1792 36.2415ZM50.7302 39.1894L50.8086 39.1273L50.8086 39.1272L50.7302 39.1894ZM50.5877 40.4038L50.5257 40.3253L50.5257 40.3253L50.5877 40.4038ZM49.3733 40.2613L49.4518 40.1993L49.4515 40.199L49.3733 40.2613ZM49.0816 39.8949L49.1598 39.8326L48.9842 39.9176L49.0816 39.8949ZM48.912 40.6311L48.8342 40.5681L48.8339 40.5686L48.912 40.6311ZM47.6942 40.7634L47.6316 40.8414L47.6317 40.8414L47.6942 40.7634ZM42.7448 35.9158L42.6651 35.9762L42.6651 35.9762L42.7448 35.9158ZM40.8383 31.5634L40.9385 31.5564L40.937 31.547L40.8383 31.5634ZM40.8349 31.5431L40.7359 31.5572L40.7363 31.5595L40.8349 31.5431ZM40.8315 31.5193H40.7315V31.5264L40.7325 31.5335L40.8315 31.5193ZM40.8315 31.5092H40.9318L40.9313 31.5022L40.8315 31.5092ZM39.6849 26.4377L39.7751 26.3945L39.7751 26.3945L39.6849 26.4377ZM37.3205 23.8867L37.2763 23.9764L37.2765 23.9765L37.3205 23.8867ZM36.9236 22.7299L36.8338 22.6858L36.8337 22.686L36.9236 22.7299ZM38.0803 22.333L38.1243 22.2432L38.1242 22.2432L38.0803 22.333ZM41.2453 25.6914L41.1551 25.7345L41.1551 25.7346L41.2453 25.6914ZM42.5581 31.3702L42.4579 31.3773L42.4595 31.3866L42.5581 31.3702ZM42.5615 31.3905H42.6615V31.3823L42.6602 31.3741L42.5615 31.3905ZM42.5615 31.4482H42.4613L42.4617 31.455L42.5615 31.4482ZM44.1254 34.871L44.0457 34.9314L44.0457 34.9315L44.1254 34.871ZM48.4676 39.1623L48.4044 39.2399L48.5436 39.0974L48.4676 39.1623ZM46.9003 37.4085L46.9741 37.3409L46.971 37.3378L46.9003 37.4085ZM46.8596 37.3678L46.7858 37.4355L46.7889 37.4385L46.8596 37.3678ZM42.9381 30.3762L42.8394 30.3927L42.8395 30.3932L42.9381 30.3762ZM42.9347 30.3559L43.0334 30.3394L43.0328 30.3363L42.9347 30.3559ZM42.9313 30.3389H42.8313V30.3488L42.8332 30.3585L42.9313 30.3389ZM42.9313 30.3355H43.0313V30.3273L43.0299 30.3191L42.9313 30.3355ZM42.9279 30.3152H42.8279V30.3234L42.8293 30.3316L42.9279 30.3152ZM42.9279 30.3118H43.0279V30.3035L43.0266 30.2953L42.9279 30.3118ZM42.9245 30.2914H42.8245V30.2997L42.8259 30.3079L42.9245 30.2914ZM42.9245 30.288H43.0245V30.2781L43.0226 30.2684L42.9245 30.288ZM42.9211 30.2711H42.8211V30.281L42.8231 30.2907L42.9211 30.2711ZM42.9211 30.2677H43.0211V30.2594L43.0198 30.2512L42.9211 30.2677ZM42.9177 30.2473H42.8177V30.2556L42.8191 30.2638L42.9177 30.2473ZM42.9177 30.227H43.0179L43.0175 30.2209L42.9177 30.227ZM41.9272 26.2139L42.0186 26.1732L42.0185 26.1732L41.9272 26.2139ZM39.4169 22.4179L39.4915 22.3512L39.4914 22.3512L39.4169 22.4179ZM40.7059 21.2645L40.7806 21.1979L40.7805 21.1978L40.7059 21.2645ZM43.5046 25.5083L43.4133 25.5489L43.4134 25.5491L43.5046 25.5083ZM44.6445 30.0879L44.5447 30.0945L44.5485 30.1518L44.5999 30.1774L44.6445 30.0879ZM23.134 25.1385L23.0345 25.1479L23.0376 25.181L23.0599 25.2056L23.134 25.1385ZM28.5414 14.8024L28.5986 14.8844L28.5987 14.8844L28.5414 14.8024ZM32.8158 10.9181L32.8984 10.9745L32.8984 10.9744L32.8158 10.9181ZM34.2473 11.8951L34.3299 11.9514L34.33 11.9514L34.2473 11.8951ZM29.532 16.2203L29.5892 16.3024L29.5893 16.3023L29.532 16.2203ZM24.8574 24.9724L24.7577 24.9817L24.7584 24.9866L24.8574 24.9724ZM24.8608 24.9962L24.7618 25.0103L24.7618 25.0105L24.8608 24.9962ZM24.1246 33.7621L24.2186 33.7963L24.2186 33.7963L24.1246 33.7621ZM19.1176 40.7571L19.182 40.8336L19.1824 40.8332L19.1176 40.7571ZM17.9982 39.4341L18.0626 39.5106L18.0629 39.5103L17.9982 39.4341ZM22.4964 33.1719L22.4024 33.1377L22.4024 33.1379L22.4964 33.1719ZM23.1443 25.2407L23.0443 25.2476L23.0454 25.2551L23.1443 25.2407ZM23.1376 25.1423L23.2373 25.1355L23.2349 25.1009L23.2117 25.0752L23.1376 25.1423ZM35.299 29.7045L35.1992 29.7102L35.1992 29.7106L35.299 29.7045ZM36.1132 28.7886L36.1075 28.6887H36.1075L36.1132 28.7886ZM37.0291 29.6027L36.9293 29.6084L36.9293 29.6089L37.0291 29.6027ZM41.334 36.9641L41.277 37.0463L41.277 37.0463L41.334 36.9641ZM44.577 39.8577L44.4961 39.9165L44.4962 39.9166L44.577 39.8577ZM44.3871 41.0654L44.3282 40.9845V40.9845L44.3871 41.0654ZM43.1794 40.8754L43.2603 40.8165L43.2603 40.8165L43.1794 40.8754ZM40.3503 38.3888L40.4073 38.3067L40.4072 38.3066L40.3503 38.3888ZM33.9387 35.6581L33.8597 35.5968L33.8389 35.6236L33.8387 35.6576L33.9387 35.6581ZM35.1532 35.5088L35.0915 35.5875L35.0919 35.5878L35.1532 35.5088ZM35.3024 36.7232L35.2237 36.6615L35.2236 36.6616L35.3024 36.7232ZM33.2976 40.2682L33.2035 40.2342L33.2035 40.2342L33.2976 40.2682ZM32.67 43.9896L32.57 43.9906L32.57 43.991L32.67 43.9896ZM31.8151 44.8648L31.8137 44.7648H31.8137L31.8151 44.8648ZM30.9399 44.0099L30.8399 44.011L30.8399 44.0113L30.9399 44.0099ZM31.6692 39.6881L31.7633 39.7219L31.7634 39.7219L31.6692 39.6881ZM33.9387 35.6614L34.0175 35.723L34.0386 35.6961L34.0387 35.6619L33.9387 35.6614ZM70.0569 43.6707L70.0405 43.7694L70.0734 43.7748L70.103 43.7595L70.0569 43.6707ZM65.5145 44.4544L65.5552 44.5457L65.5553 44.5457L65.5145 44.4544ZM58.1905 45.1091L58.2162 45.0124L58.2161 45.0124L58.1905 45.1091ZM58.6315 43.4332L58.6572 43.3366L58.6571 43.3366L58.6315 43.4332ZM64.809 42.8769L64.7685 42.7855L64.7684 42.7855L64.809 42.8769ZM70.3554 41.9677L70.3389 42.0664L70.339 42.0664L70.3554 41.9677ZM70.3757 41.9711L70.3593 42.0698L70.3629 42.0703L70.3757 41.9711ZM78.3002 47.0087L78.3937 46.9732L78.3935 46.9728L78.3002 47.0087ZM78.575 50.4791L78.673 50.4989L78.673 50.4986L78.575 50.4791ZM77.0077 53.6882L77.0845 53.7523L77.0845 53.7522L77.0077 53.6882ZM66.6169 56.6565L66.6369 56.5582L66.6295 56.5573L66.6169 56.6565ZM60.0087 54.7636L59.9585 54.8501L59.9586 54.8502L60.0087 54.7636ZM57.7527 52.4636L57.8444 52.4236L57.8442 52.4233L57.7527 52.4636ZM57.7765 49.5293L57.8692 49.5671L57.8707 49.5629L57.7765 49.5293ZM57.7934 49.4818L57.7011 49.4431L57.6993 49.4482L57.7934 49.4818ZM59.917 46.7137L59.8503 46.6391L59.85 46.6394L59.917 46.7137ZM61.1417 46.7781L61.2162 46.7114L61.2158 46.711L61.1417 46.7781ZM61.0772 48.0028L61.1443 48.077L61.1443 48.0769L61.0772 48.0028ZM59.3946 50.1535L59.4843 50.1984L59.4867 50.1925L59.3946 50.1535ZM59.3777 50.1875L59.288 50.1426L59.285 50.15L59.3777 50.1875ZM59.3404 51.7716L59.4319 51.7314L59.4317 51.7309L59.3404 51.7716ZM60.8771 53.2608L60.9271 53.1742L60.9269 53.1741L60.8771 53.2608ZM66.8272 54.9367L66.8414 54.8376L66.8399 54.8375L66.8272 54.9367ZM66.851 54.94L66.8674 54.8414L66.8651 54.841L66.851 54.94ZM66.8917 54.9468L66.8752 55.0455L66.8834 55.0468H66.8917V54.9468ZM66.8951 54.9468L66.9115 54.8482L66.9033 54.8468H66.8951V54.9468ZM66.9561 54.957L66.9761 54.859L66.9726 54.8584L66.9561 54.957ZM75.6743 52.5756L75.7511 52.6396L75.7512 52.6395L75.6743 52.5756ZM76.8752 50.1365L76.9732 50.1563L76.9732 50.1563L76.8752 50.1365ZM76.6818 47.6228L76.7752 47.5871L76.7751 47.5869L76.6818 47.6228ZM70.1346 43.6809L70.1182 43.7796L70.1219 43.7801L70.1346 43.6809ZM70.1143 43.6775L70.0826 43.7724L70.0901 43.7749L70.0978 43.7762L70.1143 43.6775ZM70.1041 43.6741L70.1357 43.5793L70.1203 43.5741H70.1041V43.6741ZM70.0939 43.6741L70.0623 43.769L70.0777 43.7741H70.0939V43.6741ZM70.0837 43.6708L70.1154 43.5759L70.1 43.5708H70.0837V43.6708ZM70.0736 43.6708L70.0419 43.7656L70.0573 43.7708H70.0736V43.6708ZM70.0634 43.6674L70.095 43.5725L70.0549 43.5591L70.0173 43.5786L70.0634 43.6674ZM43.6608 47.002L43.6252 46.9085L43.6635 47.1019L43.6608 47.002ZM44.7803 47.4972L44.8738 47.4616L44.8735 47.4609L44.7803 47.4972ZM44.2851 48.6167L44.3213 48.7099L44.3214 48.7099L44.2851 48.6167ZM35.0276 53.5051L35.0995 53.5746L35.0996 53.5745L35.0276 53.5051ZM34.5221 54.3938L34.6184 54.3663L34.6166 54.3611L34.5221 54.3938ZM34.5289 54.4176L34.4322 54.4452L34.4362 54.4552L34.5289 54.4176ZM35.7332 55.1299L35.765 55.0351L35.7649 55.0351L35.7332 55.1299ZM50.8222 55.6591L50.8158 55.5594L50.8155 55.5594L50.8222 55.6591ZM51.7415 56.4699L51.8413 56.4635V56.4635L51.7415 56.4699ZM50.9307 57.3892L50.9244 57.2894L50.9241 57.2895L50.9307 57.3892ZM35.1834 56.7718L35.1516 56.8666L35.1516 56.8666L35.1834 56.7718ZM32.9038 55.0044L32.9976 54.9697L32.9974 54.9693L32.9038 55.0044ZM32.8835 54.9501L32.7887 54.9821L32.7898 54.9852L32.8835 54.9501ZM33.7825 52.3041L33.8544 52.3736L33.8544 52.3736L33.7825 52.3041ZM43.6644 47.0019L43.7006 47.0951L43.6617 46.9019L43.6644 47.0019ZM1.33452 49.3857C0.914806 49.3438 0.608237 48.9688 0.647304 48.5481L0.448161 48.5296C0.399031 49.0587 0.784481 49.5317 1.31462 49.5848L1.33452 49.3857ZM0.647236 48.5488C0.689208 48.1291 1.0642 47.8225 1.4849 47.8616L1.5034 47.6624C0.974329 47.6133 0.501243 47.9987 0.448229 48.5289L0.647236 48.5488ZM1.48406 47.8615C2.47678 47.9621 3.62063 47.7324 4.91557 47.1789L4.83696 46.995C3.56064 47.5405 2.45195 47.7586 1.50424 47.6625L1.48406 47.8615ZM4.91554 47.1789C6.27592 46.5978 7.79283 45.6632 9.46238 44.3846L9.34078 44.2259C7.67919 45.4983 6.17691 46.4226 4.83698 46.995L4.91554 47.1789ZM9.47229 44.376L9.47568 44.3726L9.33426 44.2311L9.33087 44.2345L9.47229 44.376ZM9.46497 44.3819L9.47854 44.3717L9.35854 44.2117L9.34497 44.2219L9.46497 44.3819ZM9.48925 44.3624L9.49264 44.359L9.35122 44.2176L9.34783 44.221L9.48925 44.3624ZM9.4844 44.3664L9.50136 44.3528L9.37643 44.1966L9.35946 44.2102L9.4844 44.3664ZM9.4979 44.3555C11.3359 43.0123 13.2395 42.3323 15.2134 42.3156L15.2117 42.1156C13.1897 42.1327 11.2463 42.8301 9.37989 44.194L9.4979 44.3555ZM15.2134 42.3156C17.1644 42.2988 19.1642 42.9355 21.204 44.2336L21.3113 44.0649C19.2465 42.7508 17.2093 42.0984 15.2117 42.1156L15.2134 42.3156ZM21.2098 44.237C24.5792 46.0749 27.8179 47.0104 30.925 47.0377L30.9268 46.8377C27.8595 46.8108 24.6529 45.8873 21.3055 44.0614L21.2098 44.237ZM30.925 47.0377C33.9917 47.065 36.951 46.2075 39.7911 44.4651L39.6865 44.2946C36.8756 46.0192 33.9528 46.8646 30.9268 46.8377L30.925 47.0377ZM39.7988 44.4599C39.8329 44.4343 39.8746 44.4102 39.9192 44.3879L39.8297 44.209C39.7793 44.2342 39.7261 44.2644 39.6788 44.2999L39.7988 44.4599ZM39.9183 44.3884C44.3679 42.2194 47.9786 41.1144 50.7516 41.0672L50.7482 40.8673C47.9314 40.9151 44.2892 42.0353 39.8307 44.2086L39.9183 44.3884ZM50.7515 41.0672C52.2416 41.042 53.4948 41.3104 54.5149 41.8671C55.5341 42.4232 56.3268 43.2705 56.8919 44.4141L57.0712 44.3255C56.4897 43.1486 55.6693 42.2692 54.6107 41.6915C53.553 41.1143 52.2636 40.8416 50.7482 40.8673L50.7515 41.0672ZM56.8952 44.4202C57.4837 45.4283 57.6917 46.3663 57.5198 47.2594C57.3477 48.1537 56.7916 49.0191 55.8198 49.8751L55.952 50.0252C56.9443 49.1511 57.533 48.2491 57.7162 47.2972C57.8997 46.344 57.6735 45.3568 57.0679 44.3194L56.8952 44.4202ZM55.8198 49.875C54.6553 50.8986 52.8427 51.8943 50.3324 52.9105L50.4074 53.0959C52.9247 52.0769 54.7621 51.071 55.9519 50.0253L55.8198 49.875ZM50.3622 53.1029L51.5393 53.1945L51.5548 52.9951L50.3777 52.9035L50.3622 53.1029ZM51.5395 53.1945C53.189 53.3201 54.7335 53.4151 56.1762 53.483L56.1856 53.2833C54.745 53.2155 53.2024 53.1205 51.5547 52.9951L51.5395 53.1945ZM56.176 53.483C56.5992 53.504 56.9234 53.861 56.9054 54.2847L57.1052 54.2932C57.1279 53.7602 56.7194 53.3098 56.1859 53.2833L56.176 53.483ZM56.9054 54.284C56.8844 54.7071 56.5275 55.0314 56.1038 55.0133L56.0952 55.2132C56.6282 55.2358 57.0787 54.8273 57.1052 54.2939L56.9054 54.284ZM56.1042 55.0134C54.5787 54.9422 53.0158 54.8439 51.4256 54.7252L51.4107 54.9246C53.0024 55.0434 54.5672 55.1419 56.0948 55.2131L56.1042 55.0134ZM51.4254 54.7252C49.8524 54.6099 48.1605 54.4607 46.3564 54.2844L46.3369 54.4834C48.1422 54.6599 49.8358 54.8092 51.4108 54.9246L51.4254 54.7252ZM46.3547 54.2842C46.2459 54.2754 46.1445 54.24 46.0533 54.1884L45.9547 54.3624C46.0671 54.426 46.1964 54.4721 46.3386 54.4836L46.3547 54.2842ZM46.004 54.1754H46.0006V54.3754H46.004V54.1754ZM46.0521 54.1896L46.0182 54.1693L45.9153 54.3407L45.9492 54.3611L46.0521 54.1896ZM45.9667 54.155H45.9633V54.355H45.9667V54.155ZM46.0233 54.175L46.0097 54.1648L45.8898 54.3249L45.9034 54.335L46.0233 54.175ZM45.9498 54.1448H45.9464V54.3448H45.9498V54.1448ZM46.0064 54.1648L45.9928 54.1546L45.8728 54.3146L45.8864 54.3248L46.0064 54.1648ZM46.0036 54.164L46.0002 54.1606L45.8586 54.3019L45.862 54.3053L46.0036 54.164ZM45.9894 54.1512L45.9758 54.1411L45.8559 54.3011L45.8694 54.3113L45.9894 54.1512ZM45.9865 54.1504L45.9832 54.147L45.8417 54.2884L45.8451 54.2918L45.9865 54.1504ZM45.9724 54.1377L45.9589 54.1275L45.8389 54.2875L45.8524 54.2977L45.9724 54.1377ZM45.9696 54.1368L45.9662 54.1334L45.8247 54.2748L45.8281 54.2782L45.9696 54.1368ZM45.9555 54.1241L45.9419 54.1139L45.8219 54.274L45.8355 54.2841L45.9555 54.1241ZM45.9526 54.1232L45.9492 54.1198L45.8078 54.2613L45.8112 54.2647L45.9526 54.1232ZM45.9385 54.1105L45.9249 54.1004L45.8049 54.2604L45.8185 54.2705L45.9385 54.1105ZM45.9358 54.1098L45.9324 54.1064L45.7907 54.2476L45.7941 54.251L45.9358 54.1098ZM45.9215 54.097L45.908 54.0868L45.788 54.2468L45.8016 54.257L45.9215 54.097ZM45.9187 54.0961L45.8814 54.0588L45.74 54.2002L45.7773 54.2375L45.9187 54.0961ZM45.8907 54.0695L45.8805 54.0559L45.7205 54.1759L45.7307 54.1895L45.8907 54.0695ZM45.8712 54.0452L45.8373 54.0113L45.6959 54.1527L45.7298 54.1866L45.8712 54.0452ZM45.8466 54.022L45.8364 54.0084L45.6764 54.1284L45.6866 54.142L45.8466 54.022ZM45.8271 53.9977L45.8237 53.9944L45.6823 54.1357L45.6856 54.1391L45.8271 53.9977ZM45.833 54.005L45.8228 53.9914L45.6628 54.1115L45.673 54.125L45.833 54.005ZM45.8135 53.9807L45.8101 53.9773L45.6688 54.1188L45.6721 54.1222L45.8135 53.9807ZM45.8252 53.9966L45.7539 53.8779L45.5824 53.9808L45.6537 54.0995L45.8252 53.9966ZM45.7682 53.9293V53.9259H45.5682V53.9293H45.7682ZM45.7539 53.8745L45.7438 53.8575L45.5723 53.9604L45.5824 53.9774L45.7539 53.8745ZM45.758 53.909V53.9056H45.558V53.909H45.758ZM45.7438 53.8541L45.7336 53.8372L45.5621 53.9401L45.5723 53.9571L45.7438 53.8541ZM45.7478 53.8886V53.8852H45.5478V53.8886H45.7478ZM45.7407 53.8481L45.7339 53.8312L45.5482 53.9054L45.555 53.9224L45.7407 53.8481ZM45.7411 53.8683V53.8649H45.5411V53.8683H45.7411ZM45.7327 53.8248L45.7089 53.7705L45.5257 53.8507L45.5494 53.905L45.7327 53.8248ZM45.7068 53.7659L45.6932 53.7387L45.5143 53.8282L45.5279 53.8553L45.7068 53.7659ZM45.6986 53.7518L45.6749 53.6806L45.4851 53.7439L45.5089 53.8151L45.6986 53.7518ZM45.677 53.688L45.6736 53.6744L45.4796 53.7229L45.483 53.7365L45.677 53.688ZM45.666 53.6539L45.6627 53.6472L45.4838 53.7366L45.4872 53.7434L45.666 53.6539ZM45.6702 53.6676L45.6668 53.654L45.4728 53.7026L45.4762 53.7161L45.6702 53.6676ZM45.6593 53.6336L45.6559 53.6268L45.477 53.7162L45.4804 53.723L45.6593 53.6336ZM45.6634 53.6473L45.6601 53.6337L45.466 53.6822L45.4694 53.6957L45.6634 53.6473ZM45.6525 53.6132L45.6491 53.6064L45.4702 53.6959L45.4736 53.7027L45.6525 53.6132ZM45.6596 53.6512V53.6376H45.4596V53.6512H45.6596ZM45.6491 53.5929L45.6457 53.5861L45.4668 53.6755L45.4702 53.6823L45.6491 53.5929ZM45.6562 53.6308V53.6172H45.4562V53.6308H45.6562ZM45.656 53.6096L45.6526 53.5655L45.4531 53.5808L45.4565 53.6249L45.656 53.6096ZM45.6529 53.5731V53.5324H45.4529V53.5731H45.6529ZM45.6529 53.5324C45.6529 53.5007 45.653 53.4725 45.6556 53.4485L45.4569 53.4264C45.4527 53.4634 45.4529 53.5031 45.4529 53.5324H45.6529ZM45.6559 53.4455C45.6647 53.3367 45.7001 53.2353 45.7518 53.1441L45.5778 53.0455C45.5141 53.1579 45.4681 53.2871 45.4566 53.4294L45.6559 53.4455ZM45.7648 53.0948V53.0914H45.5648V53.0948H45.7648ZM45.7505 53.1429L45.7709 53.109L45.5994 53.0061L45.5791 53.04L45.7505 53.1429ZM45.7852 53.0575V53.0541H45.5852V53.0575H45.7852ZM45.7652 53.1141L45.7753 53.1005L45.6153 52.9805L45.6052 52.9941L45.7652 53.1141ZM45.7953 53.0405V53.0372H45.5953V53.0405H45.7953ZM45.7753 53.0971L45.7855 53.0836L45.6255 52.9636L45.6153 52.9772L45.7753 53.0971ZM45.7762 53.0943L45.7796 53.0909L45.6382 52.9494L45.6348 52.9528L45.7762 53.0943ZM45.7889 53.0802L45.7991 53.0666L45.6391 52.9466L45.6289 52.9602L45.7889 53.0802ZM45.7898 53.0773L45.7932 53.0739L45.6518 52.9325L45.6484 52.9359L45.7898 53.0773ZM45.8025 53.0632L45.8127 53.0496L45.6526 52.9297L45.6425 52.9432L45.8025 53.0632ZM45.8033 53.0604L45.8067 53.057L45.6654 52.9155L45.662 52.9189L45.8033 53.0604ZM45.816 53.0463L45.8262 53.0327L45.6662 52.9127L45.656 52.9263L45.816 53.0463ZM45.8169 53.0434L45.8203 53.04L45.6789 52.8986L45.6755 52.902L45.8169 53.0434ZM45.8296 53.0293L45.8398 53.0157L45.6798 52.8958L45.6696 52.9093L45.8296 53.0293ZM45.8305 53.0265L45.8339 53.0231L45.6925 52.8816L45.6891 52.885L45.8305 53.0265ZM45.8432 53.0123L45.8534 52.9988L45.6934 52.8788L45.6832 52.8923L45.8432 53.0123ZM45.8441 53.0095L45.8814 52.9722L45.74 52.8308L45.7026 52.8681L45.8441 53.0095ZM45.8707 52.9815L45.8842 52.9713L45.7642 52.8113L45.7507 52.8215L45.8707 52.9815ZM45.8949 52.962L45.9289 52.9281L45.7875 52.7866L45.7535 52.8206L45.8949 52.962ZM45.9182 52.9374L45.9317 52.9272L45.8117 52.7672L45.7982 52.7774L45.9182 52.9374ZM45.9424 52.9179L45.9458 52.9145L45.8044 52.7731L45.801 52.7765L45.9424 52.9179ZM45.9351 52.9238L45.9487 52.9136L45.8287 52.7536L45.8151 52.7638L45.9351 52.9238ZM45.9594 52.9043L45.9628 52.9009L45.8213 52.7595L45.818 52.7629L45.9594 52.9043ZM45.9435 52.916L46.0623 52.8447L45.9594 52.6732L45.8406 52.7445L45.9435 52.916ZM46.0108 52.859H46.0142V52.659H46.0108V52.859ZM46.0657 52.8447L46.0826 52.8346L45.9797 52.6631L45.9628 52.6732L46.0657 52.8447ZM46.0312 52.8488H46.0346V52.6488H46.0312V52.8488ZM46.086 52.8346L46.103 52.8244L46.0001 52.6529L45.9831 52.6631L46.086 52.8346ZM46.0515 52.8386H46.0549V52.6386H46.0515V52.8386ZM46.0921 52.8315L46.109 52.8247L46.0347 52.639L46.0178 52.6458L46.0921 52.8315ZM46.0719 52.8318H46.0753V52.6318H46.0719V52.8318ZM46.1154 52.8235L46.1696 52.7997L46.0895 52.6165L46.0352 52.6402L46.1154 52.8235ZM46.1743 52.7975L46.2014 52.784L46.112 52.6051L46.0848 52.6187L46.1743 52.7975ZM46.1883 52.7894L46.2392 52.7724L46.1759 52.5827L46.1251 52.5997L46.1883 52.7894ZM46.2392 52.7724C50.4525 51.368 53.2824 50.0569 54.8053 48.7158L54.6731 48.5657C53.1836 49.8773 50.3892 51.1783 46.1759 52.5827L46.2392 52.7724ZM54.8054 48.7158C55.4306 48.1646 55.8097 47.6009 55.9361 47.0096C56.063 46.4163 55.9322 45.8109 55.5686 45.1846L55.3957 45.285C55.7411 45.88 55.8545 46.4348 55.7406 46.9678C55.6262 47.5027 55.2793 48.0313 54.6731 48.5657L54.8054 48.7158ZM55.5716 45.1901L55.5207 45.0883L55.3418 45.1778L55.3927 45.2796L55.5716 45.1901ZM55.5209 45.0888C55.1 44.2365 54.4909 43.5996 53.6951 43.1817C52.9005 42.7644 51.9253 42.5684 50.7753 42.5872L50.7786 42.7872C51.9049 42.7687 52.8447 42.9611 53.6021 43.3588C54.3582 43.7559 54.9382 44.3606 55.3416 45.1773L55.5209 45.0888ZM50.7752 42.5872C48.2291 42.6317 44.8343 43.6912 40.6038 45.7522L40.6914 45.932C44.9144 43.8746 48.2772 42.8309 50.7787 42.7872L50.7752 42.5872ZM40.5953 45.7568C37.5026 47.6543 34.2744 48.588 30.9125 48.5577L30.9107 48.7577C34.3131 48.7883 37.5779 47.8428 40.6999 45.9273L40.5953 45.7568ZM30.9125 48.5577C27.5568 48.5273 24.0787 47.5325 20.487 45.5745L20.3913 45.7501C24.0055 47.7204 27.5157 48.727 30.9107 48.7577L30.9125 48.5577ZM20.4839 45.5728L20.3957 45.5287L20.3062 45.7076L20.3944 45.7517L20.4839 45.5728ZM20.4134 45.5401L20.3965 45.5265L20.2715 45.6827L20.2885 45.6963L20.4134 45.5401ZM20.3876 45.5202C18.6085 44.3899 16.8869 43.8252 15.2277 43.839L15.2294 44.039C16.8404 44.0256 18.5246 44.5736 20.2804 45.689L20.3876 45.5202ZM15.2277 43.839C13.585 43.8527 11.9809 44.4351 10.417 45.5747L10.5348 45.7363C12.0715 44.6166 13.6358 44.0523 15.2294 44.039L15.2277 43.839ZM10.4134 45.5774L10.3965 45.591L10.5214 45.7472L10.5384 45.7336L10.4134 45.5774ZM10.3989 45.5891L10.3854 45.5993L10.5054 45.7593L10.5189 45.7491L10.3989 45.5891ZM10.3844 45.6C8.61806 46.9569 6.9902 47.9492 5.52101 48.5794L5.59985 48.7632C7.0887 48.1246 8.73102 47.1223 10.5063 45.7586L10.3844 45.6ZM5.52133 48.5792C3.97472 49.2363 2.58068 49.4991 1.3401 49.3757L1.32031 49.5748C2.60357 49.7024 4.03193 49.4293 5.59953 48.7633L5.52133 48.5792ZM1.24308 49.4262L1.23744 49.4362L1.4117 49.5343L1.41733 49.5243L1.24308 49.4262ZM40.9333 2.75221C40.8115 2.66625 40.6799 2.59622 40.5452 2.55509L40.4868 2.74635C40.5964 2.77985 40.709 2.83873 40.8179 2.9156L40.9333 2.75221ZM40.5472 2.55569C40.3334 2.48566 40.1101 2.47753 39.9104 2.53029L39.9615 2.72366C40.1213 2.68143 40.3052 2.68687 40.4849 2.74575L40.5472 2.55569ZM39.9101 2.53038C39.7001 2.58661 39.5012 2.70933 39.3338 2.88759L39.4796 3.02448C39.6244 2.87028 39.7918 2.76911 39.9618 2.72357L39.9101 2.53038ZM39.3338 2.88757C39.2203 3.00849 39.1269 3.15297 39.0459 3.31499L39.2248 3.40444C39.2998 3.25438 39.3829 3.12747 39.4796 3.0245L39.3338 2.88757ZM39.1753 3.45138C39.3064 3.39425 39.4359 3.34116 39.5713 3.29491L39.5067 3.10564C39.364 3.15437 39.2289 3.20984 39.0954 3.26804L39.1753 3.45138ZM39.5732 3.29426C39.9783 3.14694 40.4175 3.02621 40.8976 2.93556L40.8605 2.73904C40.3703 2.83158 39.9207 2.95508 39.5049 3.1063L39.5732 3.29426ZM40.9495 2.7664L40.9461 2.76301L40.8051 2.90481L40.8085 2.9082L40.9495 2.7664ZM37.2406 4.75577C37.2206 3.46096 37.6176 2.47984 38.2111 1.84368L38.0648 1.70724C37.4304 2.38728 37.02 3.42126 37.0407 4.75886L37.2406 4.75577ZM38.2113 1.84341C38.5819 1.44329 39.0369 1.17521 39.5204 1.04783L39.4694 0.854428C38.9487 0.991633 38.4607 1.27991 38.0646 1.70751L38.2113 1.84341ZM39.52 1.04791C40.0104 0.920422 40.5302 0.9334 41.0311 1.09707L41.0932 0.906959C40.5559 0.731392 39.9971 0.717237 39.4697 0.854344L39.52 1.04791ZM41.0309 1.09701C41.7666 1.33895 42.4701 1.91672 42.9651 2.85017L43.1418 2.75646C42.6258 1.78346 41.8843 1.16713 41.0934 0.907019L41.0309 1.09701ZM43.0207 2.89779C45.1317 3.63059 46.643 4.86582 47.5732 6.28438L47.7405 6.17471C46.7844 4.71667 45.236 3.45509 43.0863 2.70885L43.0207 2.89779ZM47.5731 6.2842C48.1456 7.16136 48.5032 8.10798 48.6469 9.05009L48.8446 9.01994C48.6965 8.04872 48.3282 7.07523 47.7406 6.17489L47.5731 6.2842ZM48.6469 9.05022C48.794 10.0061 48.727 10.9678 48.4568 11.8484L48.648 11.9071C48.9274 10.9966 48.9961 10.0043 48.8446 9.01981L48.6469 9.05022ZM48.4569 11.8483C48.0834 13.0587 47.3201 14.1387 46.193 14.9023L46.3052 15.0679C47.4712 14.2779 48.2615 13.1597 48.648 11.9072L48.4569 11.8483ZM46.1976 14.8993L46.1807 14.9095L46.2836 15.081L46.3005 15.0708L46.1976 14.8993ZM46.1721 14.9153L46.1178 14.956L46.2378 15.116L46.2921 15.0753L46.1721 14.9153ZM46.1231 14.9522C45.6909 15.2346 45.2826 15.6299 44.9007 16.1322L45.06 16.2532C45.4312 15.765 45.8234 15.3869 46.2325 15.1197L46.1231 14.9522ZM44.9009 16.1321C44.502 16.6547 44.1252 17.2957 43.7836 18.0406L43.9654 18.1239C44.3021 17.3897 44.6717 16.762 45.0598 16.2534L44.9009 16.1321ZM43.7796 18.0506L43.7728 18.071L43.9626 18.1342L43.9694 18.1139L43.7796 18.0506ZM43.7749 18.0655L43.7681 18.0824L43.9538 18.1567L43.9605 18.1398L43.7749 18.0655ZM43.7609 18.1196V18.123H43.9609V18.1196H43.7609ZM43.7752 18.0715L43.7345 18.1394L43.906 18.2423L43.9467 18.1744L43.7752 18.0715ZM43.7495 18.1201L43.7461 18.1235L43.8875 18.2649L43.8909 18.2615L43.7495 18.1201ZM43.724 18.1571L43.7172 18.174L43.9029 18.2483L43.9097 18.2313L43.724 18.1571ZM43.7394 18.1404L43.736 18.1438L43.8773 18.2853L43.8807 18.2819L43.7394 18.1404ZM43.7138 18.1774L43.707 18.1944L43.8927 18.2686L43.8995 18.2517L43.7138 18.1774ZM43.7291 18.1608L43.7258 18.1642L43.8672 18.3056L43.8706 18.3022L43.7291 18.1608ZM43.7151 18.1768L43.6812 18.2243L43.8439 18.3405L43.8778 18.293L43.7151 18.1768ZM43.6918 18.2117L43.6884 18.2151L43.8299 18.3565L43.8333 18.3531L43.6918 18.2117ZM43.6804 18.2242C43.6254 18.2945 43.5623 18.3543 43.4881 18.4017L43.5959 18.5702C43.6914 18.5091 43.7708 18.4331 43.8379 18.3474L43.6804 18.2242ZM43.4906 18.4002L43.4567 18.4205L43.5596 18.592L43.5935 18.5717L43.4906 18.4002ZM43.4374 18.4356L43.434 18.439L43.5755 18.5804L43.5789 18.577L43.4374 18.4356ZM43.46 18.4202L43.4464 18.427L43.5359 18.6059L43.5494 18.5991L43.46 18.4202ZM43.4437 18.4284C43.3655 18.4706 43.2841 18.4978 43.1988 18.513L43.234 18.7099C43.3387 18.6912 43.4404 18.6574 43.5386 18.6045L43.4437 18.4284ZM43.1968 18.5134L43.1798 18.5168L43.219 18.7129L43.236 18.7095L43.1968 18.5134ZM43.1994 18.5149H43.1926V18.7149H43.1994V18.5149ZM43.1747 18.5165L43.1374 18.5233L43.1732 18.72L43.2105 18.7132L43.1747 18.5165ZM43.1553 18.5216H43.1485V18.7216H43.1553V18.5216ZM43.1453 18.5217L43.0401 18.5251L43.0466 18.725L43.1518 18.7216L43.1453 18.5217ZM43.0434 18.525H42.9586V18.725H43.0434V18.525ZM42.9828 18.528L42.9692 18.5246L42.9207 18.7187L42.9343 18.722L42.9828 18.528ZM42.945 18.5216H42.9382V18.7216H42.945V18.5216ZM42.9625 18.5246L42.9489 18.5212L42.9004 18.7153L42.9139 18.7187L42.9625 18.5246ZM42.9694 18.5288L42.9626 18.5254L42.8731 18.7043L42.8799 18.7077L42.9694 18.5288ZM42.9343 18.5162L42.8936 18.5094L42.8607 18.7067L42.9014 18.7135L42.9343 18.5162ZM42.9088 18.5132L42.8274 18.4861L42.7641 18.6758L42.8455 18.7029L42.9088 18.5132ZM42.8405 18.4915L42.7997 18.4711L42.7103 18.65L42.751 18.6704L42.8405 18.4915ZM42.755 18.4606H42.7482V18.6606H42.755V18.4606ZM42.7854 18.4677L42.7684 18.4609L42.6941 18.6466L42.7111 18.6534L42.7854 18.4677ZM42.7313 18.4538H42.7279V18.6538H42.7313V18.4538ZM42.765 18.4609L42.7481 18.4542L42.6738 18.6399L42.6907 18.6466L42.765 18.4609ZM42.7109 18.447H42.7075V18.647H42.7109V18.447ZM42.759 18.4613L42.6911 18.4206L42.5882 18.5921L42.6561 18.6328L42.759 18.4613ZM42.7104 18.4356L42.707 18.4322L42.5656 18.5736L42.569 18.577L42.7104 18.4356ZM42.6734 18.4101L42.6565 18.4033L42.5822 18.589L42.5991 18.5958L42.6734 18.4101ZM42.69 18.4254L42.6866 18.422L42.5452 18.5634L42.5486 18.5668L42.69 18.4254ZM42.6531 18.3999L42.6361 18.3931L42.5618 18.5788L42.5788 18.5856L42.6531 18.3999ZM42.6697 18.4152L42.6663 18.4118L42.5249 18.5533L42.5283 18.5567L42.6697 18.4152ZM42.6537 18.4012L42.6062 18.3673L42.49 18.53L42.5375 18.5639L42.6537 18.4012ZM42.6188 18.378L42.6154 18.3746L42.474 18.5159L42.4773 18.5193L42.6188 18.378ZM42.6041 18.3648C42.5358 18.3143 42.4769 18.2524 42.4297 18.1757L42.2594 18.2805C42.3208 18.3803 42.3976 18.4609 42.4853 18.5257L42.6041 18.3648ZM42.4289 18.1743C42.3008 17.9736 42.1323 17.7434 41.9208 17.4773L41.7642 17.6017C41.9733 17.8648 42.1373 18.0891 42.2602 18.2819L42.4289 18.1743ZM41.9222 17.4791C41.8255 17.3513 41.7043 17.2093 41.5734 17.0516L41.4195 17.1793C41.5533 17.3405 41.6696 17.4767 41.7628 17.5998L41.9222 17.4791ZM41.4526 17.0256C39.0982 18.174 37.3291 18.5234 36.1245 18.1164L36.0605 18.3059C37.3459 18.7402 39.1795 18.3568 41.5403 17.2053L41.4526 17.0256ZM36.1245 18.1164C35.3745 17.8626 34.8441 17.3738 34.5283 16.6449C34.2108 15.9118 34.1083 14.9301 34.2312 13.6923L34.0322 13.6726C33.9075 14.928 34.0085 15.9479 34.3448 16.7243C34.683 17.505 35.2567 18.0339 36.0604 18.3059L36.1245 18.1164ZM34.2312 13.6924C34.2732 13.2727 34.6482 12.9661 35.0689 13.0052L35.0874 12.806C34.5583 12.7569 34.0852 13.1424 34.0322 13.6725L34.2312 13.6924ZM35.0682 13.0051C35.4879 13.0471 35.7945 13.4221 35.7554 13.8428L35.9546 13.8613C36.0037 13.3322 35.6182 12.8591 35.0881 12.8061L35.0682 13.0051ZM35.7555 13.8422C35.6769 14.6377 35.702 15.2741 35.8387 15.7448C35.9762 16.2185 36.2306 16.5352 36.6135 16.664L36.6773 16.4745C36.375 16.3727 36.1562 16.1212 36.0307 15.6891C35.9045 15.2541 35.877 14.6471 35.9545 13.8619L35.7555 13.8422ZM36.6136 16.6641C37.0809 16.821 37.7071 16.7838 38.4804 16.5716C39.2561 16.3587 40.1925 15.966 41.2882 15.3961L41.1959 15.2186C40.1068 15.7851 39.1842 16.171 38.4274 16.3787C37.6682 16.5871 37.0885 16.6126 36.6772 16.4745L36.6136 16.6641ZM41.2964 15.3913C41.6117 15.1871 42.0347 15.2383 42.2897 15.5293L42.4401 15.3975C42.1184 15.0304 41.5847 14.9663 41.1877 15.2234L41.2964 15.3913ZM42.2898 15.5294C42.4858 15.7525 42.6785 15.9789 42.8643 16.2053L43.0189 16.0784C42.8316 15.8502 42.6375 15.6221 42.44 15.3974L42.2898 15.5294ZM43.0278 16.1926C43.2397 15.8326 43.4614 15.5002 43.6893 15.2019L43.5304 15.0805C43.297 15.3859 43.0709 15.7251 42.8554 16.0911L43.0278 16.1926ZM43.6894 15.2018C44.1825 14.5543 44.7172 14.0404 45.2894 13.6679L45.1802 13.5003C44.5854 13.8876 44.0345 14.4186 43.5303 15.0806L43.6894 15.2018ZM45.2838 13.6712L45.3381 13.6407L45.2401 13.4664L45.1858 13.4969L45.2838 13.6712ZM45.3453 13.6363C46.1686 13.0769 46.7283 12.2844 47.0027 11.3985L46.8117 11.3393C46.5502 12.1835 46.0175 12.9378 45.2329 13.4708L45.3453 13.6363ZM47.0028 11.3983C47.2075 10.7321 47.2593 10.0045 47.1485 9.2844L46.9509 9.31481C47.0572 10.006 47.0072 10.7031 46.8116 11.3395L47.0028 11.3983ZM47.1485 9.28429C47.0343 8.54731 46.7543 7.80787 46.3056 7.12453L46.1384 7.2343C46.5717 7.89425 46.8412 8.60678 46.9509 9.31491L47.1485 9.28429ZM46.3055 7.12439C45.5184 5.93 44.2167 4.89251 42.3756 4.2925L42.3136 4.48265C44.1157 5.06995 45.3786 6.08128 46.1385 7.23443L46.3055 7.12439ZM42.3363 4.28792C41.4716 4.35969 40.7299 4.51034 40.109 4.73452L40.1769 4.92263C40.7774 4.70582 41.5011 4.55793 42.3529 4.48723L42.3363 4.28792ZM40.1089 4.73453C39.4975 4.95561 38.9936 5.2573 38.589 5.63398L38.7253 5.78036C39.1077 5.42432 39.5875 5.13575 40.1769 4.92261L40.1089 4.73453ZM38.5931 5.63034L38.5728 5.64731L38.7008 5.80095L38.7212 5.78399L38.5931 5.63034ZM38.5661 5.65342L38.5593 5.6602L38.7007 5.80162L38.7075 5.79484L38.5661 5.65342ZM38.5675 5.65283L38.5506 5.6664L38.6755 5.82257L38.6925 5.809L38.5675 5.65283ZM38.5423 5.67377L38.5355 5.68056L38.677 5.82198L38.6838 5.81519L38.5423 5.67377ZM38.537 5.6791C37.9365 6.2552 37.539 7.03015 37.295 7.9789L37.4887 8.02872C37.7263 7.10478 38.1091 6.36679 38.6755 5.82343L38.537 5.6791ZM37.2951 7.97866C37.0238 9.02234 36.9288 10.291 36.9458 11.7636L37.1458 11.7613C37.1289 10.2962 37.2239 9.04781 37.4886 8.02896L37.2951 7.97866ZM36.9458 11.7632C36.9488 12.1865 36.6097 12.5313 36.1869 12.5343L36.1883 12.7343C36.722 12.7305 37.1496 12.2951 37.1458 11.7618L36.9458 11.7632ZM36.1869 12.5343C35.7636 12.5373 35.4187 12.1982 35.4157 11.7753L35.2158 11.7767C35.2195 12.3105 35.6549 12.7381 36.1883 12.7343L36.1869 12.5343ZM35.4157 11.775C35.3988 10.1643 35.5073 8.76984 35.8128 7.59469L35.6193 7.54436C35.3074 8.74385 35.1987 10.1582 35.2158 11.7771L35.4157 11.775ZM35.8129 7.59447C36.0981 6.48714 36.5563 5.56326 37.2316 4.82476L37.084 4.68979C36.382 5.4575 35.9107 6.41291 35.6192 7.54458L35.8129 7.59447ZM37.1576 4.65728L37.1404 4.65731L37.1409 4.85731L37.158 4.85728L37.1576 4.65728ZM44.5527 30.1082C45.0465 32.9752 46.2863 34.3236 48.0682 36.265L48.2155 36.1297C46.4356 34.1904 45.2329 32.8792 44.7498 30.0743L44.5527 30.1082ZM48.0655 36.262L48.1028 36.3061L48.2555 36.1769L48.2182 36.1328L48.0655 36.262ZM48.1055 36.3091C48.8584 37.1298 49.7044 38.057 50.6519 39.2515L50.8086 39.1272C49.8564 37.9267 49.0062 36.995 48.2529 36.1739L48.1055 36.3091ZM50.6518 39.2514C50.9126 39.5811 50.8556 40.0644 50.5257 40.3253L50.6498 40.4822C51.0661 40.1529 51.1381 39.5439 50.8086 39.1273L50.6518 39.2514ZM50.5257 40.3253C50.196 40.5861 49.7127 40.5292 49.4518 40.1993L49.2949 40.3233C49.6241 40.7397 50.2332 40.8117 50.6498 40.4822L50.5257 40.3253ZM49.4515 40.199L49.1598 39.8326L49.0033 39.9572L49.2951 40.3236L49.4515 40.199ZM48.9842 39.9176C49.0351 40.1364 48.9871 40.3793 48.8342 40.5681L48.9897 40.694C49.1828 40.4554 49.2434 40.1488 49.179 39.8722L48.9842 39.9176ZM48.8339 40.5686C48.5702 40.8981 48.0871 40.9497 47.7566 40.6853L47.6317 40.8414C48.0474 41.1741 48.6566 41.1103 48.99 40.6935L48.8339 40.5686ZM47.7567 40.6853C45.5927 38.9514 43.9508 37.3391 42.8244 35.8553L42.6651 35.9762C43.8049 37.4776 45.4602 39.1015 47.6316 40.8414L47.7567 40.6853ZM42.8245 35.8554C41.6542 34.3107 41.0312 32.8771 40.9381 31.5564L40.7386 31.5705C40.8354 32.9433 41.4811 34.4134 42.6651 35.9762L42.8245 35.8554ZM40.937 31.547L40.9336 31.5266L40.7363 31.5595L40.7397 31.5799L40.937 31.547ZM40.9339 31.5289L40.9305 31.5052L40.7325 31.5335L40.7359 31.5572L40.9339 31.5289ZM40.9315 31.5193V31.5092H40.7315V31.5193H40.9315ZM40.9313 31.5022C40.7849 29.4018 40.3998 27.6988 39.7751 26.3945L39.5947 26.4809C40.2048 27.7546 40.5864 29.4303 40.7318 31.5161L40.9313 31.5022ZM39.7751 26.3945C39.1875 25.1677 38.3861 24.2973 37.3644 23.7969L37.2765 23.9765C38.2496 24.4531 39.0222 25.2856 39.5947 26.4809L39.7751 26.3945ZM37.3646 23.7969C36.9862 23.6107 36.8275 23.1547 37.0134 22.7738L36.8337 22.686C36.599 23.1668 36.7998 23.7419 37.2763 23.9764L37.3646 23.7969ZM37.0133 22.7741C37.1995 22.3957 37.6556 22.2369 38.0364 22.4229L38.1242 22.2432C37.6435 22.0084 37.0683 22.2093 36.8338 22.6858L37.0133 22.7741ZM38.0363 22.4228C39.37 23.0763 40.4135 24.181 41.1551 25.7345L41.3356 25.6483C40.5777 24.0606 39.5045 22.9195 38.1243 22.2432L38.0363 22.4228ZM41.1551 25.7346C41.8604 27.2055 42.2961 29.0885 42.4584 31.3773L42.6579 31.3631C42.4945 29.0586 42.055 27.1489 41.3355 25.6482L41.1551 25.7346ZM42.4595 31.3866L42.4629 31.407L42.6602 31.3741L42.6568 31.3537L42.4595 31.3866ZM42.4615 31.3905V31.4482H42.6615V31.3905H42.4615ZM42.4617 31.455C42.5315 32.477 43.0669 33.6389 44.0457 34.9314L44.2051 34.8107C43.2366 33.5318 42.7272 32.4073 42.6613 31.4414L42.4617 31.455ZM44.0457 34.9315C45.0461 36.2495 46.5011 37.6901 48.4044 39.2399L48.5307 39.0848C46.6346 37.5408 45.1925 36.1115 44.205 34.8106L44.0457 34.9315ZM48.5436 39.0974C47.986 38.4445 47.459 37.87 46.974 37.3409L46.8266 37.4761C47.3118 38.0053 47.8365 38.5775 48.3915 39.2273L48.5436 39.0974ZM46.971 37.3378L46.9303 37.2971L46.7889 37.4385L46.8296 37.4792L46.971 37.3378ZM46.9333 37.3002C44.9506 35.138 43.608 33.6738 43.0366 30.3592L42.8395 30.3932C43.4214 33.7684 44.7995 35.2691 46.7859 37.4354L46.9333 37.3002ZM43.0367 30.3598L43.0333 30.3394L42.8361 30.3723L42.8395 30.3927L43.0367 30.3598ZM43.0328 30.3363L43.0294 30.3193L42.8332 30.3585L42.8366 30.3755L43.0328 30.3363ZM43.0313 30.3389V30.3355H42.8313V30.3389H43.0313ZM43.0299 30.3191L43.0266 30.2988L42.8293 30.3316L42.8327 30.352L43.0299 30.3191ZM43.0279 30.3152V30.3118H42.8279V30.3152H43.0279ZM43.0266 30.2953L43.0232 30.275L42.8259 30.3079L42.8293 30.3282L43.0266 30.2953ZM43.0245 30.2914V30.288H42.8245V30.2914H43.0245ZM43.0226 30.2684L43.0192 30.2514L42.8231 30.2907L42.8265 30.3077L43.0226 30.2684ZM43.0211 30.2711V30.2677H42.8211V30.2711H43.0211ZM43.0198 30.2512L43.0164 30.2309L42.8191 30.2638L42.8225 30.2841L43.0198 30.2512ZM43.0177 30.2473V30.227H42.8177V30.2473H43.0177ZM43.0175 30.2209C42.932 28.8245 42.5966 27.4729 42.0186 26.1732L41.8358 26.2545C42.4044 27.533 42.7339 28.8612 42.8179 30.2331L43.0175 30.2209ZM42.0185 26.1732C41.4303 24.8531 40.5864 23.5757 39.4915 22.3512L39.3424 22.4845C40.4253 23.6956 41.2571 24.9558 41.8359 26.2546L42.0185 26.1732ZM39.4914 22.3512C39.2094 22.0362 39.2364 21.5532 39.5514 21.2712L39.4181 21.1221C39.0208 21.4777 38.9866 22.0872 39.3424 22.4846L39.4914 22.3512ZM39.5514 21.2712C39.8665 20.9892 40.3494 21.0161 40.6314 21.3312L40.7805 21.1978C40.4249 20.8005 39.8154 20.7665 39.4181 21.1221L39.5514 21.2712ZM40.6313 21.3311C41.8363 22.6813 42.7633 24.0873 43.4133 25.5489L43.596 25.4676C42.9366 23.9848 41.9976 22.5616 40.7806 21.1979L40.6313 21.3311ZM43.4134 25.5491C44.0666 27.0105 44.4403 28.5255 44.5447 30.0945L44.7442 30.0812C44.6383 28.4886 44.2589 26.9505 43.5959 25.4675L43.4134 25.5491ZM44.5999 30.1774L44.6066 30.1807L44.6958 30.0017L44.6891 29.9984L44.5999 30.1774ZM23.2336 25.129C22.9435 22.0683 23.5107 20.0538 24.5291 18.5351C25.5507 17.0115 27.032 15.9768 28.5986 14.8844L28.4842 14.7204C26.9231 15.8089 25.409 16.8638 24.363 18.4237C23.3137 19.9886 22.7411 22.0516 23.0345 25.1479L23.2336 25.129ZM28.5987 14.8844C30.1133 13.8271 31.7162 12.7084 32.8984 10.9745L32.7331 10.8618C31.5746 12.561 30.0023 13.6607 28.4842 14.7204L28.5987 14.8844ZM32.8984 10.9744C33.1352 10.6268 33.6157 10.5365 33.9637 10.7735L34.0763 10.6082C33.6374 10.3093 33.0323 10.4225 32.7331 10.8619L32.8984 10.9744ZM33.9637 10.7735C34.3114 11.0103 34.4017 11.4908 34.1647 11.8388L34.33 11.9514C34.6289 11.5125 34.5157 10.9074 34.0763 10.6082L33.9637 10.7735ZM34.1647 11.8388C32.833 13.7926 31.1211 14.9875 29.4747 16.1384L29.5893 16.3023C31.2333 15.1531 32.9749 13.9395 34.3299 11.9514L34.1647 11.8388ZM29.4748 16.1383C28.1308 17.0761 26.8256 17.9858 25.9213 19.3125C25.0136 20.6443 24.5152 22.3868 24.7578 24.9817L24.9569 24.9631C24.7178 22.4052 25.21 20.7113 26.0866 19.4251C26.9667 18.1339 28.2396 17.244 29.5892 16.3024L29.4748 16.1383ZM24.7584 24.9866L24.7618 25.0103L24.9598 24.982L24.9564 24.9583L24.7584 24.9866ZM24.7618 25.0105C25.2246 28.2059 24.9808 31.1131 24.0307 33.728L24.2186 33.7963C25.1817 31.1458 25.4265 28.2046 24.9597 24.9818L24.7618 25.0105ZM24.0307 33.7279C23.0772 36.3491 21.4158 38.6691 19.0528 40.6809L19.1824 40.8332C21.5687 38.8015 23.252 36.4536 24.2186 33.7963L24.0307 33.7279ZM19.0532 40.6806C18.7286 40.9541 18.2456 40.9146 17.9729 40.5909L17.8199 40.7197C18.1645 41.1288 18.7738 41.1775 19.182 40.8336L19.0532 40.6806ZM17.9729 40.5909C17.6995 40.2663 17.7389 39.7833 18.0626 39.5106L17.9338 39.3576C17.5247 39.7022 17.4761 40.3116 17.8199 40.7197L17.9729 40.5909ZM18.0629 39.5103C20.2184 37.6788 21.7323 35.5752 22.5904 33.206L22.4024 33.1379C21.5575 35.4704 20.0659 37.546 17.9334 39.3579L18.0629 39.5103ZM22.5904 33.2061C23.4552 30.8304 23.6693 28.1673 23.2433 25.2264L23.0454 25.2551C23.4675 28.1693 23.2541 30.7983 22.4024 33.1377L22.5904 33.2061ZM23.2441 25.2338L23.2373 25.1355L23.0378 25.1492L23.0446 25.2476L23.2441 25.2338ZM23.2117 25.0752L23.2081 25.0713L23.0599 25.2056L23.0634 25.2095L23.2117 25.0752ZM35.3989 29.6989C35.3749 29.2751 35.6962 28.9124 36.1189 28.8884L36.1075 28.6887C35.5736 28.7191 35.169 29.1773 35.1992 29.7102L35.3989 29.6989ZM36.1189 28.8884C36.5426 28.8644 36.9053 29.1858 36.9293 29.6084L37.129 29.5971C37.0986 29.0631 36.6405 28.6585 36.1075 28.6887L36.1189 28.8884ZM36.9293 29.6089C37.071 31.9118 37.6489 33.4228 38.4517 34.5352C39.2527 35.6451 40.2727 36.3502 41.277 37.0463L41.3909 36.8819C40.3836 36.1837 39.392 35.4963 38.6139 34.4181C37.8375 33.3424 37.2688 31.8699 37.129 29.5966L36.9293 29.6089ZM41.277 37.0463C42.4246 37.8408 43.5609 38.6294 44.4961 39.9165L44.6579 39.7989C43.7002 38.4808 42.5365 37.675 41.3909 36.8819L41.277 37.0463ZM44.4962 39.9166C44.7453 40.2587 44.6703 40.7355 44.3282 40.9845L44.4459 41.1462C44.8773 40.8321 44.9719 40.2302 44.6579 39.7989L44.4962 39.9166ZM44.3282 40.9845C43.9861 41.2336 43.5093 41.1586 43.2603 40.8165L43.0986 40.9342C43.4126 41.3656 44.0146 41.4603 44.4459 41.1462L44.3282 40.9845ZM43.2603 40.8165C42.4753 39.7389 41.4296 39.0175 40.4073 38.3067L40.2932 38.4709C41.3199 39.1848 42.3367 39.8882 43.0986 40.9343L43.2603 40.8165ZM40.4072 38.3066C39.2252 37.488 38.0597 36.6802 37.1451 35.4067C36.2322 34.1356 35.5642 32.3925 35.3989 29.6984L35.1992 29.7106C35.3664 32.434 36.0434 34.2155 36.9827 35.5234C37.9203 36.8289 39.1143 37.6545 40.2933 38.471L40.4072 38.3066ZM34.0178 35.7193C34.2755 35.3867 34.7585 35.3265 35.0915 35.5875L35.2148 35.4301C34.7948 35.1008 34.1855 35.1763 33.8597 35.5968L34.0178 35.7193ZM35.0919 35.5878C35.4245 35.8455 35.4847 36.3285 35.2237 36.6615L35.3811 36.7849C35.7104 36.3648 35.6349 35.7555 35.2144 35.4297L35.0919 35.5878ZM35.2236 36.6616C34.3189 37.8189 33.6451 39.012 33.2035 40.2342L33.3916 40.3021C33.8252 39.1022 34.4879 37.9275 35.3812 36.7848L35.2236 36.6616ZM33.2035 40.2342C32.7652 41.4498 32.5563 42.7033 32.57 43.9906L32.77 43.9885C32.7565 42.7247 32.9615 41.495 33.3916 40.3021L33.2035 40.2342ZM32.57 43.991C32.576 44.4134 32.2374 44.7588 31.8137 44.7648L31.8165 44.9648C32.3494 44.9572 32.7775 44.5223 32.77 43.9881L32.57 43.991ZM31.8137 44.7648C31.3912 44.7708 31.0459 44.4322 31.0399 44.0085L30.8399 44.0113C30.8475 44.5442 31.2824 44.9723 31.8165 44.9648L31.8137 44.7648ZM31.0399 44.0088C31.0231 42.5383 31.2653 41.105 31.7633 39.7219L31.5752 39.6542C31.0691 41.0597 30.8228 42.5167 30.8399 44.011L31.0399 44.0088ZM31.7634 39.7219C32.258 38.3455 33.0123 37.0081 34.0175 35.723L33.86 35.5998C32.8432 36.8997 32.0778 38.2556 31.5751 39.6542L31.7634 39.7219ZM34.0387 35.6619L34.0387 35.6586L33.8387 35.6576L33.8387 35.6609L34.0387 35.6619ZM70.0732 43.5721C68.0139 43.2312 66.7458 43.7951 65.4738 44.3631L65.5553 44.5457C66.8208 43.9806 68.0426 43.4386 70.0405 43.7694L70.0732 43.5721ZM65.4739 44.363C64.5692 44.7653 63.6651 45.167 62.5325 45.3496C61.4013 45.5319 60.0366 45.4962 58.2162 45.0124L58.1648 45.2057C60.0081 45.6956 61.4014 45.7345 62.5643 45.547C63.7258 45.3598 64.6518 44.9474 65.5552 44.5457L65.4739 44.363ZM58.2161 45.0124C57.8078 44.9043 57.5619 44.4839 57.6698 44.0762L57.4764 44.0251C57.3401 44.5402 57.6505 45.0696 58.1649 45.2058L58.2161 45.0124ZM57.6698 44.0762C57.7779 43.6679 58.1983 43.422 58.606 43.5299L58.6571 43.3366C58.142 43.2002 57.6126 43.5106 57.4764 44.0251L57.6698 44.0762ZM58.6059 43.5299C60.1592 43.9417 61.3362 43.9738 62.3201 43.8148C63.3026 43.656 64.087 43.3072 64.8496 42.9683L64.7684 42.7855C64.0044 43.125 63.2419 43.4632 62.2882 43.6174C61.336 43.7713 60.1875 43.7423 58.6572 43.3366L58.6059 43.5299ZM64.8495 42.9683C66.3618 42.2985 67.8282 41.6473 70.3389 42.0664L70.3718 41.8691C67.8009 41.44 66.2889 42.112 64.7685 42.7855L64.8495 42.9683ZM70.339 42.0664L70.3593 42.0698L70.3922 41.8725L70.3718 41.8691L70.339 42.0664ZM70.3629 42.0703C74.8157 42.6471 77.2976 44.6832 78.2069 47.0447L78.3935 46.9728C77.4506 44.5238 74.8915 42.4553 70.3886 41.872L70.3629 42.0703ZM78.2067 47.0443C78.6271 48.1486 78.7041 49.3201 78.4769 50.4595L78.673 50.4986C78.9072 49.3245 78.8282 48.1146 78.3937 46.9732L78.2067 47.0443ZM78.477 50.4593C78.2497 51.5854 77.7214 52.6762 76.9309 53.6242L77.0845 53.7522C77.8952 52.7801 78.4389 51.6592 78.673 50.4989L78.477 50.4593ZM76.931 53.6241C74.9624 55.981 71.3374 57.5154 66.6369 56.5585L66.597 56.7545C71.3613 57.7243 75.0636 56.1718 77.0845 53.7523L76.931 53.6241ZM66.6295 56.5573C63.7426 56.1918 61.5454 55.5361 60.0587 54.677L59.9586 54.8502C61.4775 55.7279 63.704 56.3885 66.6044 56.7557L66.6295 56.5573ZM60.0588 54.677C58.9585 54.0397 58.2168 53.2771 57.8444 52.4236L57.6611 52.5036C58.0555 53.4073 58.8335 54.1984 59.9585 54.8501L60.0588 54.677ZM57.8442 52.4233C57.4527 51.535 57.4575 50.5762 57.8691 49.567L57.6839 49.4915C57.2542 50.5449 57.2454 51.5604 57.6612 52.504L57.8442 52.4233ZM57.8707 49.5629L57.8876 49.5154L57.6993 49.4482L57.6823 49.4956L57.8707 49.5629ZM57.8857 49.5204C58.2548 48.6392 58.9529 47.7179 59.984 46.7879L59.85 46.6394C58.8051 47.5819 58.0852 48.5263 57.7012 49.4431L57.8857 49.5204ZM59.9837 46.7882C60.2991 46.5059 60.7823 46.5299 61.0675 46.8452L61.2158 46.711C60.8565 46.3139 60.2474 46.2837 59.8503 46.6391L59.9837 46.7882ZM61.0672 46.8448C61.3495 47.1601 61.3254 47.6434 61.0101 47.9286L61.1443 48.0769C61.5415 47.7176 61.5717 47.1085 61.2162 46.7114L61.0672 46.8448ZM61.0102 47.9286C60.163 48.6938 59.5919 49.4312 59.3026 50.1145L59.4867 50.1925C59.7605 49.5459 60.3089 48.8315 61.1443 48.077L61.0102 47.9286ZM59.3052 50.1088L59.2882 50.1427L59.4671 50.2322L59.4841 50.1983L59.3052 50.1088ZM59.285 50.15C59.0431 50.7494 59.0253 51.3108 59.249 51.8124L59.4317 51.7309C59.2348 51.2894 59.2441 50.7857 59.4704 50.2249L59.285 50.15ZM59.2488 51.8119C59.4949 52.3719 60.0275 52.8876 60.8272 53.3475L60.9269 53.1741C60.1459 52.725 59.654 52.2366 59.4319 51.7314L59.2488 51.8119ZM60.827 53.3474C62.153 54.1135 64.1559 54.6959 66.8145 55.0358L66.8399 54.8375C64.1929 54.499 62.22 53.9212 60.9271 53.1742L60.827 53.3474ZM66.8131 55.0356L66.8368 55.039L66.8651 54.841L66.8414 54.8377L66.8131 55.0356ZM66.8345 55.0387L66.8752 55.0455L66.9081 54.8482L66.8674 54.8414L66.8345 55.0387ZM66.8917 55.0468H66.8951V54.8468H66.8917V55.0468ZM66.8786 55.0455L66.9397 55.0556L66.9726 54.8584L66.9115 54.8482L66.8786 55.0455ZM66.9361 55.055C70.9928 55.882 74.0956 54.6263 75.7511 52.6396L75.5975 52.5116C73.9965 54.4328 70.9728 55.6738 66.9761 54.859L66.9361 55.055ZM75.7512 52.6395C76.3783 51.8849 76.7967 51.0288 76.9732 50.1563L76.7772 50.1167C76.6077 50.954 76.2051 51.7804 75.5974 52.5117L75.7512 52.6395ZM76.9732 50.1563C77.1463 49.2978 77.0912 48.4135 76.7752 47.5871L76.5884 47.6585C76.8899 48.447 76.9433 49.2926 76.7772 50.1167L76.9732 50.1563ZM76.7751 47.5869C76.0413 45.6811 73.927 44.0661 70.1473 43.5817L70.1219 43.7801C73.8598 44.2592 75.8907 45.8466 76.5885 47.6588L76.7751 47.5869ZM70.1511 43.5823L70.1307 43.5789L70.0978 43.7762L70.1182 43.7796L70.1511 43.5823ZM70.1459 43.5827L70.1357 43.5793L70.0725 43.769L70.0826 43.7724L70.1459 43.5827ZM70.1041 43.5741H70.0939V43.7741H70.1041V43.5741ZM70.1255 43.5793L70.1154 43.5759L70.0521 43.7656L70.0623 43.769L70.1255 43.5793ZM70.0837 43.5708H70.0736V43.7708H70.0837V43.5708ZM70.1052 43.5759L70.095 43.5725L70.0318 43.7622L70.0419 43.7656L70.1052 43.5759ZM70.0173 43.5786L70.0108 43.582L70.103 43.7595L70.1095 43.7561L70.0173 43.5786ZM43.6965 47.0954C44.0898 46.9453 44.5341 47.1407 44.6872 47.5335L44.8735 47.4609C44.6804 46.965 44.1206 46.7194 43.6252 46.9085L43.6965 47.0954ZM44.6869 47.5329C44.837 47.9262 44.6417 48.3705 44.2488 48.5236L44.3214 48.7099C44.8173 48.5168 45.0629 47.957 44.8738 47.4616L44.6869 47.5329ZM44.2489 48.5235C41.8143 49.4692 39.8166 50.3604 38.2661 51.1825C36.7173 52.0036 35.6078 52.7592 34.9556 53.4356L35.0996 53.5745C35.7295 52.9212 36.8165 52.1774 38.3597 51.3592C39.9012 50.5419 41.8912 49.6539 44.3213 48.7099L44.2489 48.5235ZM34.9557 53.4355C34.7546 53.6435 34.6065 53.8286 34.5161 53.9879C34.4285 54.1425 34.3823 54.2957 34.4276 54.4265L34.6166 54.3611C34.6009 54.3156 34.609 54.2296 34.6901 54.0865C34.7685 53.9482 34.9037 53.7771 35.0995 53.5746L34.9557 53.4355ZM34.426 54.4213L34.4328 54.445L34.6251 54.3901L34.6183 54.3663L34.426 54.4213ZM34.4362 54.4552C34.4964 54.6033 34.6439 54.7362 34.8497 54.8585C35.0588 54.9827 35.3435 55.1049 35.7014 55.2248L35.7649 55.0351C35.4138 54.9175 35.1439 54.8006 34.9519 54.6865C34.7565 54.5704 34.6564 54.4659 34.6216 54.38L34.4362 54.4552ZM35.7013 55.2247C36.9126 55.6314 38.7704 55.8921 41.283 55.988C43.7975 56.0841 46.9747 56.0152 50.8288 55.7589L50.8155 55.5594C46.9657 55.8153 43.7959 55.8839 41.2906 55.7882C38.7834 55.6925 36.9486 55.4325 35.765 55.0351L35.7013 55.2247ZM50.8285 55.7589C51.2515 55.732 51.6146 56.0528 51.6417 56.4763L51.8413 56.4635C51.8072 55.9304 51.3495 55.5253 50.8158 55.5594L50.8285 55.7589ZM51.6417 56.4763C51.6687 56.8992 51.3479 57.2624 50.9244 57.2894L50.9371 57.489C51.4703 57.455 51.8754 56.9973 51.8413 56.4635L51.6417 56.4763ZM50.9241 57.2895C46.9608 57.5522 43.6774 57.6156 41.0615 57.5047C38.4439 57.3938 36.501 57.1084 35.2153 56.677L35.1516 56.8666C36.4642 57.307 38.4294 57.5933 41.053 57.7046C43.6784 57.8159 46.9695 57.7521 50.9374 57.489L50.9241 57.2895ZM35.2153 56.677C33.9853 56.2637 33.2603 55.681 32.9976 54.9697L32.81 55.039C33.1036 55.834 33.8984 56.4455 35.1516 56.8666L35.2153 56.677ZM32.9974 54.9693L32.9771 54.915L32.7898 54.9852L32.8102 55.0395L32.9974 54.9693ZM32.9782 54.9182C32.71 54.1232 32.9858 53.2722 33.8544 52.3736L33.7106 52.2346C32.815 53.1611 32.487 54.0877 32.7887 54.9821L32.9782 54.9182ZM33.8544 52.3736C34.5714 51.6314 35.755 50.8078 37.402 49.9204C39.0476 49.0337 41.1503 48.0864 43.7006 47.0951L43.6281 46.9087C41.0729 47.9019 38.9623 48.8526 37.3072 49.7443C35.6535 50.6353 34.4488 51.4705 33.7105 52.2346L33.8544 52.3736ZM43.6617 46.9019L43.6582 46.902L43.6635 47.1019L43.667 47.1018L43.6617 46.9019Z" fill="#D0DDD5" mask="url(#path-1-outside-1_1_238)"/>
</g>
</svg>
