<svg width="52" height="52" viewBox="0 0 52 52" fill="none" xmlns="http://www.w3.org/2000/svg">
<path id="Vector" d="M49.4365 24.2329H47.7725C47.1766 24.2329 46.5808 24.2329 45.9826 24.3123C46.8014 19.5717 46.3512 14.6988 44.6806 10.1879C44.365 9.31613 43.4027 8.86815 42.531 9.18373C39.8407 10.1813 37.3205 11.5893 35.0601 13.3571C33.321 8.81518 30.6485 4.68562 27.2145 1.24114C26.5546 0.616559 25.5195 0.616559 24.8596 1.24114C21.4345 4.69499 18.764 8.81984 17.0116 13.3571C14.7296 11.607 12.1896 10.2254 9.47955 9.26099C9.06685 9.1021 8.61 9.11534 8.20614 9.2941C7.80227 9.47286 7.48669 9.80611 7.33 10.2188C5.66817 14.732 5.21797 19.6026 6.02792 24.3433C5.43205 24.3433 4.83619 24.2638 4.23807 24.2638H2.57402C2.13263 24.2594 1.7089 24.4315 1.39331 24.7405C1.07772 25.0495 0.898957 25.471 0.894531 25.9124V27.5919C0.898945 33.8043 3.36852 39.761 7.7623 44.1547C12.1563 48.5487 18.1127 51.0182 24.3251 51.0225H27.6841C33.9012 51.0269 39.8659 48.5573 44.2629 44.1589C48.6569 39.7605 51.1245 33.7925 51.1156 27.5759V25.9118C51.12 25.466 50.9434 25.0357 50.6278 24.7201C50.3123 24.4045 49.8819 24.228 49.4361 24.2324L49.4365 24.2329ZM42.4845 24.8442C40.7101 25.2458 38.9909 25.8638 37.3667 26.6804V25.8947V25.8969C37.3623 22.838 36.9518 19.7923 36.1441 16.8422C37.9207 15.2995 39.9135 14.0261 42.0613 13.0595C43.1736 16.8929 43.3192 20.9428 42.485 24.8444L42.4845 24.8442ZM26.005 4.89765C29.0595 8.3184 31.3347 12.3615 32.6746 16.7471C33.5838 19.7177 34.0451 22.8074 34.0407 25.9129C34.0407 26.8862 34.0407 27.8595 33.8995 28.8173C32.9461 29.5147 32.0434 30.2805 31.2004 31.1081C28.9515 33.3415 27.1838 36.0121 26.0054 38.9537C24.4098 34.8885 21.6886 31.36 18.1574 28.7841C18.078 27.8263 18.0162 26.853 18.0162 25.8798V25.882C18.014 22.7812 18.4752 19.696 19.3823 16.7322C20.7109 12.3558 22.9708 8.3192 26.0057 4.89873L26.005 4.89765ZM9.93426 13.0588C12.0816 14.0254 14.0745 15.2988 15.8515 16.8415C15.0437 19.7966 14.631 22.8467 14.6266 25.9122V26.6979C13.0067 25.8813 11.2941 25.2656 9.52625 24.8617C8.67658 20.9532 8.81782 16.8965 9.93454 13.0588L9.93426 13.0588ZM10.1241 41.7775C6.36786 38.0367 4.25112 32.9563 4.23794 27.6531C9.56991 27.6354 14.6853 29.7563 18.4396 33.5392C22.2223 37.2976 24.3408 42.4112 24.3257 47.7432C18.9848 47.7366 13.867 45.587 10.1241 41.7775ZM41.8868 41.7775C38.1482 45.5403 33.0656 47.6566 27.7623 47.6636C27.7623 42.3359 29.8788 37.2266 33.6461 33.4596C37.4134 29.6923 42.5247 27.5758 47.8525 27.5758C47.8458 32.9168 45.6985 38.0345 41.8868 41.7775Z" fill="#13332F"/>
</svg>
