<svg width="65" height="53" viewBox="0 0 65 53" fill="none" xmlns="http://www.w3.org/2000/svg">
<g id="Vector">
<mask id="path-1-outside-1_1_247" maskUnits="userSpaceOnUse" x="0" y="-0.0930176" width="65" height="53" fill="black">
<rect fill="white" y="-0.0930176" width="65" height="53"/>
<path d="M41.1512 31.816L53.1027 27.6338C52.9396 27.4952 52.7766 27.3811 52.6135 27.3077C52.1978 27.0957 51.7086 27.0794 51.2765 27.218L40.9474 30.8458C41.0615 31.1475 41.1349 31.4736 41.1594 31.816H41.1512ZM23.9822 10.5787C23.9822 11.2064 24.1207 11.9157 24.3735 12.682C24.7648 13.8152 25.4333 15.0136 26.3871 16.1468C27.3573 17.3044 28.466 18.2012 29.5503 18.8045C30.2677 19.1713 30.9606 19.4322 31.6047 19.5219C31.6047 18.8778 31.4661 18.1604 31.2134 17.3941C30.8221 16.2609 30.1291 15.0625 29.1997 13.9538C28.2296 12.7717 27.1208 11.8749 26.0366 11.2961C25.3191 10.9047 24.6262 10.652 23.9822 10.5787ZM22.3843 13.3749C21.8544 11.8993 21.7402 10.4401 22.0174 9.25796C22.1071 8.81772 22.4821 8.49163 22.9386 8.45086C24.186 8.31227 25.6208 8.66283 27.0312 9.42101C27.6589 9.77156 28.254 10.1629 28.8329 10.6439C28.8084 10.2036 28.7839 9.78787 28.7839 9.34763C28.7595 7.54594 29.0856 5.88284 29.6155 4.49693C30.2188 2.99688 31.0748 1.79032 32.1101 1.0729C32.5259 0.820176 33.0558 0.860938 33.4064 1.16258C34.3765 1.87999 35.1592 3.05395 35.7135 4.48878C36.2434 5.82578 36.5451 7.44811 36.5695 9.17643C36.5695 9.66558 36.5451 10.1466 36.4962 10.6357C37.0994 10.1466 37.6946 9.75525 38.2978 9.41285C39.7082 8.64652 41.1594 8.30412 42.4148 8.44271C42.8795 8.49163 43.2219 8.80957 43.3197 9.2498H43.3442C43.6214 10.4319 43.4828 11.883 42.9773 13.3668C42.4882 14.7282 41.6811 16.1631 40.5968 17.5001C39.4392 18.8615 38.1266 19.9295 36.806 20.6469C35.3956 21.4132 33.9607 21.7801 32.689 21.6415H32.64C31.3927 21.7801 29.9579 21.4132 28.5231 20.6469C27.2024 19.9295 25.8898 18.8697 24.7566 17.5001C23.6479 16.1631 22.8408 14.7282 22.3761 13.3668L22.3843 13.3749ZM40.9882 12.682C41.2409 11.9157 41.3795 11.2064 41.355 10.5787C40.7273 10.652 40.018 10.9047 39.3006 11.2961C38.2163 11.8749 37.132 12.7717 36.1538 13.9538C35.2081 15.0625 34.5396 16.2609 34.1401 17.3941C33.8629 18.1604 33.7488 18.8697 33.7488 19.5219C34.3765 19.4322 35.0858 19.1713 35.8032 18.8045C36.8875 18.2012 37.9717 17.3044 38.95 16.1468C39.8957 15.0136 40.5887 13.8152 40.98 12.682H40.9882ZM33.7569 5.26326C33.4798 4.49693 33.1129 3.87734 32.6971 3.3882C32.2569 3.87734 31.89 4.49693 31.5884 5.26326C31.1481 6.42091 30.871 7.83128 30.8954 9.33133C30.8954 10.7906 31.1481 12.1521 31.5884 13.2853C31.89 14.0271 32.2324 14.6712 32.6482 15.1603C33.0884 14.6712 33.4553 14.0271 33.7569 13.269C34.2216 12.1113 34.4743 10.7254 34.4743 9.20089C34.4499 7.7416 34.1972 6.38014 33.7569 5.27141V5.26326ZM1.40803 35.1666L10.9056 27.8213C11.3703 27.4707 12.0388 27.5441 12.3812 28.0088C12.4546 28.0985 12.5198 28.1963 12.5443 28.3104C12.6339 28.5632 12.7562 28.8159 12.8459 29.0768C16.221 26.1663 20.2157 23.207 26.917 26.3049L37.7761 28.18C38.4935 28.3186 39.1375 28.6202 39.6919 29.0605L50.5754 25.2451C51.5456 24.8946 52.5891 24.9924 53.4859 25.3837C54.2033 25.7343 54.8473 26.2886 55.2386 26.9979C55.9316 26.949 56.6001 27.0876 57.2034 27.3648C58.0838 27.7561 58.8176 28.4735 59.1926 29.4436C60.2116 29.142 61.247 29.2561 62.103 29.6964C63.0242 30.161 63.7905 30.9681 64.1329 32.0035C64.4835 33.0633 64.3612 34.1557 63.9047 35.077C63.44 35.9982 62.6329 36.7401 61.5975 37.0906L43.9638 42.9848C43.7763 43.0582 43.5969 43.099 43.4339 43.1234C43.2464 43.1479 43.0833 43.1723 42.904 43.1968H42.4148C42.2273 43.1968 42.0887 43.1723 41.9501 43.1723C41.0452 43.0582 37.7435 42.8462 34.2053 42.6424C30.1128 42.4142 25.7268 42.2022 24.4305 42.1533L24.0392 42.5202C24.2267 42.9359 24.3898 43.3762 24.5447 43.8409C24.6833 44.2811 24.5202 44.7458 24.1778 44.9985L14.6802 52.3438C14.2155 52.7107 13.5715 52.621 13.2046 52.1563L1.21237 36.6504C0.861812 36.1857 0.959642 35.5172 1.39987 35.1748L1.40803 35.1666ZM13.8405 30.9844C15.0878 32.9981 16.6368 34.1965 18.1613 35.3949C19.9141 36.7808 21.6506 38.1423 23.0854 40.5228L23.3136 40.3108C23.4767 40.1478 23.7294 40.0337 23.9822 40.0092C24.3979 39.9847 29.5747 40.2375 34.3358 40.5146C37.9391 40.7266 41.2898 40.9304 42.1947 41.0446C42.3333 41.0446 42.423 41.069 42.4964 41.069H42.7246C42.7246 41.069 42.7735 41.0446 42.798 41.0446C42.8714 41.0446 42.961 41.0446 43.0507 41.0201C43.1404 40.9956 43.2138 40.9956 43.3034 40.9467L60.9372 35.077C61.4263 34.8895 61.8176 34.5471 62.0215 34.1068C62.2497 33.6666 62.2986 33.1611 62.1356 32.6475C61.9725 32.1584 61.6301 31.7671 61.1899 31.5633C60.7497 31.335 60.2198 31.2861 59.7306 31.4491L42.7654 37.1069C42.5779 37.1803 42.3985 37.2211 42.211 37.1803C40.0588 36.8542 38.469 36.6015 36.8712 36.3732C34.4254 35.9819 31.9715 35.6069 29.803 35.2889L24.3735 34.4818C23.7946 34.3922 23.4033 33.8541 23.493 33.2834C23.5664 32.7046 24.1207 32.2888 24.6914 32.3785L24.8545 32.403C26.0529 32.566 27.2105 32.7535 28.3926 32.9329C28.6698 32.9818 28.947 33.0226 30.1291 33.1856L36.8549 34.2047C37.4989 34.2943 37.9636 34.1802 38.2897 33.9275C38.7055 33.6014 38.9337 33.047 39.0316 32.403C39.1049 31.8975 38.9582 31.4084 38.681 31.017C38.3794 30.6257 37.9391 30.3241 37.4092 30.2344L26.436 28.343C26.3464 28.343 26.2485 28.2941 26.1589 28.2697C20.3625 25.5223 16.8488 28.3838 13.8405 30.9763V30.9844ZM11.1176 30.3404L3.53582 36.1857L14.2563 50.0285L22.2946 43.7919C20.9576 40.2782 18.895 38.6885 16.8651 37.0662C14.7617 35.4275 12.6584 33.7644 11.1094 30.3404H11.1176ZM55.0267 29.1827C55.0267 29.1827 54.9533 29.2072 54.9125 29.2317L40.7028 34.221C40.5887 34.4085 40.4909 34.5878 40.3523 34.7753L42.2925 35.077L57.1952 30.0877C57.0077 29.7208 56.7061 29.4436 56.3392 29.2806C55.9234 29.0931 55.4587 29.0523 55.0185 29.1909L55.0267 29.1827Z"/>
</mask>
<path d="M41.1512 31.816L53.1027 27.6338C52.9396 27.4952 52.7766 27.3811 52.6135 27.3077C52.1978 27.0957 51.7086 27.0794 51.2765 27.218L40.9474 30.8458C41.0615 31.1475 41.1349 31.4736 41.1594 31.816H41.1512ZM23.9822 10.5787C23.9822 11.2064 24.1207 11.9157 24.3735 12.682C24.7648 13.8152 25.4333 15.0136 26.3871 16.1468C27.3573 17.3044 28.466 18.2012 29.5503 18.8045C30.2677 19.1713 30.9606 19.4322 31.6047 19.5219C31.6047 18.8778 31.4661 18.1604 31.2134 17.3941C30.8221 16.2609 30.1291 15.0625 29.1997 13.9538C28.2296 12.7717 27.1208 11.8749 26.0366 11.2961C25.3191 10.9047 24.6262 10.652 23.9822 10.5787ZM22.3843 13.3749C21.8544 11.8993 21.7402 10.4401 22.0174 9.25796C22.1071 8.81772 22.4821 8.49163 22.9386 8.45086C24.186 8.31227 25.6208 8.66283 27.0312 9.42101C27.6589 9.77156 28.254 10.1629 28.8329 10.6439C28.8084 10.2036 28.7839 9.78787 28.7839 9.34763C28.7595 7.54594 29.0856 5.88284 29.6155 4.49693C30.2188 2.99688 31.0748 1.79032 32.1101 1.0729C32.5259 0.820176 33.0558 0.860938 33.4064 1.16258C34.3765 1.87999 35.1592 3.05395 35.7135 4.48878C36.2434 5.82578 36.5451 7.44811 36.5695 9.17643C36.5695 9.66558 36.5451 10.1466 36.4962 10.6357C37.0994 10.1466 37.6946 9.75525 38.2978 9.41285C39.7082 8.64652 41.1594 8.30412 42.4148 8.44271C42.8795 8.49163 43.2219 8.80957 43.3197 9.2498H43.3442C43.6214 10.4319 43.4828 11.883 42.9773 13.3668C42.4882 14.7282 41.6811 16.1631 40.5968 17.5001C39.4392 18.8615 38.1266 19.9295 36.806 20.6469C35.3956 21.4132 33.9607 21.7801 32.689 21.6415H32.64C31.3927 21.7801 29.9579 21.4132 28.5231 20.6469C27.2024 19.9295 25.8898 18.8697 24.7566 17.5001C23.6479 16.1631 22.8408 14.7282 22.3761 13.3668L22.3843 13.3749ZM40.9882 12.682C41.2409 11.9157 41.3795 11.2064 41.355 10.5787C40.7273 10.652 40.018 10.9047 39.3006 11.2961C38.2163 11.8749 37.132 12.7717 36.1538 13.9538C35.2081 15.0625 34.5396 16.2609 34.1401 17.3941C33.8629 18.1604 33.7488 18.8697 33.7488 19.5219C34.3765 19.4322 35.0858 19.1713 35.8032 18.8045C36.8875 18.2012 37.9717 17.3044 38.95 16.1468C39.8957 15.0136 40.5887 13.8152 40.98 12.682H40.9882ZM33.7569 5.26326C33.4798 4.49693 33.1129 3.87734 32.6971 3.3882C32.2569 3.87734 31.89 4.49693 31.5884 5.26326C31.1481 6.42091 30.871 7.83128 30.8954 9.33133C30.8954 10.7906 31.1481 12.1521 31.5884 13.2853C31.89 14.0271 32.2324 14.6712 32.6482 15.1603C33.0884 14.6712 33.4553 14.0271 33.7569 13.269C34.2216 12.1113 34.4743 10.7254 34.4743 9.20089C34.4499 7.7416 34.1972 6.38014 33.7569 5.27141V5.26326ZM1.40803 35.1666L10.9056 27.8213C11.3703 27.4707 12.0388 27.5441 12.3812 28.0088C12.4546 28.0985 12.5198 28.1963 12.5443 28.3104C12.6339 28.5632 12.7562 28.8159 12.8459 29.0768C16.221 26.1663 20.2157 23.207 26.917 26.3049L37.7761 28.18C38.4935 28.3186 39.1375 28.6202 39.6919 29.0605L50.5754 25.2451C51.5456 24.8946 52.5891 24.9924 53.4859 25.3837C54.2033 25.7343 54.8473 26.2886 55.2386 26.9979C55.9316 26.949 56.6001 27.0876 57.2034 27.3648C58.0838 27.7561 58.8176 28.4735 59.1926 29.4436C60.2116 29.142 61.247 29.2561 62.103 29.6964C63.0242 30.161 63.7905 30.9681 64.1329 32.0035C64.4835 33.0633 64.3612 34.1557 63.9047 35.077C63.44 35.9982 62.6329 36.7401 61.5975 37.0906L43.9638 42.9848C43.7763 43.0582 43.5969 43.099 43.4339 43.1234C43.2464 43.1479 43.0833 43.1723 42.904 43.1968H42.4148C42.2273 43.1968 42.0887 43.1723 41.9501 43.1723C41.0452 43.0582 37.7435 42.8462 34.2053 42.6424C30.1128 42.4142 25.7268 42.2022 24.4305 42.1533L24.0392 42.5202C24.2267 42.9359 24.3898 43.3762 24.5447 43.8409C24.6833 44.2811 24.5202 44.7458 24.1778 44.9985L14.6802 52.3438C14.2155 52.7107 13.5715 52.621 13.2046 52.1563L1.21237 36.6504C0.861812 36.1857 0.959642 35.5172 1.39987 35.1748L1.40803 35.1666ZM13.8405 30.9844C15.0878 32.9981 16.6368 34.1965 18.1613 35.3949C19.9141 36.7808 21.6506 38.1423 23.0854 40.5228L23.3136 40.3108C23.4767 40.1478 23.7294 40.0337 23.9822 40.0092C24.3979 39.9847 29.5747 40.2375 34.3358 40.5146C37.9391 40.7266 41.2898 40.9304 42.1947 41.0446C42.3333 41.0446 42.423 41.069 42.4964 41.069H42.7246C42.7246 41.069 42.7735 41.0446 42.798 41.0446C42.8714 41.0446 42.961 41.0446 43.0507 41.0201C43.1404 40.9956 43.2138 40.9956 43.3034 40.9467L60.9372 35.077C61.4263 34.8895 61.8176 34.5471 62.0215 34.1068C62.2497 33.6666 62.2986 33.1611 62.1356 32.6475C61.9725 32.1584 61.6301 31.7671 61.1899 31.5633C60.7497 31.335 60.2198 31.2861 59.7306 31.4491L42.7654 37.1069C42.5779 37.1803 42.3985 37.2211 42.211 37.1803C40.0588 36.8542 38.469 36.6015 36.8712 36.3732C34.4254 35.9819 31.9715 35.6069 29.803 35.2889L24.3735 34.4818C23.7946 34.3922 23.4033 33.8541 23.493 33.2834C23.5664 32.7046 24.1207 32.2888 24.6914 32.3785L24.8545 32.403C26.0529 32.566 27.2105 32.7535 28.3926 32.9329C28.6698 32.9818 28.947 33.0226 30.1291 33.1856L36.8549 34.2047C37.4989 34.2943 37.9636 34.1802 38.2897 33.9275C38.7055 33.6014 38.9337 33.047 39.0316 32.403C39.1049 31.8975 38.9582 31.4084 38.681 31.017C38.3794 30.6257 37.9391 30.3241 37.4092 30.2344L26.436 28.343C26.3464 28.343 26.2485 28.2941 26.1589 28.2697C20.3625 25.5223 16.8488 28.3838 13.8405 30.9763V30.9844ZM11.1176 30.3404L3.53582 36.1857L14.2563 50.0285L22.2946 43.7919C20.9576 40.2782 18.895 38.6885 16.8651 37.0662C14.7617 35.4275 12.6584 33.7644 11.1094 30.3404H11.1176ZM55.0267 29.1827C55.0267 29.1827 54.9533 29.2072 54.9125 29.2317L40.7028 34.221C40.5887 34.4085 40.4909 34.5878 40.3523 34.7753L42.2925 35.077L57.1952 30.0877C57.0077 29.7208 56.7061 29.4436 56.3392 29.2806C55.9234 29.0931 55.4587 29.0523 55.0185 29.1909L55.0267 29.1827Z" fill="#13332F"/>
<path d="M41.1512 31.816L53.1027 27.6338C52.9396 27.4952 52.7766 27.3811 52.6135 27.3077C52.1978 27.0957 51.7086 27.0794 51.2765 27.218L40.9474 30.8458C41.0615 31.1475 41.1349 31.4736 41.1594 31.816H41.1512ZM23.9822 10.5787C23.9822 11.2064 24.1207 11.9157 24.3735 12.682C24.7648 13.8152 25.4333 15.0136 26.3871 16.1468C27.3573 17.3044 28.466 18.2012 29.5503 18.8045C30.2677 19.1713 30.9606 19.4322 31.6047 19.5219C31.6047 18.8778 31.4661 18.1604 31.2134 17.3941C30.8221 16.2609 30.1291 15.0625 29.1997 13.9538C28.2296 12.7717 27.1208 11.8749 26.0366 11.2961C25.3191 10.9047 24.6262 10.652 23.9822 10.5787ZM22.3843 13.3749C21.8544 11.8993 21.7402 10.4401 22.0174 9.25796C22.1071 8.81772 22.4821 8.49163 22.9386 8.45086C24.186 8.31227 25.6208 8.66283 27.0312 9.42101C27.6589 9.77156 28.254 10.1629 28.8329 10.6439C28.8084 10.2036 28.7839 9.78787 28.7839 9.34763C28.7595 7.54594 29.0856 5.88284 29.6155 4.49693C30.2188 2.99688 31.0748 1.79032 32.1101 1.0729C32.5259 0.820176 33.0558 0.860938 33.4064 1.16258C34.3765 1.87999 35.1592 3.05395 35.7135 4.48878C36.2434 5.82578 36.5451 7.44811 36.5695 9.17643C36.5695 9.66558 36.5451 10.1466 36.4962 10.6357C37.0994 10.1466 37.6946 9.75525 38.2978 9.41285C39.7082 8.64652 41.1594 8.30412 42.4148 8.44271C42.8795 8.49163 43.2219 8.80957 43.3197 9.2498H43.3442C43.6214 10.4319 43.4828 11.883 42.9773 13.3668C42.4882 14.7282 41.6811 16.1631 40.5968 17.5001C39.4392 18.8615 38.1266 19.9295 36.806 20.6469C35.3956 21.4132 33.9607 21.7801 32.689 21.6415H32.64C31.3927 21.7801 29.9579 21.4132 28.5231 20.6469C27.2024 19.9295 25.8898 18.8697 24.7566 17.5001C23.6479 16.1631 22.8408 14.7282 22.3761 13.3668L22.3843 13.3749ZM40.9882 12.682C41.2409 11.9157 41.3795 11.2064 41.355 10.5787C40.7273 10.652 40.018 10.9047 39.3006 11.2961C38.2163 11.8749 37.132 12.7717 36.1538 13.9538C35.2081 15.0625 34.5396 16.2609 34.1401 17.3941C33.8629 18.1604 33.7488 18.8697 33.7488 19.5219C34.3765 19.4322 35.0858 19.1713 35.8032 18.8045C36.8875 18.2012 37.9717 17.3044 38.95 16.1468C39.8957 15.0136 40.5887 13.8152 40.98 12.682H40.9882ZM33.7569 5.26326C33.4798 4.49693 33.1129 3.87734 32.6971 3.3882C32.2569 3.87734 31.89 4.49693 31.5884 5.26326C31.1481 6.42091 30.871 7.83128 30.8954 9.33133C30.8954 10.7906 31.1481 12.1521 31.5884 13.2853C31.89 14.0271 32.2324 14.6712 32.6482 15.1603C33.0884 14.6712 33.4553 14.0271 33.7569 13.269C34.2216 12.1113 34.4743 10.7254 34.4743 9.20089C34.4499 7.7416 34.1972 6.38014 33.7569 5.27141V5.26326ZM1.40803 35.1666L10.9056 27.8213C11.3703 27.4707 12.0388 27.5441 12.3812 28.0088C12.4546 28.0985 12.5198 28.1963 12.5443 28.3104C12.6339 28.5632 12.7562 28.8159 12.8459 29.0768C16.221 26.1663 20.2157 23.207 26.917 26.3049L37.7761 28.18C38.4935 28.3186 39.1375 28.6202 39.6919 29.0605L50.5754 25.2451C51.5456 24.8946 52.5891 24.9924 53.4859 25.3837C54.2033 25.7343 54.8473 26.2886 55.2386 26.9979C55.9316 26.949 56.6001 27.0876 57.2034 27.3648C58.0838 27.7561 58.8176 28.4735 59.1926 29.4436C60.2116 29.142 61.247 29.2561 62.103 29.6964C63.0242 30.161 63.7905 30.9681 64.1329 32.0035C64.4835 33.0633 64.3612 34.1557 63.9047 35.077C63.44 35.9982 62.6329 36.7401 61.5975 37.0906L43.9638 42.9848C43.7763 43.0582 43.5969 43.099 43.4339 43.1234C43.2464 43.1479 43.0833 43.1723 42.904 43.1968H42.4148C42.2273 43.1968 42.0887 43.1723 41.9501 43.1723C41.0452 43.0582 37.7435 42.8462 34.2053 42.6424C30.1128 42.4142 25.7268 42.2022 24.4305 42.1533L24.0392 42.5202C24.2267 42.9359 24.3898 43.3762 24.5447 43.8409C24.6833 44.2811 24.5202 44.7458 24.1778 44.9985L14.6802 52.3438C14.2155 52.7107 13.5715 52.621 13.2046 52.1563L1.21237 36.6504C0.861812 36.1857 0.959642 35.5172 1.39987 35.1748L1.40803 35.1666ZM13.8405 30.9844C15.0878 32.9981 16.6368 34.1965 18.1613 35.3949C19.9141 36.7808 21.6506 38.1423 23.0854 40.5228L23.3136 40.3108C23.4767 40.1478 23.7294 40.0337 23.9822 40.0092C24.3979 39.9847 29.5747 40.2375 34.3358 40.5146C37.9391 40.7266 41.2898 40.9304 42.1947 41.0446C42.3333 41.0446 42.423 41.069 42.4964 41.069H42.7246C42.7246 41.069 42.7735 41.0446 42.798 41.0446C42.8714 41.0446 42.961 41.0446 43.0507 41.0201C43.1404 40.9956 43.2138 40.9956 43.3034 40.9467L60.9372 35.077C61.4263 34.8895 61.8176 34.5471 62.0215 34.1068C62.2497 33.6666 62.2986 33.1611 62.1356 32.6475C61.9725 32.1584 61.6301 31.7671 61.1899 31.5633C60.7497 31.335 60.2198 31.2861 59.7306 31.4491L42.7654 37.1069C42.5779 37.1803 42.3985 37.2211 42.211 37.1803C40.0588 36.8542 38.469 36.6015 36.8712 36.3732C34.4254 35.9819 31.9715 35.6069 29.803 35.2889L24.3735 34.4818C23.7946 34.3922 23.4033 33.8541 23.493 33.2834C23.5664 32.7046 24.1207 32.2888 24.6914 32.3785L24.8545 32.403C26.0529 32.566 27.2105 32.7535 28.3926 32.9329C28.6698 32.9818 28.947 33.0226 30.1291 33.1856L36.8549 34.2047C37.4989 34.2943 37.9636 34.1802 38.2897 33.9275C38.7055 33.6014 38.9337 33.047 39.0316 32.403C39.1049 31.8975 38.9582 31.4084 38.681 31.017C38.3794 30.6257 37.9391 30.3241 37.4092 30.2344L26.436 28.343C26.3464 28.343 26.2485 28.2941 26.1589 28.2697C20.3625 25.5223 16.8488 28.3838 13.8405 30.9763V30.9844ZM11.1176 30.3404L3.53582 36.1857L14.2563 50.0285L22.2946 43.7919C20.9576 40.2782 18.895 38.6885 16.8651 37.0662C14.7617 35.4275 12.6584 33.7644 11.1094 30.3404H11.1176ZM55.0267 29.1827C55.0267 29.1827 54.9533 29.2072 54.9125 29.2317L40.7028 34.221C40.5887 34.4085 40.4909 34.5878 40.3523 34.7753L42.2925 35.077L57.1952 30.0877C57.0077 29.7208 56.7061 29.4436 56.3392 29.2806C55.9234 29.0931 55.4587 29.0523 55.0185 29.1909L55.0267 29.1827Z" stroke="#13332F" stroke-width="0.6" mask="url(#path-1-outside-1_1_247)"/>
</g>
</svg>
