<svg width="52" height="52" viewBox="0 0 52 52" fill="none" xmlns="http://www.w3.org/2000/svg">
<path id="Vector" d="M26.7353 23.8688C26.2746 23.5437 26.1648 22.9065 26.492 22.4459C26.8171 21.9852 27.4542 21.8754 27.9149 22.2026C28.4466 22.5794 29.0967 22.7516 29.9018 22.715C30.4615 22.6956 30.9394 23.1326 30.9609 23.6966C30.9824 24.2605 30.5433 24.7341 29.9793 24.7557C29.8932 24.7578 29.8093 24.76 29.7232 24.76C28.5758 24.76 27.5706 24.4608 26.7331 23.8666L26.7353 23.8688ZM22.43 27.4852C22.43 27.5304 22.4235 27.5562 22.4235 27.5562L20.4043 27.2678C20.3893 27.3647 20.1073 29.64 23.6096 30.5785C24.2425 30.7486 24.7914 30.8175 25.265 30.8175C27.4068 30.8175 28.0096 29.3881 28.0398 29.3128L27.0926 28.9317L26.1755 28.4862C26.0528 28.682 25.4695 28.9576 24.137 28.6045C22.8045 28.2472 22.4386 27.7155 22.4299 27.483L22.43 27.4852ZM21.81 20.5687C21.3494 20.2415 20.7122 20.3512 20.3872 20.8119C20.0621 21.2726 20.1697 21.9098 20.6304 22.2348C21.4678 22.8267 22.4731 23.1281 23.6204 23.1281C23.7044 23.1281 23.7905 23.1281 23.8766 23.1238C24.4406 23.1023 24.8797 22.6287 24.8582 22.0647C24.8366 21.5007 24.3566 21.0659 23.7991 21.0831C23.0026 21.1176 22.3417 20.9454 21.8121 20.5708L21.81 20.5687ZM2.48602 45.7848C2.48602 47.2722 4.72692 48.439 7.58777 48.439C8.89872 48.439 10.7693 47.9374 12.7477 47.4035C15.4018 46.691 18.4177 45.8816 21.1152 45.9893C23.5347 46.0861 25.8962 46.8525 28.3976 47.664C31.4243 48.6478 34.552 49.6617 38.2029 49.6617C43.9914 49.6617 49.4289 46.478 49.4289 44.5599C49.4289 44.4501 49.3987 44.3253 49.3385 44.1918C49.1103 43.6752 49.3449 43.0725 49.8594 42.8464C50.3739 42.6183 50.9787 42.8529 51.2048 43.3674C51.3792 43.7635 51.4674 44.1638 51.4674 44.56C51.4674 48.0989 44.773 51.7047 38.2008 51.7047C34.2271 51.7047 30.7938 50.5896 27.7646 49.6058C25.4031 48.8395 23.1687 48.1141 21.0332 48.0301C18.6416 47.944 15.7894 48.6995 13.2773 49.3755C11.1635 49.9437 9.16798 50.4798 7.58805 50.4798C3.44854 50.4798 0.443359 48.5058 0.443359 45.7849C0.443359 43.8238 1.369 42.2115 2.37857 41.0276C1.11495 40.1708 0.443359 38.8556 0.443359 37.2109C0.443359 31.9757 12.4507 30.5313 16.9216 30.1737C16.3382 29.2287 15.9163 28.2062 15.615 27.1665C14.3427 26.9448 12.175 26.7532 11.2946 27.1277C10.4228 27.498 9.60912 28.2729 8.87294 29.4268C8.6792 29.7324 8.3477 29.9003 8.00973 29.9003C7.82245 29.9003 7.63302 29.8487 7.46296 29.7411C6.98723 29.4397 6.8473 28.809 7.14868 28.3332C8.10876 26.8221 9.2324 25.7867 10.4939 25.2506C11.7639 24.7103 13.9036 24.8739 15.163 25.0354C14.9649 23.6082 14.9606 22.2369 15.0682 21.0874C14.6313 20.8183 14.2933 20.4007 14.0974 19.8539C13.2514 17.4753 15.0833 12.7307 17.2682 9.69761C18.0152 8.66005 19.4876 7.46961 21.2441 6.83246C21.3755 5.82504 21.8942 3.44423 23.9306 1.93952C25.7776 0.574726 28.3198 0.312139 31.4842 1.16024C34.4377 1.95027 36.4439 3.31506 37.4424 5.20938C38.5618 7.3319 38.1012 9.52325 37.7008 10.6943C38.7233 12.3346 39.3647 14.0912 39.4939 15.6712C39.7544 18.8312 39.2679 22.7084 38.0495 24.8824C38.8503 24.8953 39.6446 24.9922 40.243 25.2548C43.6701 26.7616 45.0478 31.8352 45.1037 32.0506C45.1102 32.0765 45.1037 32.1045 45.108 32.1303C46.9959 32.3843 48.7395 32.9096 49.9105 33.8911C50.9244 34.7415 51.4604 35.8888 51.4604 37.2105C51.4604 38.8099 50.8254 40.1101 49.6221 40.9711C48.4166 41.8343 46.6062 42.2649 44.2018 42.2649C39.9352 42.2649 33.7892 40.9044 25.8377 38.1986C20.0299 40.1962 12.8401 42.2262 7.61587 42.2262C6.41039 42.2262 5.32549 42.1035 4.36971 41.8602C3.45481 42.7837 2.47538 44.1484 2.47538 45.7823L2.48602 45.7848ZM48.6105 35.4587C45.9929 33.2673 38.3142 34.0272 35.4321 34.5266C34.5646 34.899 32.16 35.9086 28.9806 37.0839C38.9496 40.2526 45.978 41.0792 48.4424 39.3141C49.114 38.834 49.4262 38.1667 49.4262 37.2131C49.4262 36.4855 49.1657 35.928 48.606 35.4587H48.6105ZM39.4296 27.1259C38.674 26.7944 36.8012 26.9192 35.501 27.1302C34.8616 28.4089 33.9317 29.8339 32.737 31.1061C33.7272 31.4204 34.6076 31.8724 35.3934 32.4622C36.6031 32.2664 39.746 31.8315 42.9448 31.9521C42.4367 30.4818 41.2334 27.9159 39.4295 27.1237L39.4296 27.1259ZM29.0153 14.1646C30.6449 15.0946 32.3304 16.0589 33.2173 17.6734C33.7813 18.7002 33.8588 19.9165 33.932 21.0961C34.0719 23.2918 34.2635 24.2217 35.6175 24.5855C35.6476 24.592 35.695 24.6049 35.8241 24.4972C36.8445 23.6469 37.7831 19.6796 37.4666 15.8437C37.1911 12.5028 33.9837 8.00356 29.8249 6.88873C29.418 6.77895 28.9315 6.70791 28.4278 6.70791C27.7734 6.70791 27.0888 6.83062 26.5206 7.15997C25.9393 7.49578 25.5669 7.99947 25.3797 8.69697C24.6327 11.504 26.1911 12.5523 29.0153 14.1646ZM23.4164 6.39335C23.7135 6.37828 24.0127 6.38259 24.3141 6.41272C24.6456 6.01233 25.0352 5.66144 25.5001 5.39235C26.8154 4.63032 28.6301 4.45167 30.3543 4.91662C32.5758 5.51073 34.5455 6.87123 36.0866 8.55675C36.1469 7.81621 36.0694 6.97455 35.6432 6.16734C34.9199 4.79395 33.3441 3.77578 30.9612 3.13643C28.4362 2.45833 26.4837 2.60688 25.1639 3.57557C24.0962 4.35914 23.6274 5.54949 23.4164 6.39335ZM16.0287 19.1717C16.0933 19.3504 16.1471 19.3654 16.1772 19.374C16.9005 19.5656 17.1868 19.3331 18.2072 18.1427C19.0855 17.118 20.2909 15.7146 22.4909 14.7545C23.0097 14.5306 23.6102 14.7652 23.8341 15.2819C24.0602 15.7985 23.8234 16.4012 23.3067 16.6251C21.5352 17.3979 20.5901 18.5 19.7571 19.4709C19.0144 20.3363 18.2545 21.2232 17.1093 21.432C16.9263 23.8494 16.9651 30.7402 23.1259 32.3912C29.2181 34.025 32.6943 28.2173 33.7881 25.9723C32.1349 24.8551 31.9993 22.8015 31.8981 21.2214C31.8357 20.2226 31.7754 19.2819 31.431 18.6533C30.8218 17.5425 29.4527 16.7611 28.0062 15.9345C25.4876 14.4965 22.3791 12.7055 23.35 8.45862C21.5181 8.62438 19.6776 9.86431 18.9371 10.8933C16.7307 13.9543 15.5639 17.8572 16.0311 19.1704L16.0287 19.1717ZM2.48878 37.2128C2.48878 38.1987 2.82674 38.8811 3.55434 39.3589C8.18464 42.4114 24.9344 36.6122 32.9531 33.3467C32.3439 33.0712 31.6593 32.8817 30.8973 32.7526C29.3022 33.9193 27.3928 34.7158 25.1843 34.7158C24.362 34.7158 23.4988 34.606 22.5969 34.3628C20.8984 33.9086 19.5659 33.1078 18.5111 32.1154C11.7753 32.3479 2.48696 34.38 2.48696 37.2129L2.48878 37.2128ZM0.76452 16.3948C0.312468 15.4907 0.333993 14.3692 0.872151 13.4349C1.41246 12.5007 2.37256 11.9216 3.37998 11.8613C3.93536 11.0175 4.91699 10.4751 5.99759 10.4751C7.07605 10.4751 8.05982 11.0175 8.6152 11.8613C9.62477 11.9195 10.5849 12.5007 11.1252 13.4349C11.6633 14.3692 11.6849 15.4907 11.2328 16.3948C11.6849 17.2989 11.6633 18.4205 11.1252 19.3547C10.5849 20.2889 9.62477 20.8702 8.6152 20.9283C8.05982 21.7721 7.0782 22.3146 5.99759 22.3146C4.91914 22.3146 3.93536 21.7721 3.37998 20.9283C2.37041 20.8702 1.41033 20.2889 0.872151 19.3547C0.333993 18.4205 0.31033 17.2989 0.76452 16.3948ZM2.73417 17.1031C2.44787 17.4001 2.40697 17.9297 2.63945 18.3344C2.87409 18.7391 3.35414 18.9651 3.75235 18.8682C3.83415 18.8489 3.9181 18.8381 3.99775 18.8381C4.44334 18.8381 4.84806 19.1309 4.97718 19.5764C5.09127 19.9747 5.5304 20.2739 5.99755 20.2739C6.46469 20.2739 6.90164 19.9746 7.01792 19.5764C7.17075 19.049 7.71321 18.7391 8.24279 18.8682C8.64318 18.9651 9.12325 18.7369 9.35569 18.3343C9.59033 17.9296 9.54728 17.4001 9.26097 17.103C8.87995 16.7091 8.87995 16.0826 9.26097 15.6866C9.54727 15.3895 9.58817 14.86 9.35569 14.4553C9.12321 14.0505 8.64315 13.8203 8.24279 13.9214C7.70894 14.0549 7.16864 13.7406 7.01792 13.2132C6.90383 12.8149 6.46469 12.5157 5.99755 12.5157C5.5304 12.5157 5.09345 12.8149 4.97718 13.2132C4.82649 13.7406 4.28618 14.0527 3.7523 13.9214C3.35406 13.8245 2.87185 14.0527 2.63941 14.4553C2.40477 14.8578 2.44567 15.3895 2.73412 15.6866C3.11514 16.0805 3.11519 16.707 2.73417 17.1031ZM51.1533 6.59846C51.6053 7.50255 51.586 8.6241 51.0457 9.55834C50.5054 10.4926 49.5453 11.0716 48.5378 11.1319C47.9825 11.9757 47.0008 12.5182 45.9202 12.5182C44.8418 12.5182 43.858 11.9758 43.3026 11.1319C42.2952 11.0738 41.3351 10.4926 40.7948 9.55834C40.2545 8.6241 40.233 7.50255 40.685 6.59846C40.2329 5.69437 40.2523 4.57282 40.7948 3.63858C41.3351 2.70434 42.2952 2.12527 43.3026 2.06498C43.858 1.22118 44.8418 0.678699 45.9202 0.678699C46.9987 0.678699 47.9825 1.22117 48.5378 2.06498C49.5453 2.12526 50.5053 2.70434 51.0457 3.63858C51.586 4.57282 51.6075 5.69437 51.1533 6.59846ZM49.1836 5.89022C49.4699 5.59315 49.5108 5.0636 49.2784 4.65889C49.0459 4.25418 48.5658 4.02604 48.1655 4.12504C47.6338 4.25635 47.0913 3.94422 46.9406 3.4168C46.8265 3.01856 46.3874 2.71936 45.9202 2.71936C45.4531 2.71936 45.014 3.01857 44.8998 3.4168C44.7492 3.94419 44.2089 4.25631 43.675 4.12504C43.2724 4.02602 42.7945 4.25635 42.5621 4.65889C42.3274 5.06359 42.3683 5.59098 42.6568 5.89022C43.0378 6.28415 43.0378 6.91059 42.6568 7.30665C42.3705 7.60371 42.3296 8.13326 42.5621 8.53797C42.7967 8.94267 43.2768 9.17082 43.675 9.07182C43.7568 9.05245 43.8386 9.04169 43.9204 9.04169C44.366 9.04169 44.7707 9.33444 44.8998 9.77787C45.016 10.1761 45.453 10.4753 45.9202 10.4753C46.3873 10.4753 46.8243 10.1761 46.9405 9.77787C47.0934 9.25047 47.6337 8.93836 48.1654 9.06962C48.568 9.16865 49.0459 8.93831 49.2783 8.53577C49.5108 8.13107 49.4699 7.60153 49.1836 7.30445C48.8026 6.91052 48.8026 6.28408 49.1836 5.88802L49.1836 5.89022ZM5.99753 18.0265C6.5615 18.0265 7.0179 17.5702 7.0179 17.0062V15.8567C7.0179 15.2927 6.56154 14.8363 5.99753 14.8363C5.43356 14.8363 4.97716 15.2927 4.97716 15.8567V17.0062C4.97716 17.5701 5.43352 18.0265 5.99753 18.0265ZM45.9202 5.03991C45.3562 5.03991 44.8998 5.49626 44.8998 6.06028V7.20977C44.8998 7.77374 45.3562 8.23014 45.9202 8.23014C46.4841 8.23014 46.9405 7.77378 46.9405 7.20977V6.06028C46.9405 5.49631 46.4842 5.03991 45.9202 5.03991Z" fill="#8EB79F"/>
</svg>
