<svg width="62" height="58" viewBox="0 0 62 58" fill="none" xmlns="http://www.w3.org/2000/svg">
<g id="Group">
<path id="Vector" d="M33.1325 6.03662C33.1321 5.55112 32.7392 5.15482 32.2498 5.15482C32.0879 5.15482 29.5951 5.17804 27.0327 6.32004C28.4553 3.617 30.9996 2.4823 33.1985 2.35753C35.8379 2.20823 38.0657 3.39492 38.7101 5.14501C39.2747 7.59782 38.5533 9.75694 37.122 11.8226C35.6816 13.9014 33.5407 15.8594 31.3083 17.8985L31.3083 17.8985C27.7468 21.1519 23.7477 24.8105 22.2336 29.5798C21.0883 24.6486 21.4088 20.8023 23.139 18.0792L23.1984 17.9858C25.3343 14.7171 28.933 14.229 29.0661 14.2117C29.5515 14.1584 29.8978 13.7237 29.8464 13.24C29.7947 12.7545 29.3576 12.4019 28.873 12.4569C28.6983 12.4761 25.7015 12.8359 23.1847 15.255C23.1719 13.0974 23.7421 11.3397 24.8843 10.0011C25.1939 9.63953 25.535 9.32137 25.8945 9.03745C25.9014 9.03251 25.9073 9.02782 25.9121 9.02376C25.9136 9.02252 25.915 9.02131 25.9163 9.02016C27.2315 7.99464 28.8015 7.46749 30.0592 7.19791C30.6868 7.06338 31.2325 6.99387 31.6233 6.95803C31.8186 6.94012 31.975 6.93065 32.0833 6.92566C32.1374 6.92317 32.1794 6.92179 32.2083 6.92105C32.2361 6.92033 32.2509 6.92021 32.2522 6.9202L32.2523 6.9202C32.7382 6.9202 33.1355 6.52449 33.1325 6.03662ZM33.1325 6.03662C33.1325 6.03692 33.1325 6.03721 33.1325 6.03751H32.8825L33.1325 6.03573C33.1325 6.03603 33.1325 6.03633 33.1325 6.03662ZM40.416 4.68394L40.4154 4.68126C40.4124 4.66935 40.4089 4.65877 40.4055 4.64975C40.405 4.64675 40.4045 4.64362 40.4039 4.64041C40.4013 4.62599 40.3968 4.60775 40.3889 4.58755C39.4748 2.00953 36.4487 0.403039 33.0977 0.592305L33.0976 0.592309C29.8032 0.779257 25.8785 2.79533 24.5804 7.83371C24.2188 8.13564 23.8688 8.46783 23.545 8.84726C21.7341 10.9646 21.0869 13.8129 21.562 17.2736C19.1699 21.1745 19.2227 26.7611 21.6178 33.828C22.4465 37.6596 24.418 40.8065 26.9937 42.7249C26.8422 44.2493 25.8654 45.3128 24.3672 46.1611C22.8173 47.0386 20.7592 47.6569 18.6023 48.3006L18.6022 48.3006L18.585 48.3058C16.1666 49.028 13.6624 49.7758 11.7652 50.9749C9.84693 52.1872 8.52344 53.878 8.52344 56.4735C8.52344 56.9632 8.92022 57.3562 9.40613 57.3562C9.89203 57.3562 10.2888 56.9632 10.2888 56.4735C10.2888 54.5732 11.3068 53.3084 12.9309 52.3335C14.5692 51.35 16.7849 50.6868 19.1091 49.9933L19.1091 49.9932C21.25 49.354 23.4577 48.6929 25.2145 47.7106C26.8788 46.7799 28.1731 45.5415 28.6173 43.7284C29.9304 44.3842 31.3492 44.7496 32.8256 44.7496C34.2999 44.7496 35.7209 44.3862 37.035 43.7282C37.4868 45.5442 38.8023 46.7831 40.4926 47.7133C42.2771 48.6954 44.5198 49.3555 46.6964 49.9936C49.0587 50.6884 51.3136 51.3524 52.9815 52.3363C54.636 53.3123 55.6711 54.5768 55.6711 56.4735C55.6711 56.9625 56.0648 57.3562 56.5538 57.3562C57.0429 57.3562 57.4365 56.9625 57.4365 56.4735V56.4732C57.4339 53.8735 56.0867 52.1822 54.1381 50.9708C52.2121 49.7734 49.6712 49.0267 47.2157 48.3051L47.1909 48.2978L46.9516 48.2275L46.9513 48.2284C44.8445 47.6084 42.8446 47.0028 41.3247 46.1568C39.7991 45.3076 38.8063 44.2445 38.6518 42.7233C41.2234 40.8109 43.194 37.6713 44.0234 33.8478C49.8159 19.41 42.3155 10.3416 40.5194 8.45313C40.7387 7.26891 40.7344 6.02133 40.416 4.68394ZM40.3872 4.6103C40.3871 4.61004 40.3875 4.6107 40.3882 4.61217L40.3879 4.6115L40.3872 4.6103ZM26.8557 6.67711C26.7382 6.73327 26.6209 6.79189 26.5038 6.85311C26.5562 6.72948 26.6108 6.6086 26.6674 6.49043L26.8557 6.67711ZM26.2271 25.6837C27.9467 23.3544 30.2283 21.2683 32.4946 19.1975C32.5764 19.1231 32.6576 19.0488 32.7383 18.9748C32.7632 18.952 32.788 18.9293 32.8129 18.9065L33.1287 19.195C33.1287 19.195 33.1287 19.195 33.1287 19.195C35.3977 21.2684 37.6829 23.3575 39.4041 25.6907C41.1215 28.0189 42.2656 30.5752 42.2656 33.5794C42.2656 33.5894 42.2662 33.599 42.2671 33.6078C41.0064 39.1835 37.1205 42.9804 32.8226 42.9804H32.8225C28.507 42.9827 24.6037 39.1515 23.3603 33.5335C23.3725 30.5459 24.5157 28.0017 26.2271 25.6837ZM42.2833 33.6795C42.2833 33.6797 42.2833 33.6797 42.2832 33.6794L42.2833 33.6795ZM34.3213 17.8914L34.1159 17.7035C36.5799 15.4033 38.8186 13.0703 39.9304 10.4161C41.9938 12.8518 46.3787 19.5371 43.4978 29.907C42.0676 24.9747 37.9644 21.2227 34.3229 17.8929L34.3213 17.8914L34.3213 17.8914Z" fill="#8EB79F" stroke="#8EB79F" stroke-width="0.5"/>
<path id="Vector_2" d="M7.76752 19.4248L5.75576 18.325L4.65595 16.3132C4.54474 16.1105 4.33219 15.9845 4.09987 15.9845C3.87003 15.9845 3.65502 16.1105 3.5438 16.3132L2.44646 18.325L0.434691 19.4248C0.22956 19.536 0.103516 19.7485 0.103516 19.9808C0.103516 20.2132 0.22956 20.4257 0.432217 20.5369L2.44398 21.6392L3.54132 23.6485C3.65254 23.8512 3.86508 23.9772 4.0974 23.9772C4.32724 23.9772 4.54226 23.8512 4.65348 23.6485L5.75328 21.6392L7.76505 20.5369C7.96771 20.4257 8.09375 20.2132 8.09375 19.9808C8.09622 19.7485 7.97018 19.536 7.76752 19.4248ZM4.9847 20.616C4.87842 20.6753 4.79192 20.7618 4.73261 20.8681L4.09745 22.0247L3.46476 20.8681C3.40792 20.7618 3.32142 20.6753 3.21514 20.616L2.05606 19.9808L3.21514 19.3482C3.32142 19.2888 3.40792 19.2023 3.46723 19.0961L4.09992 17.937L4.73508 19.0961C4.7944 19.2023 4.8809 19.2888 4.98717 19.3482L6.14626 19.9808L4.9847 20.616Z" fill="#8EB79F"/>
<path id="Vector_3" d="M10.9781 29.723L12.4041 30.504L13.1827 31.9276C13.2939 32.1302 13.5064 32.2563 13.7387 32.2563C13.9686 32.2563 14.1811 32.1302 14.2948 31.9276L15.0758 30.5016L16.5018 29.7206C16.7045 29.6094 16.8305 29.3968 16.8305 29.1645C16.8305 28.9346 16.7045 28.7221 16.5018 28.6109L15.0758 27.8324L14.2948 26.4063C14.1836 26.2037 13.9711 26.0776 13.7387 26.0776C13.5064 26.0776 13.2939 26.2037 13.1827 26.4063L12.4041 27.8324L10.9781 28.6109C10.7755 28.7221 10.6494 28.9346 10.6494 29.1645C10.6494 29.3993 10.7755 29.6118 10.9781 29.723ZM13.1728 28.8556C13.2791 28.7962 13.3656 28.7097 13.4249 28.6035L13.7388 28.0301L14.0526 28.6035C14.1119 28.7097 14.1984 28.7962 14.3047 28.8556L14.8781 29.1694L14.3047 29.4833C14.1984 29.5426 14.1119 29.6291 14.0551 29.7329L13.7412 30.3063L13.4274 29.7329C13.368 29.6266 13.2815 29.5401 13.1777 29.4808L12.6044 29.1669L13.1728 28.8556Z" fill="#8EB79F"/>
<path id="Vector_4" d="M61.1455 36.1766L59.4575 35.2548L58.5332 33.5643C58.422 33.3616 58.2094 33.2356 57.9771 33.2356C57.7473 33.2356 57.5322 33.3616 57.421 33.5643L56.4967 35.2548L54.8062 36.1766C54.6036 36.2878 54.4775 36.5004 54.4775 36.7327C54.4775 36.9625 54.6036 37.1775 54.8062 37.2888L56.4967 38.2131L57.421 39.9011C57.5322 40.1037 57.7448 40.2298 57.9771 40.2298C58.2069 40.2298 58.422 40.1037 58.5332 39.9011L59.4575 38.2131L61.1455 37.2888C61.3482 37.1776 61.4742 36.965 61.4742 36.7327C61.4742 36.4979 61.3482 36.2854 61.1455 36.1766ZM58.6864 37.1899C58.5801 37.2492 58.4936 37.3357 58.4368 37.442L57.9796 38.2774L57.5224 37.442C57.463 37.3357 57.3765 37.2492 57.2727 37.1924L56.4374 36.7352L57.2727 36.278C57.379 36.2186 57.4655 36.1321 57.5248 36.0259L57.9821 35.1905L58.4393 36.0259C58.4986 36.1321 58.5851 36.2211 58.6914 36.278L59.5267 36.7352L58.6864 37.1899Z" fill="#8EB79F"/>
<path id="Vector_5" d="M10.6473 41.3761H11.5198V42.2485C11.5198 42.5994 11.804 42.8812 12.1524 42.8812C12.5009 42.8812 12.7851 42.5994 12.7851 42.2485V41.3761H13.6576C14.006 41.3761 14.2902 41.0943 14.2902 40.7434C14.2902 40.3924 14.006 40.1107 13.6576 40.1107H12.7851V39.2383C12.7851 38.8873 12.5009 38.6056 12.1524 38.6056C11.804 38.6056 11.5198 38.8873 11.5198 39.2383V40.1107H10.6473C10.2989 40.1107 10.0146 40.3924 10.0146 40.7434C10.0146 41.0943 10.2989 41.3761 10.6473 41.3761Z" fill="#8EB79F"/>
<path id="Vector_6" d="M50.6229 26.5254H51.4953V27.3978C51.4953 27.7463 51.7771 28.0305 52.128 28.0305C52.479 28.0305 52.7607 27.7463 52.7607 27.3978V26.5254H53.6331C53.9841 26.5254 54.2658 26.2412 54.2658 25.8927C54.2658 25.5442 53.9841 25.26 53.6331 25.26H52.7607V24.3876C52.7607 24.0391 52.479 23.7549 52.128 23.7549C51.7771 23.7549 51.4953 24.0391 51.4953 24.3876V25.26H50.6229C50.272 25.26 49.9902 25.5442 49.9902 25.8927C49.9902 26.2436 50.2745 26.5254 50.6229 26.5254Z" fill="#8EB79F"/>
</g>
</svg>
