<svg width="65" height="54" viewBox="0 0 65 54" fill="none" xmlns="http://www.w3.org/2000/svg">
<path id="Vector" d="M28.9613 21.141C30.1087 21.0598 31.2744 21.0127 32.4611 21.0127C36.7938 21.0127 40.8644 21.568 44.4796 22.5687L44.2046 24.2661C44.1653 24.5071 44.1443 24.7559 44.1443 24.9969C40.6499 23.9989 36.6731 23.4199 32.4557 23.4199C31.1145 23.4199 29.8074 23.4802 28.5185 23.5876C28.9089 22.8305 29.0478 21.9793 28.9613 21.141ZM44.9954 50.0634C44.7937 49.7884 44.6261 49.4871 44.4846 49.1859C40.9116 50.252 36.8123 50.8545 32.4607 50.8545C30.187 50.8545 27.9604 50.679 25.8149 50.3516C25.9092 51.1898 25.7416 52.0072 25.3591 52.7196C27.6591 53.0759 30.0403 53.2619 32.4689 53.2619C37.4853 53.2619 42.1456 52.51 46.1639 51.1977C45.7212 50.8886 45.3255 50.5062 44.9954 50.0634ZM58.1587 35.2445C57.8915 35.2445 57.6295 35.2104 57.3676 35.158C57.5431 35.8077 57.6348 36.4651 57.6348 37.1357C57.6348 38.6184 57.1999 40.0382 56.401 41.3742L57.2602 41.7487C57.7238 41.9505 58.1377 42.2255 58.5149 42.5399C59.5078 40.8555 60.05 39.0401 60.05 37.1357C60.05 36.4128 59.9636 35.7003 59.8143 35.0034L58.9236 35.1632C58.6695 35.2235 58.4154 35.2445 58.1587 35.2445ZM9.54003 42.7545C9.17067 42.3197 8.85635 41.8639 8.57342 41.4055L7.3265 41.7801C6.93882 41.9006 6.52755 41.9556 6.11888 41.9608C6.56945 42.8121 7.14571 43.6452 7.82946 44.4363C8.25382 43.7474 8.84321 43.1632 9.54003 42.7545ZM33.6683 45.3898C33.6683 44.7271 33.1261 44.1822 32.4607 44.1822C22.5224 44.1822 15.6011 40.4729 15.6011 37.1409C15.6011 36.4781 15.0588 35.9332 14.3934 35.9332C13.9848 35.9332 13.6233 36.1402 13.4006 36.4571C13.4268 36.947 13.3744 37.4237 13.2461 37.8796C13.4818 39.4565 14.4668 40.9103 16.0438 42.1573C16.3057 42.2778 16.5677 42.4245 16.8008 42.5921L18.0215 43.4644C19.1688 44.0957 20.4839 44.6458 21.9456 45.1069C22.4747 45.154 22.9856 45.3007 23.4414 45.5286C26.1159 46.2123 29.1808 46.5947 32.4683 46.5947C33.1337 46.5974 33.6683 46.0526 33.6683 45.3898ZM22.999 40.2057C22.7633 40.8292 23.0802 41.526 23.6958 41.7617C26.1372 42.6864 29.2492 43.1972 32.4606 43.1972C34.2366 43.1972 35.9682 43.0426 37.6054 42.7466C38.2629 42.6261 38.6925 41.9948 38.5772 41.3452C38.462 40.6956 37.8333 40.2529 37.1758 40.3734C35.6879 40.6484 34.1057 40.782 32.4685 40.782C29.5451 40.782 26.7343 40.3262 24.5628 39.501C23.9315 39.2679 23.2347 39.5822 22.999 40.2057ZM31.2555 27.0083C31.2555 27.671 31.7977 28.2159 32.4631 28.2159C42.4879 28.2159 50.957 32.3076 50.957 37.1409C50.957 37.8037 51.4992 38.3485 52.1646 38.3485C52.8273 38.3485 53.3722 37.8063 53.3722 37.1409C53.3722 34.9615 52.2929 32.9497 50.4069 31.2391C49.0735 30.0315 47.3289 28.9732 45.2831 28.1219C41.7624 26.6601 37.3304 25.7957 32.4605 25.7957C31.7977 25.8009 31.2555 26.3376 31.2555 27.0083ZM63.7455 27.3698C64.5025 28.3494 64.5759 29.7247 63.9262 30.783L63.0749 32.1713C62.6322 32.8943 61.8935 33.4051 61.0552 33.5597L58.7003 33.9893C58.5195 34.0233 58.3388 34.0364 58.158 34.0364C57.5948 34.0364 57.0447 33.8819 56.5628 33.5728L54.7264 32.4201C53.8489 31.87 53.3381 30.9113 53.325 29.8975L52.7697 30.0652C52.4344 30.1647 52.086 30.2197 51.7376 30.2197C51.1141 30.2197 50.4906 30.0599 49.9458 29.743L47.1559 28.1398C45.875 27.4011 45.1703 25.9211 45.4061 24.4646L45.7492 22.3375C45.909 21.3316 46.4932 20.441 47.3524 19.8909L50.0086 18.1803C50.7656 17.6983 51.6641 17.5097 52.5495 17.6643L55.3787 18.1463C56.8875 18.4082 58.0689 19.5949 58.3099 21.1038L58.805 24.1555L60.1672 24.2891C60.9923 24.3703 61.7494 24.7921 62.2523 25.4418L63.7455 27.3698ZM61.0238 30.9113L61.8751 29.523C62.0035 29.316 61.9904 29.041 61.841 28.8524L60.3531 26.927C60.2536 26.7987 60.1043 26.7122 59.9366 26.6991L57.0473 26.4162H56.987C56.712 26.4162 56.471 26.6048 56.4107 26.872L55.7401 29.743C55.6799 29.9918 55.7873 30.2459 56.0021 30.3795L57.8384 31.5322C57.9667 31.6134 58.1134 31.6396 58.2601 31.6134L60.6151 31.1838C60.788 31.1523 60.9295 31.0528 61.0238 30.9113ZM48.3554 26.0495L51.1453 27.6526C51.4282 27.8124 51.7635 27.8543 52.07 27.76L53.8539 27.223L54.0608 26.3245C54.328 25.1719 55.2475 24.3258 56.3477 24.0769L55.926 21.4941C55.8448 20.999 55.4623 20.6165 54.9672 20.5274L52.1381 20.0455C51.8499 19.9983 51.5539 20.0585 51.3077 20.2131L48.6515 21.9237C48.3686 22.1044 48.1826 22.3926 48.1276 22.7226L47.7844 24.8497C47.7032 25.3265 47.9389 25.8085 48.3554 26.0495ZM56.7722 42.8615C58.3544 43.5583 59.3131 45.2426 59.093 46.9584L59.0407 47.4011C58.7997 49.3187 57.1572 50.8013 55.2188 50.8406L49.2305 50.969H49.1493C47.8945 50.969 46.7157 50.3717 45.9718 49.3527C45.2147 48.3127 45.013 46.9715 45.4295 45.7586C45.791 44.6925 46.5952 43.8333 47.643 43.3985L51.4047 41.8294C52.3897 41.4207 53.516 41.426 54.4958 41.8556L56.7722 42.8615ZM55.169 48.428C55.9208 48.4149 56.5495 47.8386 56.6438 47.0999L56.6962 46.6572C56.7826 45.9944 56.408 45.3422 55.7977 45.0749L53.5187 44.0769C53.3249 43.9904 53.1153 43.9485 52.9084 43.9485C52.7067 43.9485 52.5128 43.9878 52.3242 44.0638L48.5626 45.6329C48.1592 45.8005 47.8527 46.1358 47.7112 46.5445C47.5514 47.0212 47.6248 47.5295 47.9182 47.9328C48.2142 48.3415 48.6831 48.5772 49.1782 48.5563L55.169 48.428ZM6.9849 40.6269C6.68889 40.7133 6.3824 40.7605 6.07851 40.7605C5.52841 40.7605 4.98617 40.619 4.50944 40.344L2.23569 39.0368C1.10928 38.3872 0.491056 37.0932 0.700619 35.8122L0.983533 34.0833C1.12499 33.2058 1.64104 32.4199 2.38496 31.9379L3.96718 30.9189C3.71308 30.4631 3.55852 29.9471 3.54543 29.4022L3.53757 29.0669C3.49828 27.4638 4.65875 26.0492 6.2409 25.7741L10.1231 25.1035L10.5789 23.152C10.867 21.926 12.0275 21.0878 13.2875 21.2083L15.4068 21.4152C15.4539 21.4231 15.5011 21.4362 15.5482 21.4414C15.5613 21.0118 15.6425 20.5822 15.8233 20.1736L17.2168 17.0406C17.8796 15.5448 19.5509 14.7328 21.099 15.1624L24.2451 16.0347C25.1096 16.2757 25.8404 16.8808 26.236 17.6903L27.4567 20.1657C28.0539 21.3733 27.8444 22.8219 26.9328 23.841L25.6728 25.2555C25.0546 25.9524 24.1718 26.3557 23.2575 26.3689L20.5411 26.4082C20.5201 26.416 20.507 26.4082 20.4939 26.4082C19.8495 26.4082 19.2339 26.2143 18.71 25.8581C18.6497 26.141 18.5502 26.4134 18.3956 26.6622L17.7722 27.6812C17.3976 28.2916 16.7793 28.7133 16.0747 28.8469L14.3511 29.1613C14.1153 29.9262 13.6124 30.5837 12.9234 31.0054L11.26 32.0113C11.4486 32.3335 11.5875 32.695 11.6477 33.0775L12.1585 36.2104C12.4126 37.7586 11.467 39.2753 9.96598 39.7233L6.9849 40.6269ZM3.43802 36.9464L5.71176 38.2536C5.88727 38.3531 6.09421 38.3741 6.28806 38.3217L9.27955 37.4153C9.62795 37.3079 9.85061 36.9595 9.79036 36.5979L9.27955 33.465C9.2324 33.1559 8.9914 32.9149 8.6823 32.8625L6.38234 32.4669C6.20159 32.4329 6.02084 32.4748 5.86629 32.5743L3.69991 33.9679C3.5244 34.0832 3.4039 34.2639 3.37247 34.463L3.08955 36.1919C3.03454 36.4957 3.17607 36.7997 3.43802 36.9464ZM15.2467 23.8616C15.2257 23.8354 15.1995 23.8223 15.1654 23.8145L13.0462 23.6075H13.0331C12.9807 23.6075 12.9336 23.6416 12.9179 23.694L12.5564 25.2421C12.9179 25.4019 13.2532 25.6298 13.5413 25.9206C13.7823 26.1694 13.9762 26.4445 14.1307 26.7458L15.6317 26.4707C15.6658 26.4628 15.692 26.4445 15.7051 26.4183L16.3285 25.3993C16.3547 25.36 16.3495 25.305 16.3207 25.271L15.2467 23.8616ZM6.64953 28.155C6.24088 28.2284 5.93963 28.5899 5.94486 29.0064L5.95272 29.3417C5.96058 29.6429 6.13347 29.9049 6.38757 30.0516C6.51593 30.0594 6.64952 30.0725 6.77526 30.0908L9.07523 30.4864C9.08832 30.4864 9.09618 30.4943 9.10928 30.4943L11.6712 28.9383C11.8781 28.8099 12.0196 28.603 12.0667 28.3672C12.1401 27.9795 11.9253 27.7176 11.831 27.6232C11.7498 27.542 11.5428 27.3744 11.2337 27.3744C11.1866 27.3744 11.1342 27.3822 11.087 27.3875L6.64953 28.155ZM18.1913 22.1327L19.9752 23.7961C20.1167 23.9297 20.3105 24.0109 20.5043 23.9978L23.2208 23.9585C23.4618 23.9507 23.6976 23.8433 23.8705 23.6494L25.1305 22.2348C25.3793 21.9519 25.4448 21.5512 25.2903 21.2289L24.0696 18.7535C23.9753 18.5596 23.8024 18.4182 23.5928 18.3579L20.4441 17.4908C20.376 17.4699 20.3027 17.4646 20.2372 17.4646C19.894 17.4646 19.5666 17.6794 19.412 18.02L18.0184 21.153C17.8691 21.5014 17.9372 21.8917 18.1913 22.1327ZM23.75 52.865C23.2208 53.3601 22.5423 53.6299 21.8324 53.6299C21.6569 53.6299 21.484 53.6168 21.3164 53.5828L19.6661 53.2815C18.9012 53.1401 18.2175 52.6843 17.801 52.0268C17.7879 52.0137 17.7801 51.9927 17.7748 51.9744C17.4919 52.0425 17.2038 52.0818 16.9104 52.0818C16.6222 52.0818 16.3341 52.0477 16.0459 51.9744L11.0242 50.7144C9.32678 50.2848 8.17415 48.6502 8.3418 46.9056L8.38109 46.5231C8.53565 44.9619 9.71445 43.6652 11.2574 43.3718L13.3687 42.9684C14.3222 42.7877 15.3203 43.0025 16.1035 43.5657L18.9745 45.6115C19.2836 45.8316 19.5508 46.0935 19.7734 46.3974C20.0144 46.3293 20.2633 46.2821 20.5252 46.2821H21.6176C23.0452 46.2821 24.2476 47.3483 24.4153 48.7707L24.617 50.4681C24.7217 51.3771 24.4075 52.2416 23.75 52.865ZM17.5207 49.4858L17.7957 48.4197C17.8298 48.2782 17.8822 48.1446 17.9372 48.0163C17.856 47.8486 17.7355 47.7019 17.5809 47.5867L14.7099 45.5408C14.5161 45.3993 14.2803 45.326 14.0393 45.326C13.966 45.326 13.8979 45.3339 13.8245 45.347L11.7132 45.7504C11.2181 45.8447 10.8357 46.2664 10.7885 46.7693L10.7492 47.1518C10.6968 47.715 11.0636 48.2441 11.6137 48.3777L16.6354 49.6377C16.9366 49.7137 17.2509 49.6535 17.5207 49.4858ZM20.1297 49.0169L19.7735 50.4053C19.7342 50.552 19.7866 50.6672 19.8258 50.7275C19.8599 50.7799 19.9463 50.882 20.093 50.9082L21.7433 51.2095C21.9188 51.2435 22.0393 51.1571 22.0917 51.1099C22.1441 51.0575 22.2384 50.9423 22.2201 50.7668L22.0184 49.0693C21.9922 48.8676 21.8245 48.7131 21.615 48.7131H20.5226C20.3366 48.7078 20.1769 48.8362 20.1297 49.0169ZM28.7872 16.8803C28.7872 17.5431 29.3294 18.0879 29.9948 18.0879C30.6576 18.0879 31.2024 17.5457 31.2024 16.8803C31.2024 16.0814 31.4853 15.7408 31.9595 15.1776C32.5148 14.5148 33.2798 13.6006 33.2798 11.9241C33.2798 10.2476 32.5149 9.33597 31.9595 8.6706C31.4906 8.1074 31.2024 7.76421 31.2024 6.96787C31.2024 6.16891 31.4853 5.82838 31.9595 5.27044C32.5148 4.6077 33.2798 3.69345 33.2798 2.01695C33.2798 1.3542 32.7375 0.809326 32.0721 0.809326C31.4094 0.809326 30.8645 1.35157 30.8645 2.01695C30.8645 2.8159 30.5816 3.15643 30.1075 3.71438C29.5521 4.37712 28.7872 5.29136 28.7872 6.96787C28.7872 8.64437 29.5521 9.55599 30.1075 10.2214C30.5764 10.7846 30.8645 11.1277 30.8645 11.9241C30.8645 12.723 30.5816 13.0636 30.1075 13.6268C29.5495 14.2922 28.7872 15.1986 28.7872 16.8803ZM35.1448 16.8803C35.1448 17.5431 35.6871 18.0879 36.3525 18.0879C37.0152 18.0879 37.5601 17.5457 37.5601 16.8803C37.5601 16.0814 37.843 15.7408 38.3171 15.1776C38.8725 14.5148 39.6374 13.6006 39.6374 11.9241C39.6374 10.2476 38.8725 9.33597 38.3171 8.6706C37.8482 8.1074 37.5601 7.76421 37.5601 6.96787C37.5601 6.16891 37.843 5.82838 38.3171 5.27044C38.8725 4.6077 39.6374 3.69345 39.6374 2.01695C39.6374 1.3542 39.0952 0.809326 38.4298 0.809326C37.767 0.809326 37.2222 1.35157 37.2222 2.01695C37.2222 2.8159 36.9392 3.15643 36.4651 3.71438C35.9098 4.37712 35.1448 5.29136 35.1448 6.96787C35.1448 8.64437 35.9097 9.55599 36.4651 10.2214C36.934 10.7846 37.2222 11.1277 37.2222 11.9241C37.2222 12.723 36.9392 13.0636 36.4651 13.6268C35.9072 14.2922 35.1448 15.1986 35.1448 16.8803ZM41.4999 16.8803C41.4999 17.5431 42.0421 18.0879 42.7075 18.0879C43.3702 18.0879 43.9151 17.5457 43.9151 16.8803C43.9151 16.0814 44.198 15.7408 44.6721 15.1776C45.2275 14.5148 45.9924 13.6006 45.9924 11.9241C45.9924 10.2476 45.2275 9.33597 44.6721 8.6706C44.198 8.11001 43.9151 7.76683 43.9151 6.97049C43.9151 6.17153 44.198 5.831 44.6721 5.27306C45.2275 4.61031 45.9924 3.69607 45.9924 2.01956C45.9924 1.35682 45.4502 0.811942 44.7848 0.811942C44.1221 0.811942 43.5772 1.35418 43.5772 2.01956C43.5772 2.81852 43.2943 3.15905 42.8201 3.71699C42.2648 4.37973 41.4999 5.29398 41.4999 6.97049C41.4999 8.64699 42.2647 9.55861 42.8201 10.224C43.289 10.7872 43.5772 11.1304 43.5772 11.9267C43.5772 12.7257 43.2943 13.0662 42.8201 13.6294C42.2648 14.2922 41.4999 15.1985 41.4999 16.8803Z" fill="#8EB79F"/>
</svg>
